  0
SECTION
  2
HEADER
  9
$ANGBASE
  50
0.0
  9
$ANGDIR
  70
1
  9
$MEASUREMENT
  70
0
  0
ENDSEC
  0
SECTION
  2
TABLES
  0
TABLE
  2
LTYPE
  70
4
  0
LTYPE
  5
40F
  2
CONTINUOUS
  70
0
  3
Solid line
  72
65
  73
0
  40
0.0
  0
LTYPE
  5
410
  2
DASHDOT
 70
0
  3
Dash Dot ____ _ ____ _
 72
65
 73
4
 40
2.0
 49
1.25
 49
-0.25
 49
0.25
 49
-0.25
  0
LTYPE
  5
411
  2
DASHED
 70
0
  3
Dashed __ __ __ __ __
 72
65
 73
2
 40
0.75
 49
0.5
 49
-0.25
  0
LTYPE
  5
43B
  2
DOTTED
 70
0
  3
Dotted .  .  .  .
 72
65
 73
2
 40
0.2
 49
0.0
 49
-0.2
  0
ENDTAB
  0
TABLE
  2
STYLE
  70
4
  0
STYLE
  2
KICAD
  70
0
  40
0
  41
1
  42
1
  50
0
  71
0
  3
isocp.shx
  0
STYLE
  2
KICADB
  70
0
  40
0
  41
1
  42
1
  50
0
  71
0
  3
isocp.shx
  0
STYLE
  2
KICADI
  70
0
  40
0
  41
1
  42
1
  50
15
  71
0
  3
isocp.shx
  0
STYLE
  2
KICADBI
  70
0
  40
0
  41
1
  42
1
  50
15
  71
0
  3
isocp.shx
  0
ENDTAB
  0
TABLE
  2
LAYER
  70
1
  0
LAYER
  2
BLACK
  70
0
  62
7
  6
CONTINUOUS
  0
ENDTAB
  0
ENDSEC
  0
SECTION
  2
ENTITIES
0
LINE
8
BLACK
6
CONTINUOUS
10
0.0340809448818898
20
-4.0997632677165354
11
0.0408244094488189
21
-4.1019543307086614
0
LINE
8
BLACK
6
CONTINUOUS
10
0.0408244094488189
20
-4.1019543307086614
11
0.047142125984252
21
-4.1051733858267712
0
LINE
8
BLACK
6
CONTINUOUS
10
0.047142125984252
20
-4.1051733858267712
11
0.0528784645669291
21
-4.1093410629921259
0
LINE
8
BLACK
6
CONTINUOUS
10
0.0528784645669291
20
-4.1093410629921259
11
0.0578922047244094
21
-4.114354803149606
0
LINE
8
BLACK
6
CONTINUOUS
10
0.0578922047244094
20
-4.114354803149606
11
0.0620598818897638
21
-4.1200911417322832
0
LINE
8
BLACK
6
CONTINUOUS
10
0.0620598818897638
20
-4.1200911417322832
11
0.065278937007874
21
-4.1264088582677161
0
LINE
8
BLACK
6
CONTINUOUS
10
0.065278937007874
20
-4.1264088582677161
11
0.06747
21
-4.1331523228346452
0
LINE
8
BLACK
6
CONTINUOUS
10
0.06747
20
-4.1331523228346452
11
0.0685792125984252
21
-4.1401555511811026
0
LINE
8
BLACK
6
CONTINUOUS
10
0.0685792125984252
20
-4.1401555511811026
11
0.0685792125984252
21
-4.1472460236220474
0
LINE
8
BLACK
6
CONTINUOUS
10
0.0685792125984252
20
-4.1472460236220474
11
0.06747
21
-4.1542492519685039
0
LINE
8
BLACK
6
CONTINUOUS
10
0.06747
20
-4.1542492519685039
11
0.065278937007874
21
-4.160992716535433
0
LINE
8
BLACK
6
CONTINUOUS
10
0.065278937007874
20
-4.160992716535433
11
0.0620598818897638
21
-4.1673104330708659
0
LINE
8
BLACK
6
CONTINUOUS
10
0.0620598818897638
20
-4.1673104330708659
11
0.0578922047244094
21
-4.1730467716535431
0
LINE
8
BLACK
6
CONTINUOUS
10
0.0578922047244094
20
-4.1730467716535431
11
0.0528784645669291
21
-4.1780605118110232
0
LINE
8
BLACK
6
CONTINUOUS
10
0.0528784645669291
20
-4.1780605118110232
11
0.047142125984252
21
-4.1822281889763779
0
LINE
8
BLACK
6
CONTINUOUS
10
0.047142125984252
20
-4.1822281889763779
11
0.0408244094488189
21
-4.1854472440944877
0
LINE
8
BLACK
6
CONTINUOUS
10
0.0408244094488189
20
-4.1854472440944877
11
0.0340809448818898
21
-4.1876383070866137
0
LINE
8
BLACK
6
CONTINUOUS
10
0.0340809448818898
20
-4.1876383070866137
11
0.0270777165354331
21
-4.1887475196850392
0
LINE
8
BLACK
6
CONTINUOUS
10
0.0270777165354331
20
-4.1887475196850392
11
0.0199872440944882
21
-4.1887475196850392
0
LINE
8
BLACK
6
CONTINUOUS
10
0.0199872440944882
20
-4.1887475196850392
11
0.0129840157480315
21
-4.1876383070866137
0
LINE
8
BLACK
6
CONTINUOUS
10
0.0129840157480315
20
-4.1876383070866137
11
0.0062405511811024
21
-4.1854472440944877
0
LINE
8
BLACK
6
CONTINUOUS
10
0.0062405511811024
20
-4.1854472440944877
11
-0.0000771653543307
21
-4.1822281889763779
0
LINE
8
BLACK
6
CONTINUOUS
10
-0.0000771653543307
20
-4.1822281889763779
11
-0.0058135039370079
21
-4.1780605118110232
0
LINE
8
BLACK
6
CONTINUOUS
10
-0.0058135039370079
20
-4.1780605118110232
11
-0.0108272440944882
21
-4.1730467716535431
0
LINE
8
BLACK
6
CONTINUOUS
10
-0.0108272440944882
20
-4.1730467716535431
11
-0.0149949212598425
21
-4.1673104330708659
0
LINE
8
BLACK
6
CONTINUOUS
10
-0.0149949212598425
20
-4.1673104330708659
11
-0.0182139763779528
21
-4.160992716535433
0
LINE
8
BLACK
6
CONTINUOUS
10
-0.0182139763779528
20
-4.160992716535433
11
-0.0204050393700787
21
-4.1542492519685039
0
LINE
8
BLACK
6
CONTINUOUS
10
-0.0204050393700787
20
-4.1542492519685039
11
-0.0215142519685039
21
-4.1472460236220474
0
LINE
8
BLACK
6
CONTINUOUS
10
-0.0215142519685039
20
-4.1472460236220474
11
-0.0215142519685039
21
-4.1401555511811026
0
LINE
8
BLACK
6
CONTINUOUS
10
-0.0215142519685039
20
-4.1401555511811026
11
-0.0214322834645669
21
-4.1396381102362207
0
LINE
8
BLACK
6
CONTINUOUS
10
-0.0214322834645669
20
-4.1396381102362207
11
-0.0204050393700787
21
-4.1331523228346452
0
LINE
8
BLACK
6
CONTINUOUS
10
-0.0204050393700787
20
-4.1331523228346452
11
-0.0182139763779528
21
-4.1264088582677161
0
LINE
8
BLACK
6
CONTINUOUS
10
-0.0182139763779528
20
-4.1264088582677161
11
-0.0149949212598425
21
-4.1200911417322832
0
LINE
8
BLACK
6
CONTINUOUS
10
-0.0149949212598425
20
-4.1200911417322832
11
-0.0108272440944882
21
-4.114354803149606
0
LINE
8
BLACK
6
CONTINUOUS
10
-0.0108272440944882
20
-4.114354803149606
11
-0.0058135039370079
21
-4.1093410629921259
0
LINE
8
BLACK
6
CONTINUOUS
10
-0.0058135039370079
20
-4.1093410629921259
11
-0.0000771653543307
21
-4.1051733858267712
0
LINE
8
BLACK
6
CONTINUOUS
10
-0.0000771653543307
20
-4.1051733858267712
11
0.0062405511811024
21
-4.1019543307086614
0
LINE
8
BLACK
6
CONTINUOUS
10
0.0062405511811024
20
-4.1019543307086614
11
0.0129840157480315
21
-4.0997632677165354
0
LINE
8
BLACK
6
CONTINUOUS
10
0.0129840157480315
20
-4.0997632677165354
11
0.0199872440944882
21
-4.0986540551181099
0
LINE
8
BLACK
6
CONTINUOUS
10
0.0199872440944882
20
-4.0986540551181099
11
0.0270777165354331
21
-4.0986540551181099
0
LINE
8
BLACK
6
CONTINUOUS
10
0.0270777165354331
20
-4.0986540551181099
11
0.0340809448818898
21
-4.0997632677165354
0
LINE
8
BLACK
6
CONTINUOUS
10
-0.0177165354330709
20
-4.1477634645669292
11
-0.0161313385826772
21
-4.1557326771653544
0
LINE
8
BLACK
6
CONTINUOUS
10
-0.0161313385826772
20
-4.1557326771653544
11
-0.0130218897637795
21
-4.163239527559055
0
LINE
8
BLACK
6
CONTINUOUS
10
-0.0130218897637795
20
-4.163239527559055
11
-0.0085077165354331
21
-4.1699954724409452
0
LINE
8
BLACK
6
CONTINUOUS
10
-0.0085077165354331
20
-4.1699954724409452
11
-0.0027622047244094
21
-4.1757409842519682
0
LINE
8
BLACK
6
CONTINUOUS
10
-0.0027622047244094
20
-4.1757409842519682
11
0.0039937401574803
21
-4.1802551574803148
0
LINE
8
BLACK
6
CONTINUOUS
10
0.0039937401574803
20
-4.1802551574803148
11
0.0115005905511811
21
-4.1833646062992127
0
LINE
8
BLACK
6
CONTINUOUS
10
0.0115005905511811
20
-4.1833646062992127
11
0.0194698031496063
21
-4.184949803149606
0
LINE
8
BLACK
6
CONTINUOUS
10
0.0194698031496063
20
-4.184949803149606
11
0.027595157480315
21
-4.184949803149606
0
LINE
8
BLACK
6
CONTINUOUS
10
0.027595157480315
20
-4.184949803149606
11
0.0355643700787402
21
-4.1833646062992127
0
LINE
8
BLACK
6
CONTINUOUS
10
0.0355643700787402
20
-4.1833646062992127
11
0.0430712204724409
21
-4.1802551574803148
0
LINE
8
BLACK
6
CONTINUOUS
10
0.0430712204724409
20
-4.1802551574803148
11
0.0498271653543307
21
-4.1757409842519682
0
LINE
8
BLACK
6
CONTINUOUS
10
0.0498271653543307
20
-4.1757409842519682
11
0.0555726771653543
21
-4.1699954724409452
0
LINE
8
BLACK
6
CONTINUOUS
10
0.0555726771653543
20
-4.1699954724409452
11
0.0600868503937008
21
-4.163239527559055
0
LINE
8
BLACK
6
CONTINUOUS
10
0.0600868503937008
20
-4.163239527559055
11
0.0631962992125984
21
-4.1557326771653544
0
LINE
8
BLACK
6
CONTINUOUS
10
0.0631962992125984
20
-4.1557326771653544
11
0.0647814960629921
21
-4.1477634645669292
0
LINE
8
BLACK
6
CONTINUOUS
10
0.0647814960629921
20
-4.1477634645669292
11
0.0647814960629921
21
-4.1396381102362207
0
LINE
8
BLACK
6
CONTINUOUS
10
0.0647814960629921
20
-4.1396381102362207
11
0.0631962992125984
21
-4.1316688976377955
0
LINE
8
BLACK
6
CONTINUOUS
10
0.0631962992125984
20
-4.1316688976377955
11
0.0600868503937008
21
-4.1241620472440941
0
LINE
8
BLACK
6
CONTINUOUS
10
0.0600868503937008
20
-4.1241620472440941
11
0.0555726771653543
21
-4.1174061023622048
0
LINE
8
BLACK
6
CONTINUOUS
10
0.0555726771653543
20
-4.1174061023622048
11
0.0498271653543307
21
-4.1116605905511809
0
LINE
8
BLACK
6
CONTINUOUS
10
0.0498271653543307
20
-4.1116605905511809
11
0.0430712204724409
21
-4.1071464173228343
0
LINE
8
BLACK
6
CONTINUOUS
10
0.0430712204724409
20
-4.1071464173228343
11
0.0355643700787402
21
-4.1040369685039373
0
LINE
8
BLACK
6
CONTINUOUS
10
0.0355643700787402
20
-4.1040369685039373
11
0.027595157480315
21
-4.1024517716535431
0
LINE
8
BLACK
6
CONTINUOUS
10
0.027595157480315
20
-4.1024517716535431
11
0.0194698031496063
21
-4.1024517716535431
0
LINE
8
BLACK
6
CONTINUOUS
10
0.0194698031496063
20
-4.1024517716535431
11
0.0115005905511811
21
-4.1040369685039373
0
LINE
8
BLACK
6
CONTINUOUS
10
0.0115005905511811
20
-4.1040369685039373
11
0.0039937401574803
21
-4.1071464173228343
0
LINE
8
BLACK
6
CONTINUOUS
10
0.0039937401574803
20
-4.1071464173228343
11
-0.0027622047244094
21
-4.1116605905511809
0
LINE
8
BLACK
6
CONTINUOUS
10
-0.0027622047244094
20
-4.1116605905511809
11
-0.0085077165354331
21
-4.1174061023622048
0
LINE
8
BLACK
6
CONTINUOUS
10
-0.0085077165354331
20
-4.1174061023622048
11
-0.0130218897637795
21
-4.1241620472440941
0
LINE
8
BLACK
6
CONTINUOUS
10
-0.0130218897637795
20
-4.1241620472440941
11
-0.0161313385826772
21
-4.1316688976377955
0
LINE
8
BLACK
6
CONTINUOUS
10
-0.0161313385826772
20
-4.1316688976377955
11
-0.0177165354330709
21
-4.1396381102362207
0
LINE
8
BLACK
6
CONTINUOUS
10
-0.0177165354330709
20
-4.1396381102362207
11
-0.0177165354330709
21
-4.1477634645669292
0
LINE
8
BLACK
6
CONTINUOUS
10
11.8807167716535425
20
-4.0997632677165354
11
11.8874602362204715
21
-4.1019543307086614
0
LINE
8
BLACK
6
CONTINUOUS
10
11.8874602362204715
20
-4.1019543307086614
11
11.8937779527559044
21
-4.1051733858267712
0
LINE
8
BLACK
6
CONTINUOUS
10
11.8937779527559044
20
-4.1051733858267712
11
11.8995142913385816
21
-4.1093410629921259
0
LINE
8
BLACK
6
CONTINUOUS
10
11.8995142913385816
20
-4.1093410629921259
11
11.9045280314960635
21
-4.114354803149606
0
LINE
8
BLACK
6
CONTINUOUS
10
11.9045280314960635
20
-4.114354803149606
11
11.9086957086614174
21
-4.1200911417322832
0
LINE
8
BLACK
6
CONTINUOUS
10
11.9086957086614174
20
-4.1200911417322832
11
11.911914763779528
21
-4.1264088582677161
0
LINE
8
BLACK
6
CONTINUOUS
10
11.911914763779528
20
-4.1264088582677161
11
11.9141058267716531
21
-4.1331523228346452
0
LINE
8
BLACK
6
CONTINUOUS
10
11.9141058267716531
20
-4.1331523228346452
11
11.9152150393700786
21
-4.1401555511811026
0
LINE
8
BLACK
6
CONTINUOUS
10
11.9152150393700786
20
-4.1401555511811026
11
11.9152150393700786
21
-4.1472460236220474
0
LINE
8
BLACK
6
CONTINUOUS
10
11.9152150393700786
20
-4.1472460236220474
11
11.9141058267716531
21
-4.1542492519685039
0
LINE
8
BLACK
6
CONTINUOUS
10
11.9141058267716531
20
-4.1542492519685039
11
11.911914763779528
21
-4.160992716535433
0
LINE
8
BLACK
6
CONTINUOUS
10
11.911914763779528
20
-4.160992716535433
11
11.9086957086614174
21
-4.1673104330708659
0
LINE
8
BLACK
6
CONTINUOUS
10
11.9086957086614174
20
-4.1673104330708659
11
11.9045280314960635
21
-4.1730467716535431
0
LINE
8
BLACK
6
CONTINUOUS
10
11.9045280314960635
20
-4.1730467716535431
11
11.8995142913385816
21
-4.1780605118110232
0
LINE
8
BLACK
6
CONTINUOUS
10
11.8995142913385816
20
-4.1780605118110232
11
11.8937779527559044
21
-4.1822281889763779
0
LINE
8
BLACK
6
CONTINUOUS
10
11.8937779527559044
20
-4.1822281889763779
11
11.8874602362204715
21
-4.1854472440944877
0
LINE
8
BLACK
6
CONTINUOUS
10
11.8874602362204715
20
-4.1854472440944877
11
11.8807167716535425
21
-4.1876383070866137
0
LINE
8
BLACK
6
CONTINUOUS
10
11.8807167716535425
20
-4.1876383070866137
11
11.8737135433070868
21
-4.1887475196850392
0
LINE
8
BLACK
6
CONTINUOUS
10
11.8737135433070868
20
-4.1887475196850392
11
11.866623070866142
21
-4.1887475196850392
0
LINE
8
BLACK
6
CONTINUOUS
10
11.866623070866142
20
-4.1887475196850392
11
11.8596198425196846
21
-4.1876383070866137
0
LINE
8
BLACK
6
CONTINUOUS
10
11.8596198425196846
20
-4.1876383070866137
11
11.8528763779527555
21
-4.1854472440944877
0
LINE
8
BLACK
6
CONTINUOUS
10
11.8528763779527555
20
-4.1854472440944877
11
11.8465586614173226
21
-4.1822281889763779
0
LINE
8
BLACK
6
CONTINUOUS
10
11.8465586614173226
20
-4.1822281889763779
11
11.8408223228346454
21
-4.1780605118110232
0
LINE
8
BLACK
6
CONTINUOUS
10
11.8408223228346454
20
-4.1780605118110232
11
11.8358085826771653
21
-4.1730467716535431
0
LINE
8
BLACK
6
CONTINUOUS
10
11.8358085826771653
20
-4.1730467716535431
11
11.8316409055118115
21
-4.1673104330708659
0
LINE
8
BLACK
6
CONTINUOUS
10
11.8316409055118115
20
-4.1673104330708659
11
11.8284218503937009
21
-4.160992716535433
0
LINE
8
BLACK
6
CONTINUOUS
10
11.8284218503937009
20
-4.160992716535433
11
11.826230787401574
21
-4.1542492519685039
0
LINE
8
BLACK
6
CONTINUOUS
10
11.826230787401574
20
-4.1542492519685039
11
11.8251215748031502
21
-4.1472460236220474
0
LINE
8
BLACK
6
CONTINUOUS
10
11.8251215748031502
20
-4.1472460236220474
11
11.8251215748031502
21
-4.1401555511811026
0
LINE
8
BLACK
6
CONTINUOUS
10
11.8251215748031502
20
-4.1401555511811026
11
11.8252035433070866
21
-4.1396381102362207
0
LINE
8
BLACK
6
CONTINUOUS
10
11.8252035433070866
20
-4.1396381102362207
11
11.826230787401574
21
-4.1331523228346452
0
LINE
8
BLACK
6
CONTINUOUS
10
11.826230787401574
20
-4.1331523228346452
11
11.8284218503937009
21
-4.1264088582677161
0
LINE
8
BLACK
6
CONTINUOUS
10
11.8284218503937009
20
-4.1264088582677161
11
11.8316409055118115
21
-4.1200911417322832
0
LINE
8
BLACK
6
CONTINUOUS
10
11.8316409055118115
20
-4.1200911417322832
11
11.8358085826771653
21
-4.114354803149606
0
LINE
8
BLACK
6
CONTINUOUS
10
11.8358085826771653
20
-4.114354803149606
11
11.8408223228346454
21
-4.1093410629921259
0
LINE
8
BLACK
6
CONTINUOUS
10
11.8408223228346454
20
-4.1093410629921259
11
11.8465586614173226
21
-4.1051733858267712
0
LINE
8
BLACK
6
CONTINUOUS
10
11.8465586614173226
20
-4.1051733858267712
11
11.8528763779527555
21
-4.1019543307086614
0
LINE
8
BLACK
6
CONTINUOUS
10
11.8528763779527555
20
-4.1019543307086614
11
11.8596198425196846
21
-4.0997632677165354
0
LINE
8
BLACK
6
CONTINUOUS
10
11.8596198425196846
20
-4.0997632677165354
11
11.866623070866142
21
-4.0986540551181099
0
LINE
8
BLACK
6
CONTINUOUS
10
11.866623070866142
20
-4.0986540551181099
11
11.8737135433070868
21
-4.0986540551181099
0
LINE
8
BLACK
6
CONTINUOUS
10
11.8737135433070868
20
-4.0986540551181099
11
11.8807167716535425
21
-4.0997632677165354
0
LINE
8
BLACK
6
CONTINUOUS
10
11.8289192913385826
20
-4.1477634645669292
11
11.8305044881889767
21
-4.1557326771653544
0
LINE
8
BLACK
6
CONTINUOUS
10
11.8305044881889767
20
-4.1557326771653544
11
11.8336139370078737
21
-4.163239527559055
0
LINE
8
BLACK
6
CONTINUOUS
10
11.8336139370078737
20
-4.163239527559055
11
11.8381281102362195
21
-4.1699954724409452
0
LINE
8
BLACK
6
CONTINUOUS
10
11.8381281102362195
20
-4.1699954724409452
11
11.8438736220472443
21
-4.1757409842519682
0
LINE
8
BLACK
6
CONTINUOUS
10
11.8438736220472443
20
-4.1757409842519682
11
11.8506295669291344
21
-4.1802551574803148
0
LINE
8
BLACK
6
CONTINUOUS
10
11.8506295669291344
20
-4.1802551574803148
11
11.8581364173228341
21
-4.1833646062992127
0
LINE
8
BLACK
6
CONTINUOUS
10
11.8581364173228341
20
-4.1833646062992127
11
11.8661056299212593
21
-4.184949803149606
0
LINE
8
BLACK
6
CONTINUOUS
10
11.8661056299212593
20
-4.184949803149606
11
11.8742309842519678
21
-4.184949803149606
0
LINE
8
BLACK
6
CONTINUOUS
10
11.8742309842519678
20
-4.184949803149606
11
11.882200196850393
21
-4.1833646062992127
0
LINE
8
BLACK
6
CONTINUOUS
10
11.882200196850393
20
-4.1833646062992127
11
11.8897070472440944
21
-4.1802551574803148
0
LINE
8
BLACK
6
CONTINUOUS
10
11.8897070472440944
20
-4.1802551574803148
11
11.8964629921259846
21
-4.1757409842519682
0
LINE
8
BLACK
6
CONTINUOUS
10
11.8964629921259846
20
-4.1757409842519682
11
11.9022085039370076
21
-4.1699954724409452
0
LINE
8
BLACK
6
CONTINUOUS
10
11.9022085039370076
20
-4.1699954724409452
11
11.9067226771653534
21
-4.163239527559055
0
LINE
8
BLACK
6
CONTINUOUS
10
11.9067226771653534
20
-4.163239527559055
11
11.9098321259842521
21
-4.1557326771653544
0
LINE
8
BLACK
6
CONTINUOUS
10
11.9098321259842521
20
-4.1557326771653544
11
11.9114173228346463
21
-4.1477634645669292
0
LINE
8
BLACK
6
CONTINUOUS
10
11.9114173228346463
20
-4.1477634645669292
11
11.9114173228346463
21
-4.1396381102362207
0
LINE
8
BLACK
6
CONTINUOUS
10
11.9114173228346463
20
-4.1396381102362207
11
11.9098321259842521
21
-4.1316688976377955
0
LINE
8
BLACK
6
CONTINUOUS
10
11.9098321259842521
20
-4.1316688976377955
11
11.9067226771653534
21
-4.1241620472440941
0
LINE
8
BLACK
6
CONTINUOUS
10
11.9067226771653534
20
-4.1241620472440941
11
11.9022085039370076
21
-4.1174061023622048
0
LINE
8
BLACK
6
CONTINUOUS
10
11.9022085039370076
20
-4.1174061023622048
11
11.8964629921259846
21
-4.1116605905511809
0
LINE
8
BLACK
6
CONTINUOUS
10
11.8964629921259846
20
-4.1116605905511809
11
11.8897070472440944
21
-4.1071464173228343
0
LINE
8
BLACK
6
CONTINUOUS
10
11.8897070472440944
20
-4.1071464173228343
11
11.882200196850393
21
-4.1040369685039373
0
LINE
8
BLACK
6
CONTINUOUS
10
11.882200196850393
20
-4.1040369685039373
11
11.8742309842519678
21
-4.1024517716535431
0
LINE
8
BLACK
6
CONTINUOUS
10
11.8742309842519678
20
-4.1024517716535431
11
11.8661056299212593
21
-4.1024517716535431
0
LINE
8
BLACK
6
CONTINUOUS
10
11.8661056299212593
20
-4.1024517716535431
11
11.8581364173228341
21
-4.1040369685039373
0
LINE
8
BLACK
6
CONTINUOUS
10
11.8581364173228341
20
-4.1040369685039373
11
11.8506295669291344
21
-4.1071464173228343
0
LINE
8
BLACK
6
CONTINUOUS
10
11.8506295669291344
20
-4.1071464173228343
11
11.8438736220472443
21
-4.1116605905511809
0
LINE
8
BLACK
6
CONTINUOUS
10
11.8438736220472443
20
-4.1116605905511809
11
11.8381281102362195
21
-4.1174061023622048
0
LINE
8
BLACK
6
CONTINUOUS
10
11.8381281102362195
20
-4.1174061023622048
11
11.8336139370078737
21
-4.1241620472440941
0
LINE
8
BLACK
6
CONTINUOUS
10
11.8336139370078737
20
-4.1241620472440941
11
11.8305044881889767
21
-4.1316688976377955
0
LINE
8
BLACK
6
CONTINUOUS
10
11.8305044881889767
20
-4.1316688976377955
11
11.8289192913385826
21
-4.1396381102362207
0
LINE
8
BLACK
6
CONTINUOUS
10
11.8289192913385826
20
-4.1396381102362207
11
11.8289192913385826
21
-4.1477634645669292
0
LINE
8
BLACK
6
CONTINUOUS
10
1.6165183858267715
20
-3.5128701968503937
11
1.617051062992126
21
-3.5134028740157479
0
LINE
8
BLACK
6
CONTINUOUS
10
1.617051062992126
20
-3.5134028740157479
11
1.6171259842519685
21
-3.5137795275590551
0
LINE
8
BLACK
6
CONTINUOUS
10
1.6171259842519685
20
-3.5137795275590551
11
1.6171259842519685
21
-4.0649606299212602
0
LINE
8
BLACK
6
CONTINUOUS
10
1.6171259842519685
20
-4.0649606299212602
11
1.617051062992126
21
-4.0653372834645669
0
LINE
8
BLACK
6
CONTINUOUS
10
1.617051062992126
20
-4.0653372834645669
11
1.6165183858267715
21
-4.0658699606299216
0
LINE
8
BLACK
6
CONTINUOUS
10
1.6165183858267715
20
-4.0658699606299216
11
1.6161417322834646
21
-4.0659448818897639
0
LINE
8
BLACK
6
CONTINUOUS
10
1.6161417322834646
20
-4.0659448818897639
11
1.0649606299212597
21
-4.0659448818897639
0
LINE
8
BLACK
6
CONTINUOUS
10
1.0649606299212597
20
-4.0659448818897639
11
1.0645839763779528
21
-4.0658699606299216
0
LINE
8
BLACK
6
CONTINUOUS
10
1.0645839763779528
20
-4.0658699606299216
11
1.0640512992125983
21
-4.0653372834645669
0
LINE
8
BLACK
6
CONTINUOUS
10
1.0640512992125983
20
-4.0653372834645669
11
1.0639763779527558
21
-4.0649606299212602
0
LINE
8
BLACK
6
CONTINUOUS
10
1.0639763779527558
20
-4.0649606299212602
11
1.0639763779527558
21
-3.5137795275590551
0
LINE
8
BLACK
6
CONTINUOUS
10
1.0639763779527558
20
-3.5137795275590551
11
1.0640512992125983
21
-3.5134028740157479
0
LINE
8
BLACK
6
CONTINUOUS
10
1.0640512992125983
20
-3.5134028740157479
11
1.0645839763779528
21
-3.5128701968503937
0
LINE
8
BLACK
6
CONTINUOUS
10
1.0645839763779528
20
-3.5128701968503937
11
1.0649606299212597
21
-3.5127952755905509
0
LINE
8
BLACK
6
CONTINUOUS
10
1.0649606299212597
20
-3.5127952755905509
11
1.6161417322834646
21
-3.5127952755905509
0
LINE
8
BLACK
6
CONTINUOUS
10
1.6161417322834646
20
-3.5127952755905509
11
1.6165183858267715
21
-3.5128701968503937
0
LINE
8
BLACK
6
CONTINUOUS
10
1.0659448818897637
20
-3.5147637795275588
11
1.0659448818897637
21
-4.0639763779527556
0
LINE
8
BLACK
6
CONTINUOUS
10
1.0659448818897637
20
-4.0639763779527556
11
1.6151574803149606
21
-4.0639763779527556
0
LINE
8
BLACK
6
CONTINUOUS
10
1.6151574803149606
20
-4.0639763779527556
11
1.6151574803149606
21
-3.5147637795275588
0
LINE
8
BLACK
6
CONTINUOUS
10
1.6151574803149606
20
-3.5147637795275588
11
1.0659448818897637
21
-3.5147637795275588
0
LINE
8
BLACK
6
CONTINUOUS
10
2.5554947637795276
20
-3.5128701968503937
11
2.5560274409448818
21
-3.5134028740157479
0
LINE
8
BLACK
6
CONTINUOUS
10
2.5560274409448818
20
-3.5134028740157479
11
2.5561023622047245
21
-3.5137795275590551
0
LINE
8
BLACK
6
CONTINUOUS
10
2.5561023622047245
20
-3.5137795275590551
11
2.5561023622047245
21
-4.0649606299212602
0
LINE
8
BLACK
6
CONTINUOUS
10
2.5561023622047245
20
-4.0649606299212602
11
2.5560274409448818
21
-4.0653372834645669
0
LINE
8
BLACK
6
CONTINUOUS
10
2.5560274409448818
20
-4.0653372834645669
11
2.5554947637795276
21
-4.0658699606299216
0
LINE
8
BLACK
6
CONTINUOUS
10
2.5554947637795276
20
-4.0658699606299216
11
2.5551181102362204
21
-4.0659448818897639
0
LINE
8
BLACK
6
CONTINUOUS
10
2.5551181102362204
20
-4.0659448818897639
11
2.0039370078740157
21
-4.0659448818897639
0
LINE
8
BLACK
6
CONTINUOUS
10
2.0039370078740157
20
-4.0659448818897639
11
2.0035603543307086
21
-4.0658699606299216
0
LINE
8
BLACK
6
CONTINUOUS
10
2.0035603543307086
20
-4.0658699606299216
11
2.0030276771653543
21
-4.0653372834645669
0
LINE
8
BLACK
6
CONTINUOUS
10
2.0030276771653543
20
-4.0653372834645669
11
2.0029527559055116
21
-4.0649606299212602
0
LINE
8
BLACK
6
CONTINUOUS
10
2.0029527559055116
20
-4.0649606299212602
11
2.0029527559055116
21
-3.5137795275590551
0
LINE
8
BLACK
6
CONTINUOUS
10
2.0029527559055116
20
-3.5137795275590551
11
2.0030276771653543
21
-3.5134028740157479
0
LINE
8
BLACK
6
CONTINUOUS
10
2.0030276771653543
20
-3.5134028740157479
11
2.0035603543307086
21
-3.5128701968503937
0
LINE
8
BLACK
6
CONTINUOUS
10
2.0035603543307086
20
-3.5128701968503937
11
2.0039370078740157
21
-3.5127952755905509
0
LINE
8
BLACK
6
CONTINUOUS
10
2.0039370078740157
20
-3.5127952755905509
11
2.5551181102362204
21
-3.5127952755905509
0
LINE
8
BLACK
6
CONTINUOUS
10
2.5551181102362204
20
-3.5127952755905509
11
2.5554947637795276
21
-3.5128701968503937
0
LINE
8
BLACK
6
CONTINUOUS
10
2.0049212598425195
20
-3.5147637795275588
11
2.0049212598425195
21
-4.0639763779527556
0
LINE
8
BLACK
6
CONTINUOUS
10
2.0049212598425195
20
-4.0639763779527556
11
2.5541338582677167
21
-4.0639763779527556
0
LINE
8
BLACK
6
CONTINUOUS
10
2.5541338582677167
20
-4.0639763779527556
11
2.5541338582677167
21
-3.5147637795275588
0
LINE
8
BLACK
6
CONTINUOUS
10
2.5541338582677167
20
-3.5147637795275588
11
2.0049212598425195
21
-3.5147637795275588
0
LINE
8
BLACK
6
CONTINUOUS
10
0.6755735039370079
20
-3.5109016929133858
11
0.6761061811023622
21
-3.51143437007874
0
LINE
8
BLACK
6
CONTINUOUS
10
0.6761061811023622
20
-3.51143437007874
11
0.6761811023622047
21
-3.5118110236220472
0
LINE
8
BLACK
6
CONTINUOUS
10
0.6761811023622047
20
-3.5118110236220472
11
0.6761811023622047
21
-4.0629921259842519
0
LINE
8
BLACK
6
CONTINUOUS
10
0.6761811023622047
20
-4.0629921259842519
11
0.6761061811023622
21
-4.0633687795275586
0
LINE
8
BLACK
6
CONTINUOUS
10
0.6761061811023622
20
-4.0633687795275586
11
0.6755735039370079
21
-4.0639014566929132
0
LINE
8
BLACK
6
CONTINUOUS
10
0.6755735039370079
20
-4.0639014566929132
11
0.6751968503937008
21
-4.0639763779527556
0
LINE
8
BLACK
6
CONTINUOUS
10
0.6751968503937008
20
-4.0639763779527556
11
0.1240157480314961
21
-4.0639763779527556
0
LINE
8
BLACK
6
CONTINUOUS
10
0.1240157480314961
20
-4.0639763779527556
11
0.123639094488189
21
-4.0639014566929132
0
LINE
8
BLACK
6
CONTINUOUS
10
0.123639094488189
20
-4.0639014566929132
11
0.1231064173228346
21
-4.0633687795275586
0
LINE
8
BLACK
6
CONTINUOUS
10
0.1231064173228346
20
-4.0633687795275586
11
0.1230314960629921
21
-4.0629921259842519
0
LINE
8
BLACK
6
CONTINUOUS
10
0.1230314960629921
20
-4.0629921259842519
11
0.1230314960629921
21
-3.5118110236220472
0
LINE
8
BLACK
6
CONTINUOUS
10
0.1230314960629921
20
-3.5118110236220472
11
0.1231064173228346
21
-3.51143437007874
0
LINE
8
BLACK
6
CONTINUOUS
10
0.1231064173228346
20
-3.51143437007874
11
0.123639094488189
21
-3.5109016929133858
0
LINE
8
BLACK
6
CONTINUOUS
10
0.123639094488189
20
-3.5109016929133858
11
0.1240157480314961
21
-3.5108267716535431
0
LINE
8
BLACK
6
CONTINUOUS
10
0.1240157480314961
20
-3.5108267716535431
11
0.6751968503937008
21
-3.5108267716535431
0
LINE
8
BLACK
6
CONTINUOUS
10
0.6751968503937008
20
-3.5108267716535431
11
0.6755735039370079
21
-3.5109016929133858
0
LINE
8
BLACK
6
CONTINUOUS
10
0.125
20
-3.5127952755905509
11
0.125
21
-4.0620078740157481
0
LINE
8
BLACK
6
CONTINUOUS
10
0.125
20
-4.0620078740157481
11
0.6742125984251969
21
-4.0620078740157481
0
LINE
8
BLACK
6
CONTINUOUS
10
0.6742125984251969
20
-4.0620078740157481
11
0.6742125984251969
21
-3.5127952755905509
0
LINE
8
BLACK
6
CONTINUOUS
10
0.6742125984251969
20
-3.5127952755905509
11
0.125
21
-3.5127952755905509
0
LINE
8
BLACK
6
CONTINUOUS
10
8.0968333464566928
20
-3.5109016929133858
11
8.0973660236220475
21
-3.51143437007874
0
LINE
8
BLACK
6
CONTINUOUS
10
8.0973660236220475
20
-3.51143437007874
11
8.0974409448818889
21
-3.5118110236220472
0
LINE
8
BLACK
6
CONTINUOUS
10
8.0974409448818889
20
-3.5118110236220472
11
8.0974409448818889
21
-4.0629921259842519
0
LINE
8
BLACK
6
CONTINUOUS
10
8.0974409448818889
20
-4.0629921259842519
11
8.0973660236220475
21
-4.0633687795275586
0
LINE
8
BLACK
6
CONTINUOUS
10
8.0973660236220475
20
-4.0633687795275586
11
8.0968333464566928
21
-4.0639014566929132
0
LINE
8
BLACK
6
CONTINUOUS
10
8.0968333464566928
20
-4.0639014566929132
11
8.0964566929133852
21
-4.0639763779527556
0
LINE
8
BLACK
6
CONTINUOUS
10
8.0964566929133852
20
-4.0639763779527556
11
7.5452755905511806
21
-4.0639763779527556
0
LINE
8
BLACK
6
CONTINUOUS
10
7.5452755905511806
20
-4.0639763779527556
11
7.5448989370078738
21
-4.0639014566929132
0
LINE
8
BLACK
6
CONTINUOUS
10
7.5448989370078738
20
-4.0639014566929132
11
7.5443662598425192
21
-4.0633687795275586
0
LINE
8
BLACK
6
CONTINUOUS
10
7.5443662598425192
20
-4.0633687795275586
11
7.5442913385826769
21
-4.0629921259842519
0
LINE
8
BLACK
6
CONTINUOUS
10
7.5442913385826769
20
-4.0629921259842519
11
7.5442913385826769
21
-3.5118110236220472
0
LINE
8
BLACK
6
CONTINUOUS
10
7.5442913385826769
20
-3.5118110236220472
11
7.5443662598425192
21
-3.51143437007874
0
LINE
8
BLACK
6
CONTINUOUS
10
7.5443662598425192
20
-3.51143437007874
11
7.5448989370078738
21
-3.5109016929133858
0
LINE
8
BLACK
6
CONTINUOUS
10
7.5448989370078738
20
-3.5109016929133858
11
7.5452755905511806
21
-3.5108267716535431
0
LINE
8
BLACK
6
CONTINUOUS
10
7.5452755905511806
20
-3.5108267716535431
11
8.0964566929133852
21
-3.5108267716535431
0
LINE
8
BLACK
6
CONTINUOUS
10
8.0964566929133852
20
-3.5108267716535431
11
8.0968333464566928
21
-3.5109016929133858
0
LINE
8
BLACK
6
CONTINUOUS
10
7.5462598425196852
20
-3.5127952755905509
11
7.5462598425196852
21
-4.0620078740157481
0
LINE
8
BLACK
6
CONTINUOUS
10
7.5462598425196852
20
-4.0620078740157481
11
8.0954724409448815
21
-4.0620078740157481
0
LINE
8
BLACK
6
CONTINUOUS
10
8.0954724409448815
20
-4.0620078740157481
11
8.0954724409448815
21
-3.5127952755905509
0
LINE
8
BLACK
6
CONTINUOUS
10
8.0954724409448815
20
-3.5127952755905509
11
7.5462598425196852
21
-3.5127952755905509
0
LINE
8
BLACK
6
CONTINUOUS
10
8.8468333464566928
20
-3.5109016929133858
11
8.8473660236220475
21
-3.51143437007874
0
LINE
8
BLACK
6
CONTINUOUS
10
8.8473660236220475
20
-3.51143437007874
11
8.8474409448818889
21
-3.5118110236220472
0
LINE
8
BLACK
6
CONTINUOUS
10
8.8474409448818889
20
-3.5118110236220472
11
8.8474409448818889
21
-4.0629921259842519
0
LINE
8
BLACK
6
CONTINUOUS
10
8.8474409448818889
20
-4.0629921259842519
11
8.8473660236220475
21
-4.0633687795275586
0
LINE
8
BLACK
6
CONTINUOUS
10
8.8473660236220475
20
-4.0633687795275586
11
8.8468333464566928
21
-4.0639014566929132
0
LINE
8
BLACK
6
CONTINUOUS
10
8.8468333464566928
20
-4.0639014566929132
11
8.8464566929133852
21
-4.0639763779527556
0
LINE
8
BLACK
6
CONTINUOUS
10
8.8464566929133852
20
-4.0639763779527556
11
8.2952755905511815
21
-4.0639763779527556
0
LINE
8
BLACK
6
CONTINUOUS
10
8.2952755905511815
20
-4.0639763779527556
11
8.2948989370078738
21
-4.0639014566929132
0
LINE
8
BLACK
6
CONTINUOUS
10
8.2948989370078738
20
-4.0639014566929132
11
8.2943662598425192
21
-4.0633687795275586
0
LINE
8
BLACK
6
CONTINUOUS
10
8.2943662598425192
20
-4.0633687795275586
11
8.2942913385826778
21
-4.0629921259842519
0
LINE
8
BLACK
6
CONTINUOUS
10
8.2942913385826778
20
-4.0629921259842519
11
8.2942913385826778
21
-3.5118110236220472
0
LINE
8
BLACK
6
CONTINUOUS
10
8.2942913385826778
20
-3.5118110236220472
11
8.2943662598425192
21
-3.51143437007874
0
LINE
8
BLACK
6
CONTINUOUS
10
8.2943662598425192
20
-3.51143437007874
11
8.2948989370078738
21
-3.5109016929133858
0
LINE
8
BLACK
6
CONTINUOUS
10
8.2948989370078738
20
-3.5109016929133858
11
8.2952755905511815
21
-3.5108267716535431
0
LINE
8
BLACK
6
CONTINUOUS
10
8.2952755905511815
20
-3.5108267716535431
11
8.8464566929133852
21
-3.5108267716535431
0
LINE
8
BLACK
6
CONTINUOUS
10
8.8464566929133852
20
-3.5108267716535431
11
8.8468333464566928
21
-3.5109016929133858
0
LINE
8
BLACK
6
CONTINUOUS
10
8.2962598425196852
20
-3.5127952755905509
11
8.2962598425196852
21
-4.0620078740157481
0
LINE
8
BLACK
6
CONTINUOUS
10
8.2962598425196852
20
-4.0620078740157481
11
8.8454724409448815
21
-4.0620078740157481
0
LINE
8
BLACK
6
CONTINUOUS
10
8.8454724409448815
20
-4.0620078740157481
11
8.8454724409448815
21
-3.5127952755905509
0
LINE
8
BLACK
6
CONTINUOUS
10
8.8454724409448815
20
-3.5127952755905509
11
8.2962598425196852
21
-3.5127952755905509
0
LINE
8
BLACK
6
CONTINUOUS
10
11.8369908267716539
20
-3.508933188976378
11
11.8375235039370068
21
-3.5094658661417322
0
LINE
8
BLACK
6
CONTINUOUS
10
11.8375235039370068
20
-3.5094658661417322
11
11.83759842519685
21
-3.5098425196850394
0
LINE
8
BLACK
6
CONTINUOUS
10
11.83759842519685
20
-3.5098425196850394
11
11.83759842519685
21
-4.0610236220472444
0
LINE
8
BLACK
6
CONTINUOUS
10
11.83759842519685
20
-4.0610236220472444
11
11.8375235039370068
21
-4.0614002755905512
0
LINE
8
BLACK
6
CONTINUOUS
10
11.8375235039370068
20
-4.0614002755905512
11
11.8369908267716539
21
-4.0619329527559058
0
LINE
8
BLACK
6
CONTINUOUS
10
11.8369908267716539
20
-4.0619329527559058
11
11.8366141732283463
21
-4.0620078740157481
0
LINE
8
BLACK
6
CONTINUOUS
10
11.8366141732283463
20
-4.0620078740157481
11
11.2854330708661408
21
-4.0620078740157481
0
LINE
8
BLACK
6
CONTINUOUS
10
11.2854330708661408
20
-4.0620078740157481
11
11.2850564173228349
21
-4.0619329527559058
0
LINE
8
BLACK
6
CONTINUOUS
10
11.2850564173228349
20
-4.0619329527559058
11
11.2845237401574803
21
-4.0614002755905512
0
LINE
8
BLACK
6
CONTINUOUS
10
11.2845237401574803
20
-4.0614002755905512
11
11.2844488188976371
21
-4.0610236220472444
0
LINE
8
BLACK
6
CONTINUOUS
10
11.2844488188976371
20
-4.0610236220472444
11
11.2844488188976371
21
-3.5098425196850394
0
LINE
8
BLACK
6
CONTINUOUS
10
11.2844488188976371
20
-3.5098425196850394
11
11.2845237401574803
21
-3.5094658661417322
0
LINE
8
BLACK
6
CONTINUOUS
10
11.2845237401574803
20
-3.5094658661417322
11
11.2850564173228349
21
-3.508933188976378
0
LINE
8
BLACK
6
CONTINUOUS
10
11.2850564173228349
20
-3.508933188976378
11
11.2854330708661408
21
-3.5088582677165352
0
LINE
8
BLACK
6
CONTINUOUS
10
11.2854330708661408
20
-3.5088582677165352
11
11.8366141732283463
21
-3.5088582677165352
0
LINE
8
BLACK
6
CONTINUOUS
10
11.8366141732283463
20
-3.5088582677165352
11
11.8369908267716539
21
-3.508933188976378
0
LINE
8
BLACK
6
CONTINUOUS
10
11.2864173228346463
20
-3.5108267716535431
11
11.2864173228346463
21
-4.0600393700787398
0
LINE
8
BLACK
6
CONTINUOUS
10
11.2864173228346463
20
-4.0600393700787398
11
11.8356299212598426
21
-4.0600393700787398
0
LINE
8
BLACK
6
CONTINUOUS
10
11.8356299212598426
20
-4.0600393700787398
11
11.8356299212598426
21
-3.5108267716535431
0
LINE
8
BLACK
6
CONTINUOUS
10
11.8356299212598426
20
-3.5108267716535431
11
11.2864173228346463
21
-3.5108267716535431
0
LINE
8
BLACK
6
CONTINUOUS
10
9.6027388582677169
20
-3.5069646850393701
11
9.6032715354330698
21
-3.5074973622047243
0
LINE
8
BLACK
6
CONTINUOUS
10
9.6032715354330698
20
-3.5074973622047243
11
9.603346456692913
21
-3.5078740157480315
0
LINE
8
BLACK
6
CONTINUOUS
10
9.603346456692913
20
-3.5078740157480315
11
9.603346456692913
21
-4.0590551181102361
0
LINE
8
BLACK
6
CONTINUOUS
10
9.603346456692913
20
-4.0590551181102361
11
9.6032715354330698
21
-4.0594317716535429
0
LINE
8
BLACK
6
CONTINUOUS
10
9.6032715354330698
20
-4.0594317716535429
11
9.6027388582677169
21
-4.0599644488188975
0
LINE
8
BLACK
6
CONTINUOUS
10
9.6027388582677169
20
-4.0599644488188975
11
9.6023622047244093
21
-4.0600393700787398
0
LINE
8
BLACK
6
CONTINUOUS
10
9.6023622047244093
20
-4.0600393700787398
11
9.0511811023622037
21
-4.0600393700787398
0
LINE
8
BLACK
6
CONTINUOUS
10
9.0511811023622037
20
-4.0600393700787398
11
9.0508044488188979
21
-4.0599644488188975
0
LINE
8
BLACK
6
CONTINUOUS
10
9.0508044488188979
20
-4.0599644488188975
11
9.0502717716535432
21
-4.0594317716535429
0
LINE
8
BLACK
6
CONTINUOUS
10
9.0502717716535432
20
-4.0594317716535429
11
9.0501968503937
21
-4.0590551181102361
0
LINE
8
BLACK
6
CONTINUOUS
10
9.0501968503937
20
-4.0590551181102361
11
9.0501968503937
21
-3.5078740157480315
0
LINE
8
BLACK
6
CONTINUOUS
10
9.0501968503937
20
-3.5078740157480315
11
9.0502717716535432
21
-3.5074973622047243
0
LINE
8
BLACK
6
CONTINUOUS
10
9.0502717716535432
20
-3.5074973622047243
11
9.0508044488188979
21
-3.5069646850393701
0
LINE
8
BLACK
6
CONTINUOUS
10
9.0508044488188979
20
-3.5069646850393701
11
9.0511811023622037
21
-3.5068897637795273
0
LINE
8
BLACK
6
CONTINUOUS
10
9.0511811023622037
20
-3.5068897637795273
11
9.6023622047244093
21
-3.5068897637795273
0
LINE
8
BLACK
6
CONTINUOUS
10
9.6023622047244093
20
-3.5068897637795273
11
9.6027388582677169
21
-3.5069646850393701
0
LINE
8
BLACK
6
CONTINUOUS
10
9.0521653543307092
20
-3.5088582677165352
11
9.0521653543307092
21
-4.0580708661417324
0
LINE
8
BLACK
6
CONTINUOUS
10
9.0521653543307092
20
-4.0580708661417324
11
9.6013779527559056
21
-4.0580708661417324
0
LINE
8
BLACK
6
CONTINUOUS
10
9.6013779527559056
20
-4.0580708661417324
11
9.6013779527559056
21
-3.5088582677165352
0
LINE
8
BLACK
6
CONTINUOUS
10
9.6013779527559056
20
-3.5088582677165352
11
9.0521653543307092
21
-3.5088582677165352
0
LINE
8
BLACK
6
CONTINUOUS
10
10.3547073622047243
20
-3.5069646850393701
11
10.355240039370079
21
-3.5074973622047243
0
LINE
8
BLACK
6
CONTINUOUS
10
10.355240039370079
20
-3.5074973622047243
11
10.3553149606299204
21
-3.5078740157480315
0
LINE
8
BLACK
6
CONTINUOUS
10
10.3553149606299204
20
-3.5078740157480315
11
10.3553149606299204
21
-4.0590551181102361
0
LINE
8
BLACK
6
CONTINUOUS
10
10.3553149606299204
20
-4.0590551181102361
11
10.355240039370079
21
-4.0594317716535429
0
LINE
8
BLACK
6
CONTINUOUS
10
10.355240039370079
20
-4.0594317716535429
11
10.3547073622047243
21
-4.0599644488188975
0
LINE
8
BLACK
6
CONTINUOUS
10
10.3547073622047243
20
-4.0599644488188975
11
10.3543307086614167
21
-4.0600393700787398
0
LINE
8
BLACK
6
CONTINUOUS
10
10.3543307086614167
20
-4.0600393700787398
11
9.8031496062992129
21
-4.0600393700787398
0
LINE
8
BLACK
6
CONTINUOUS
10
9.8031496062992129
20
-4.0600393700787398
11
9.8027729527559053
21
-4.0599644488188975
0
LINE
8
BLACK
6
CONTINUOUS
10
9.8027729527559053
20
-4.0599644488188975
11
9.8022402755905507
21
-4.0594317716535429
0
LINE
8
BLACK
6
CONTINUOUS
10
9.8022402755905507
20
-4.0594317716535429
11
9.8021653543307092
21
-4.0590551181102361
0
LINE
8
BLACK
6
CONTINUOUS
10
9.8021653543307092
20
-4.0590551181102361
11
9.8021653543307092
21
-3.5078740157480315
0
LINE
8
BLACK
6
CONTINUOUS
10
9.8021653543307092
20
-3.5078740157480315
11
9.8022402755905507
21
-3.5074973622047243
0
LINE
8
BLACK
6
CONTINUOUS
10
9.8022402755905507
20
-3.5074973622047243
11
9.8027729527559053
21
-3.5069646850393701
0
LINE
8
BLACK
6
CONTINUOUS
10
9.8027729527559053
20
-3.5069646850393701
11
9.8031496062992129
21
-3.5068897637795273
0
LINE
8
BLACK
6
CONTINUOUS
10
9.8031496062992129
20
-3.5068897637795273
11
10.3543307086614167
21
-3.5068897637795273
0
LINE
8
BLACK
6
CONTINUOUS
10
10.3543307086614167
20
-3.5068897637795273
11
10.3547073622047243
21
-3.5069646850393701
0
LINE
8
BLACK
6
CONTINUOUS
10
9.8041338582677167
20
-3.5088582677165352
11
9.8041338582677167
21
-4.0580708661417324
0
LINE
8
BLACK
6
CONTINUOUS
10
9.8041338582677167
20
-4.0580708661417324
11
10.353346456692913
21
-4.0580708661417324
0
LINE
8
BLACK
6
CONTINUOUS
10
10.353346456692913
20
-4.0580708661417324
11
10.353346456692913
21
-3.5088582677165352
0
LINE
8
BLACK
6
CONTINUOUS
10
10.353346456692913
20
-3.5088582677165352
11
9.8041338582677167
21
-3.5088582677165352
0
LINE
8
BLACK
6
CONTINUOUS
10
11.1086443700787392
20
-3.5069646850393701
11
11.1091770472440938
21
-3.5074973622047243
0
LINE
8
BLACK
6
CONTINUOUS
10
11.1091770472440938
20
-3.5074973622047243
11
11.109251968503937
21
-3.5078740157480315
0
LINE
8
BLACK
6
CONTINUOUS
10
11.109251968503937
20
-3.5078740157480315
11
11.109251968503937
21
-4.0590551181102361
0
LINE
8
BLACK
6
CONTINUOUS
10
11.109251968503937
20
-4.0590551181102361
11
11.1091770472440938
21
-4.0594317716535429
0
LINE
8
BLACK
6
CONTINUOUS
10
11.1091770472440938
20
-4.0594317716535429
11
11.1086443700787392
21
-4.0599644488188975
0
LINE
8
BLACK
6
CONTINUOUS
10
11.1086443700787392
20
-4.0599644488188975
11
11.1082677165354333
21
-4.0600393700787398
0
LINE
8
BLACK
6
CONTINUOUS
10
11.1082677165354333
20
-4.0600393700787398
11
10.5570866141732278
21
-4.0600393700787398
0
LINE
8
BLACK
6
CONTINUOUS
10
10.5570866141732278
20
-4.0600393700787398
11
10.5567099606299202
21
-4.0599644488188975
0
LINE
8
BLACK
6
CONTINUOUS
10
10.5567099606299202
20
-4.0599644488188975
11
10.5561772834645673
21
-4.0594317716535429
0
LINE
8
BLACK
6
CONTINUOUS
10
10.5561772834645673
20
-4.0594317716535429
11
10.5561023622047241
21
-4.0590551181102361
0
LINE
8
BLACK
6
CONTINUOUS
10
10.5561023622047241
20
-4.0590551181102361
11
10.5561023622047241
21
-3.5078740157480315
0
LINE
8
BLACK
6
CONTINUOUS
10
10.5561023622047241
20
-3.5078740157480315
11
10.5561772834645673
21
-3.5074973622047243
0
LINE
8
BLACK
6
CONTINUOUS
10
10.5561772834645673
20
-3.5074973622047243
11
10.5567099606299202
21
-3.5069646850393701
0
LINE
8
BLACK
6
CONTINUOUS
10
10.5567099606299202
20
-3.5069646850393701
11
10.5570866141732278
21
-3.5068897637795273
0
LINE
8
BLACK
6
CONTINUOUS
10
10.5570866141732278
20
-3.5068897637795273
11
11.1082677165354333
21
-3.5068897637795273
0
LINE
8
BLACK
6
CONTINUOUS
10
11.1082677165354333
20
-3.5068897637795273
11
11.1086443700787392
21
-3.5069646850393701
0
LINE
8
BLACK
6
CONTINUOUS
10
10.5580708661417315
20
-3.5088582677165352
11
10.5580708661417315
21
-4.0580708661417324
0
LINE
8
BLACK
6
CONTINUOUS
10
10.5580708661417315
20
-4.0580708661417324
11
11.1072834645669296
21
-4.0580708661417324
0
LINE
8
BLACK
6
CONTINUOUS
10
11.1072834645669296
20
-4.0580708661417324
11
11.1072834645669296
21
-3.5088582677165352
0
LINE
8
BLACK
6
CONTINUOUS
10
11.1072834645669296
20
-3.5088582677165352
11
10.5580708661417315
21
-3.5088582677165352
0
LINE
8
BLACK
6
CONTINUOUS
10
1.3625813779527558
20
-2.6959410629921261
11
1.3631140551181102
21
-2.6964737401574803
0
LINE
8
BLACK
6
CONTINUOUS
10
1.3631140551181102
20
-2.6964737401574803
11
1.3631889763779528
21
-2.6968503937007875
0
LINE
8
BLACK
6
CONTINUOUS
10
1.3631889763779528
20
-2.6968503937007875
11
1.3631889763779528
21
-3.4448818897637796
0
LINE
8
BLACK
6
CONTINUOUS
10
1.3631889763779528
20
-3.4448818897637796
11
1.3631140551181102
21
-3.4452585433070864
0
LINE
8
BLACK
6
CONTINUOUS
10
1.3631140551181102
20
-3.4452585433070864
11
1.3625813779527558
21
-3.445791220472441
0
LINE
8
BLACK
6
CONTINUOUS
10
1.3625813779527558
20
-3.445791220472441
11
1.3622047244094488
21
-3.4458661417322833
0
LINE
8
BLACK
6
CONTINUOUS
10
1.3622047244094488
20
-3.4458661417322833
11
0.1968503937007874
21
-3.4458661417322833
0
LINE
8
BLACK
6
CONTINUOUS
10
0.1968503937007874
20
-3.4458661417322833
11
0.1964737401574803
21
-3.445791220472441
0
LINE
8
BLACK
6
CONTINUOUS
10
0.1964737401574803
20
-3.445791220472441
11
0.195941062992126
21
-3.4452585433070864
0
LINE
8
BLACK
6
CONTINUOUS
10
0.195941062992126
20
-3.4452585433070864
11
0.1958661417322834
21
-3.4448818897637796
0
LINE
8
BLACK
6
CONTINUOUS
10
0.1958661417322834
20
-3.4448818897637796
11
0.1958661417322834
21
-2.6968503937007875
0
LINE
8
BLACK
6
CONTINUOUS
10
0.1958661417322834
20
-2.6968503937007875
11
0.195941062992126
21
-2.6964737401574803
0
LINE
8
BLACK
6
CONTINUOUS
10
0.195941062992126
20
-2.6964737401574803
11
0.1964737401574803
21
-2.6959410629921261
0
LINE
8
BLACK
6
CONTINUOUS
10
0.1964737401574803
20
-2.6959410629921261
11
0.1968503937007874
21
-2.6958661417322833
0
LINE
8
BLACK
6
CONTINUOUS
10
0.1968503937007874
20
-2.6958661417322833
11
1.3622047244094488
21
-2.6958661417322833
0
LINE
8
BLACK
6
CONTINUOUS
10
1.3622047244094488
20
-2.6958661417322833
11
1.3625813779527558
21
-2.6959410629921261
0
LINE
8
BLACK
6
CONTINUOUS
10
0.1978346456692913
20
-2.6978346456692912
11
0.1978346456692913
21
-3.4438976377952755
0
LINE
8
BLACK
6
CONTINUOUS
10
0.1978346456692913
20
-3.4438976377952755
11
1.3612204724409449
21
-3.4438976377952755
0
LINE
8
BLACK
6
CONTINUOUS
10
1.3612204724409449
20
-3.4438976377952755
11
1.3612204724409449
21
-2.6978346456692912
0
LINE
8
BLACK
6
CONTINUOUS
10
1.3612204724409449
20
-2.6978346456692912
11
0.1978346456692913
21
-2.6978346456692912
0
LINE
8
BLACK
6
CONTINUOUS
10
2.2678142125984251
20
-2.7608053937007875
11
2.2683468897637793
21
-2.7613380708661417
0
LINE
8
BLACK
6
CONTINUOUS
10
2.2683468897637793
20
-2.7613380708661417
11
2.2684218110236221
21
-2.7617147244094489
0
LINE
8
BLACK
6
CONTINUOUS
10
2.2684218110236221
20
-2.7617147244094489
11
2.2684218110236221
21
-3.3128958267716535
0
LINE
8
BLACK
6
CONTINUOUS
10
2.2684218110236221
20
-3.3128958267716535
11
2.2683468897637793
21
-3.3132724803149607
0
LINE
8
BLACK
6
CONTINUOUS
10
2.2683468897637793
20
-3.3132724803149607
11
2.2678142125984251
21
-3.3138051574803149
0
LINE
8
BLACK
6
CONTINUOUS
10
2.2678142125984251
20
-3.3138051574803149
11
2.2674375590551179
21
-3.3138800787401572
0
LINE
8
BLACK
6
CONTINUOUS
10
2.2674375590551179
20
-3.3138800787401572
11
1.7162564566929133
21
-3.3138800787401572
0
LINE
8
BLACK
6
CONTINUOUS
10
1.7162564566929133
20
-3.3138800787401572
11
1.7158798031496063
21
-3.3138051574803149
0
LINE
8
BLACK
6
CONTINUOUS
10
1.7158798031496063
20
-3.3138051574803149
11
1.7153471259842519
21
-3.3132724803149607
0
LINE
8
BLACK
6
CONTINUOUS
10
1.7153471259842519
20
-3.3132724803149607
11
1.7152722047244093
21
-3.3128958267716535
0
LINE
8
BLACK
6
CONTINUOUS
10
1.7152722047244093
20
-3.3128958267716535
11
1.7152722047244093
21
-2.7617147244094489
0
LINE
8
BLACK
6
CONTINUOUS
10
1.7152722047244093
20
-2.7617147244094489
11
1.7153471259842519
21
-2.7613380708661417
0
LINE
8
BLACK
6
CONTINUOUS
10
1.7153471259842519
20
-2.7613380708661417
11
1.7158798031496063
21
-2.7608053937007875
0
LINE
8
BLACK
6
CONTINUOUS
10
1.7158798031496063
20
-2.7608053937007875
11
1.7162564566929133
21
-2.7607304724409447
0
LINE
8
BLACK
6
CONTINUOUS
10
1.7162564566929133
20
-2.7607304724409447
11
2.2674375590551179
21
-2.7607304724409447
0
LINE
8
BLACK
6
CONTINUOUS
10
2.2674375590551179
20
-2.7607304724409447
11
2.2678142125984251
21
-2.7608053937007875
0
LINE
8
BLACK
6
CONTINUOUS
10
1.7172407086614172
20
-2.7626989763779526
11
1.7172407086614172
21
-3.3119115748031493
0
LINE
8
BLACK
6
CONTINUOUS
10
1.7172407086614172
20
-3.3119115748031493
11
2.2664533070866142
21
-3.3119115748031493
0
LINE
8
BLACK
6
CONTINUOUS
10
2.2664533070866142
20
-3.3119115748031493
11
2.2664533070866142
21
-2.7626989763779526
0
LINE
8
BLACK
6
CONTINUOUS
10
2.2664533070866142
20
-2.7626989763779526
11
1.7172407086614172
21
-2.7626989763779526
0
LINE
8
BLACK
6
CONTINUOUS
10
3.7739987007874016
20
-2.758933188976378
11
3.7745313779527558
21
-2.7594658661417322
0
LINE
8
BLACK
6
CONTINUOUS
10
3.7745313779527558
20
-2.7594658661417322
11
3.7746062992125982
21
-2.7598425196850394
0
LINE
8
BLACK
6
CONTINUOUS
10
3.7746062992125982
20
-2.7598425196850394
11
3.7746062992125982
21
-3.311023622047244
0
LINE
8
BLACK
6
CONTINUOUS
10
3.7746062992125982
20
-3.311023622047244
11
3.7745313779527558
21
-3.3114002755905512
0
LINE
8
BLACK
6
CONTINUOUS
10
3.7745313779527558
20
-3.3114002755905512
11
3.7739987007874016
21
-3.3119329527559054
0
LINE
8
BLACK
6
CONTINUOUS
10
3.7739987007874016
20
-3.3119329527559054
11
3.7736220472440944
21
-3.3120078740157481
0
LINE
8
BLACK
6
CONTINUOUS
10
3.7736220472440944
20
-3.3120078740157481
11
3.2224409448818898
21
-3.3120078740157481
0
LINE
8
BLACK
6
CONTINUOUS
10
3.2224409448818898
20
-3.3120078740157481
11
3.2220642913385826
21
-3.3119329527559054
0
LINE
8
BLACK
6
CONTINUOUS
10
3.2220642913385826
20
-3.3119329527559054
11
3.2215316141732284
21
-3.3114002755905512
0
LINE
8
BLACK
6
CONTINUOUS
10
3.2215316141732284
20
-3.3114002755905512
11
3.2214566929133857
21
-3.311023622047244
0
LINE
8
BLACK
6
CONTINUOUS
10
3.2214566929133857
20
-3.311023622047244
11
3.2214566929133857
21
-2.7598425196850394
0
LINE
8
BLACK
6
CONTINUOUS
10
3.2214566929133857
20
-2.7598425196850394
11
3.2215316141732284
21
-2.7594658661417322
0
LINE
8
BLACK
6
CONTINUOUS
10
3.2215316141732284
20
-2.7594658661417322
11
3.2220642913385826
21
-2.758933188976378
0
LINE
8
BLACK
6
CONTINUOUS
10
3.2220642913385826
20
-2.758933188976378
11
3.2224409448818898
21
-2.7588582677165352
0
LINE
8
BLACK
6
CONTINUOUS
10
3.2224409448818898
20
-2.7588582677165352
11
3.7736220472440944
21
-2.7588582677165352
0
LINE
8
BLACK
6
CONTINUOUS
10
3.7736220472440944
20
-2.7588582677165352
11
3.7739987007874016
21
-2.758933188976378
0
LINE
8
BLACK
6
CONTINUOUS
10
3.2234251968503935
20
-2.7608267716535431
11
3.2234251968503935
21
-3.3100393700787403
0
LINE
8
BLACK
6
CONTINUOUS
10
3.2234251968503935
20
-3.3100393700787403
11
3.7726377952755903
21
-3.3100393700787403
0
LINE
8
BLACK
6
CONTINUOUS
10
3.7726377952755903
20
-3.3100393700787403
11
3.7726377952755903
21
-2.7608267716535431
0
LINE
8
BLACK
6
CONTINUOUS
10
3.7726377952755903
20
-2.7608267716535431
11
3.2234251968503935
21
-2.7608267716535431
0
LINE
8
BLACK
6
CONTINUOUS
10
6.7858097244094484
20
-2.758933188976378
11
6.7863424015748031
21
-2.7594658661417322
0
LINE
8
BLACK
6
CONTINUOUS
10
6.7863424015748031
20
-2.7594658661417322
11
6.7864173228346454
21
-2.7598425196850394
0
LINE
8
BLACK
6
CONTINUOUS
10
6.7864173228346454
20
-2.7598425196850394
11
6.7864173228346454
21
-3.311023622047244
0
LINE
8
BLACK
6
CONTINUOUS
10
6.7864173228346454
20
-3.311023622047244
11
6.7863424015748031
21
-3.3114002755905512
0
LINE
8
BLACK
6
CONTINUOUS
10
6.7863424015748031
20
-3.3114002755905512
11
6.7858097244094484
21
-3.3119329527559054
0
LINE
8
BLACK
6
CONTINUOUS
10
6.7858097244094484
20
-3.3119329527559054
11
6.7854330708661417
21
-3.3120078740157481
0
LINE
8
BLACK
6
CONTINUOUS
10
6.7854330708661417
20
-3.3120078740157481
11
6.234251968503937
21
-3.3120078740157481
0
LINE
8
BLACK
6
CONTINUOUS
10
6.234251968503937
20
-3.3120078740157481
11
6.2338753149606294
21
-3.3119329527559054
0
LINE
8
BLACK
6
CONTINUOUS
10
6.2338753149606294
20
-3.3119329527559054
11
6.2333426377952756
21
-3.3114002755905512
0
LINE
8
BLACK
6
CONTINUOUS
10
6.2333426377952756
20
-3.3114002755905512
11
6.2332677165354333
21
-3.311023622047244
0
LINE
8
BLACK
6
CONTINUOUS
10
6.2332677165354333
20
-3.311023622047244
11
6.2332677165354333
21
-2.7598425196850394
0
LINE
8
BLACK
6
CONTINUOUS
10
6.2332677165354333
20
-2.7598425196850394
11
6.2333426377952756
21
-2.7594658661417322
0
LINE
8
BLACK
6
CONTINUOUS
10
6.2333426377952756
20
-2.7594658661417322
11
6.2338753149606294
21
-2.758933188976378
0
LINE
8
BLACK
6
CONTINUOUS
10
6.2338753149606294
20
-2.758933188976378
11
6.234251968503937
21
-2.7588582677165352
0
LINE
8
BLACK
6
CONTINUOUS
10
6.234251968503937
20
-2.7588582677165352
11
6.7854330708661417
21
-2.7588582677165352
0
LINE
8
BLACK
6
CONTINUOUS
10
6.7854330708661417
20
-2.7588582677165352
11
6.7858097244094484
21
-2.758933188976378
0
LINE
8
BLACK
6
CONTINUOUS
10
6.2352362204724407
20
-2.7608267716535431
11
6.2352362204724407
21
-3.3100393700787403
0
LINE
8
BLACK
6
CONTINUOUS
10
6.2352362204724407
20
-3.3100393700787403
11
6.784448818897638
21
-3.3100393700787403
0
LINE
8
BLACK
6
CONTINUOUS
10
6.784448818897638
20
-3.3100393700787403
11
6.784448818897638
21
-2.7608267716535431
0
LINE
8
BLACK
6
CONTINUOUS
10
6.784448818897638
20
-2.7608267716535431
11
6.2352362204724407
21
-2.7608267716535431
0
LINE
8
BLACK
6
CONTINUOUS
10
8.2799042125984244
20
-2.758933188976378
11
8.280436889763779
21
-2.7594658661417322
0
LINE
8
BLACK
6
CONTINUOUS
10
8.280436889763779
20
-2.7594658661417322
11
8.2805118110236222
21
-2.7598425196850394
0
LINE
8
BLACK
6
CONTINUOUS
10
8.2805118110236222
20
-2.7598425196850394
11
8.2805118110236222
21
-3.311023622047244
0
LINE
8
BLACK
6
CONTINUOUS
10
8.2805118110236222
20
-3.311023622047244
11
8.280436889763779
21
-3.3114002755905512
0
LINE
8
BLACK
6
CONTINUOUS
10
8.280436889763779
20
-3.3114002755905512
11
8.2799042125984244
21
-3.3119329527559054
0
LINE
8
BLACK
6
CONTINUOUS
10
8.2799042125984244
20
-3.3119329527559054
11
8.2795275590551185
21
-3.3120078740157481
0
LINE
8
BLACK
6
CONTINUOUS
10
8.2795275590551185
20
-3.3120078740157481
11
7.728346456692913
21
-3.3120078740157481
0
LINE
8
BLACK
6
CONTINUOUS
10
7.728346456692913
20
-3.3120078740157481
11
7.7279698031496062
21
-3.3119329527559054
0
LINE
8
BLACK
6
CONTINUOUS
10
7.7279698031496062
20
-3.3119329527559054
11
7.7274371259842516
21
-3.3114002755905512
0
LINE
8
BLACK
6
CONTINUOUS
10
7.7274371259842516
20
-3.3114002755905512
11
7.7273622047244093
21
-3.311023622047244
0
LINE
8
BLACK
6
CONTINUOUS
10
7.7273622047244093
20
-3.311023622047244
11
7.7273622047244093
21
-2.7598425196850394
0
LINE
8
BLACK
6
CONTINUOUS
10
7.7273622047244093
20
-2.7598425196850394
11
7.7274371259842516
21
-2.7594658661417322
0
LINE
8
BLACK
6
CONTINUOUS
10
7.7274371259842516
20
-2.7594658661417322
11
7.7279698031496062
21
-2.758933188976378
0
LINE
8
BLACK
6
CONTINUOUS
10
7.7279698031496062
20
-2.758933188976378
11
7.728346456692913
21
-2.7588582677165352
0
LINE
8
BLACK
6
CONTINUOUS
10
7.728346456692913
20
-2.7588582677165352
11
8.2795275590551185
21
-2.7588582677165352
0
LINE
8
BLACK
6
CONTINUOUS
10
8.2795275590551185
20
-2.7588582677165352
11
8.2799042125984244
21
-2.758933188976378
0
LINE
8
BLACK
6
CONTINUOUS
10
7.7293307086614176
20
-2.7608267716535431
11
7.7293307086614176
21
-3.3100393700787403
0
LINE
8
BLACK
6
CONTINUOUS
10
7.7293307086614176
20
-3.3100393700787403
11
8.2785433070866148
21
-3.3100393700787403
0
LINE
8
BLACK
6
CONTINUOUS
10
8.2785433070866148
20
-3.3100393700787403
11
8.2785433070866148
21
-2.7608267716535431
0
LINE
8
BLACK
6
CONTINUOUS
10
8.2785433070866148
20
-2.7608267716535431
11
7.7293307086614176
21
-2.7608267716535431
0
LINE
8
BLACK
6
CONTINUOUS
10
3.0218567322834646
20
-2.7581557086614175
11
3.0223894094488188
21
-2.7586883858267717
0
LINE
8
BLACK
6
CONTINUOUS
10
3.0223894094488188
20
-2.7586883858267717
11
3.0224643307086612
21
-2.7590650393700789
0
LINE
8
BLACK
6
CONTINUOUS
10
3.0224643307086612
20
-2.7590650393700789
11
3.0224643307086612
21
-3.3102461417322835
0
LINE
8
BLACK
6
CONTINUOUS
10
3.0224643307086612
20
-3.3102461417322835
11
3.0223894094488188
21
-3.3106227952755907
0
LINE
8
BLACK
6
CONTINUOUS
10
3.0223894094488188
20
-3.3106227952755907
11
3.0218567322834646
21
-3.3111554724409449
0
LINE
8
BLACK
6
CONTINUOUS
10
3.0218567322834646
20
-3.3111554724409449
11
3.0214800787401574
21
-3.3112303937007872
0
LINE
8
BLACK
6
CONTINUOUS
10
3.0214800787401574
20
-3.3112303937007872
11
2.4702989763779528
21
-3.3112303937007872
0
LINE
8
BLACK
6
CONTINUOUS
10
2.4702989763779528
20
-3.3112303937007872
11
2.4699223228346456
21
-3.3111554724409449
0
LINE
8
BLACK
6
CONTINUOUS
10
2.4699223228346456
20
-3.3111554724409449
11
2.4693896456692914
21
-3.3106227952755907
0
LINE
8
BLACK
6
CONTINUOUS
10
2.4693896456692914
20
-3.3106227952755907
11
2.4693147244094487
21
-3.3102461417322835
0
LINE
8
BLACK
6
CONTINUOUS
10
2.4693147244094487
20
-3.3102461417322835
11
2.4693147244094487
21
-2.7590650393700789
0
LINE
8
BLACK
6
CONTINUOUS
10
2.4693147244094487
20
-2.7590650393700789
11
2.4693896456692914
21
-2.7586883858267717
0
LINE
8
BLACK
6
CONTINUOUS
10
2.4693896456692914
20
-2.7586883858267717
11
2.4699223228346456
21
-2.7581557086614175
0
LINE
8
BLACK
6
CONTINUOUS
10
2.4699223228346456
20
-2.7581557086614175
11
2.4702989763779528
21
-2.7580807874015747
0
LINE
8
BLACK
6
CONTINUOUS
10
2.4702989763779528
20
-2.7580807874015747
11
3.0214800787401574
21
-2.7580807874015747
0
LINE
8
BLACK
6
CONTINUOUS
10
3.0214800787401574
20
-2.7580807874015747
11
3.0218567322834646
21
-2.7581557086614175
0
LINE
8
BLACK
6
CONTINUOUS
10
2.4712832283464565
20
-2.7600492913385826
11
2.4712832283464565
21
-3.3092618897637793
0
LINE
8
BLACK
6
CONTINUOUS
10
2.4712832283464565
20
-3.3092618897637793
11
3.0204958267716533
21
-3.3092618897637793
0
LINE
8
BLACK
6
CONTINUOUS
10
3.0204958267716533
20
-3.3092618897637793
11
3.0204958267716533
21
-2.7600492913385826
0
LINE
8
BLACK
6
CONTINUOUS
10
3.0204958267716533
20
-2.7600492913385826
11
2.4712832283464565
21
-2.7600492913385826
0
LINE
8
BLACK
6
CONTINUOUS
10
7.5397467322834641
20
-2.7569646850393701
11
7.5402794094488188
21
-2.7574973622047243
0
LINE
8
BLACK
6
CONTINUOUS
10
7.5402794094488188
20
-2.7574973622047243
11
7.5403543307086611
21
-2.7578740157480315
0
LINE
8
BLACK
6
CONTINUOUS
10
7.5403543307086611
20
-2.7578740157480315
11
7.5403543307086611
21
-3.3090551181102361
0
LINE
8
BLACK
6
CONTINUOUS
10
7.5403543307086611
20
-3.3090551181102361
11
7.5402794094488188
21
-3.3094317716535433
0
LINE
8
BLACK
6
CONTINUOUS
10
7.5402794094488188
20
-3.3094317716535433
11
7.5397467322834641
21
-3.3099644488188975
0
LINE
8
BLACK
6
CONTINUOUS
10
7.5397467322834641
20
-3.3099644488188975
11
7.5393700787401574
21
-3.3100393700787403
0
LINE
8
BLACK
6
CONTINUOUS
10
7.5393700787401574
20
-3.3100393700787403
11
6.9881889763779528
21
-3.3100393700787403
0
LINE
8
BLACK
6
CONTINUOUS
10
6.9881889763779528
20
-3.3100393700787403
11
6.9878123228346452
21
-3.3099644488188975
0
LINE
8
BLACK
6
CONTINUOUS
10
6.9878123228346452
20
-3.3099644488188975
11
6.9872796456692914
21
-3.3094317716535433
0
LINE
8
BLACK
6
CONTINUOUS
10
6.9872796456692914
20
-3.3094317716535433
11
6.9872047244094491
21
-3.3090551181102361
0
LINE
8
BLACK
6
CONTINUOUS
10
6.9872047244094491
20
-3.3090551181102361
11
6.9872047244094491
21
-2.7578740157480315
0
LINE
8
BLACK
6
CONTINUOUS
10
6.9872047244094491
20
-2.7578740157480315
11
6.9872796456692914
21
-2.7574973622047243
0
LINE
8
BLACK
6
CONTINUOUS
10
6.9872796456692914
20
-2.7574973622047243
11
6.9878123228346452
21
-2.7569646850393701
0
LINE
8
BLACK
6
CONTINUOUS
10
6.9878123228346452
20
-2.7569646850393701
11
6.9881889763779528
21
-2.7568897637795273
0
LINE
8
BLACK
6
CONTINUOUS
10
6.9881889763779528
20
-2.7568897637795273
11
7.5393700787401574
21
-2.7568897637795273
0
LINE
8
BLACK
6
CONTINUOUS
10
7.5393700787401574
20
-2.7568897637795273
11
7.5397467322834641
21
-2.7569646850393701
0
LINE
8
BLACK
6
CONTINUOUS
10
6.9891732283464565
20
-2.7588582677165352
11
6.9891732283464565
21
-3.3080708661417324
0
LINE
8
BLACK
6
CONTINUOUS
10
6.9891732283464565
20
-3.3080708661417324
11
7.5383858267716537
21
-3.3080708661417324
0
LINE
8
BLACK
6
CONTINUOUS
10
7.5383858267716537
20
-3.3080708661417324
11
7.5383858267716537
21
-2.7588582677165352
0
LINE
8
BLACK
6
CONTINUOUS
10
7.5383858267716537
20
-2.7588582677165352
11
6.9891732283464565
21
-2.7588582677165352
0
LINE
8
BLACK
6
CONTINUOUS
10
9.0259672047244095
20
-2.7569646850393701
11
9.0264998818897642
21
-2.7574973622047243
0
LINE
8
BLACK
6
CONTINUOUS
10
9.0264998818897642
20
-2.7574973622047243
11
9.0265748031496056
21
-2.7578740157480315
0
LINE
8
BLACK
6
CONTINUOUS
10
9.0265748031496056
20
-2.7578740157480315
11
9.0265748031496056
21
-3.3090551181102361
0
LINE
8
BLACK
6
CONTINUOUS
10
9.0265748031496056
20
-3.3090551181102361
11
9.0264998818897642
21
-3.3094317716535433
0
LINE
8
BLACK
6
CONTINUOUS
10
9.0264998818897642
20
-3.3094317716535433
11
9.0259672047244095
21
-3.3099644488188975
0
LINE
8
BLACK
6
CONTINUOUS
10
9.0259672047244095
20
-3.3099644488188975
11
9.0255905511811019
21
-3.3100393700787403
0
LINE
8
BLACK
6
CONTINUOUS
10
9.0255905511811019
20
-3.3100393700787403
11
8.4744094488188981
21
-3.3100393700787403
0
LINE
8
BLACK
6
CONTINUOUS
10
8.4744094488188981
20
-3.3100393700787403
11
8.4740327952755905
21
-3.3099644488188975
0
LINE
8
BLACK
6
CONTINUOUS
10
8.4740327952755905
20
-3.3099644488188975
11
8.4735001181102358
21
-3.3094317716535433
0
LINE
8
BLACK
6
CONTINUOUS
10
8.4735001181102358
20
-3.3094317716535433
11
8.4734251968503926
21
-3.3090551181102361
0
LINE
8
BLACK
6
CONTINUOUS
10
8.4734251968503926
20
-3.3090551181102361
11
8.4734251968503926
21
-2.7578740157480315
0
LINE
8
BLACK
6
CONTINUOUS
10
8.4734251968503926
20
-2.7578740157480315
11
8.4735001181102358
21
-2.7574973622047243
0
LINE
8
BLACK
6
CONTINUOUS
10
8.4735001181102358
20
-2.7574973622047243
11
8.4740327952755905
21
-2.7569646850393701
0
LINE
8
BLACK
6
CONTINUOUS
10
8.4740327952755905
20
-2.7569646850393701
11
8.4744094488188981
21
-2.7568897637795273
0
LINE
8
BLACK
6
CONTINUOUS
10
8.4744094488188981
20
-2.7568897637795273
11
9.0255905511811019
21
-2.7568897637795273
0
LINE
8
BLACK
6
CONTINUOUS
10
9.0255905511811019
20
-2.7568897637795273
11
9.0259672047244095
21
-2.7569646850393701
0
LINE
8
BLACK
6
CONTINUOUS
10
8.4753937007874018
20
-2.7588582677165352
11
8.4753937007874018
21
-3.3080708661417324
0
LINE
8
BLACK
6
CONTINUOUS
10
8.4753937007874018
20
-3.3080708661417324
11
9.0246062992125982
21
-3.3080708661417324
0
LINE
8
BLACK
6
CONTINUOUS
10
9.0246062992125982
20
-3.3080708661417324
11
9.0246062992125982
21
-2.7588582677165352
0
LINE
8
BLACK
6
CONTINUOUS
10
9.0246062992125982
20
-2.7588582677165352
11
8.4753937007874018
21
-2.7588582677165352
0
LINE
8
BLACK
6
CONTINUOUS
10
10.0594317716535429
20
-2.7569646850393701
11
10.0599644488188975
21
-2.7574973622047243
0
LINE
8
BLACK
6
CONTINUOUS
10
10.0599644488188975
20
-2.7574973622047243
11
10.0600393700787407
21
-2.7578740157480315
0
LINE
8
BLACK
6
CONTINUOUS
10
10.0600393700787407
20
-2.7578740157480315
11
10.0600393700787407
21
-3.3090551181102361
0
LINE
8
BLACK
6
CONTINUOUS
10
10.0600393700787407
20
-3.3090551181102361
11
10.0599644488188975
21
-3.3094317716535433
0
LINE
8
BLACK
6
CONTINUOUS
10
10.0599644488188975
20
-3.3094317716535433
11
10.0594317716535429
21
-3.3099644488188975
0
LINE
8
BLACK
6
CONTINUOUS
10
10.0594317716535429
20
-3.3099644488188975
11
10.0590551181102352
21
-3.3100393700787403
0
LINE
8
BLACK
6
CONTINUOUS
10
10.0590551181102352
20
-3.3100393700787403
11
9.5078740157480315
21
-3.3100393700787403
0
LINE
8
BLACK
6
CONTINUOUS
10
9.5078740157480315
20
-3.3100393700787403
11
9.5074973622047239
21
-3.3099644488188975
0
LINE
8
BLACK
6
CONTINUOUS
10
9.5074973622047239
20
-3.3099644488188975
11
9.5069646850393692
21
-3.3094317716535433
0
LINE
8
BLACK
6
CONTINUOUS
10
9.5069646850393692
20
-3.3094317716535433
11
9.5068897637795278
21
-3.3090551181102361
0
LINE
8
BLACK
6
CONTINUOUS
10
9.5068897637795278
20
-3.3090551181102361
11
9.5068897637795278
21
-2.7578740157480315
0
LINE
8
BLACK
6
CONTINUOUS
10
9.5068897637795278
20
-2.7578740157480315
11
9.5069646850393692
21
-2.7574973622047243
0
LINE
8
BLACK
6
CONTINUOUS
10
9.5069646850393692
20
-2.7574973622047243
11
9.5074973622047239
21
-2.7569646850393701
0
LINE
8
BLACK
6
CONTINUOUS
10
9.5074973622047239
20
-2.7569646850393701
11
9.5078740157480315
21
-2.7568897637795273
0
LINE
8
BLACK
6
CONTINUOUS
10
9.5078740157480315
20
-2.7568897637795273
11
10.0590551181102352
21
-2.7568897637795273
0
LINE
8
BLACK
6
CONTINUOUS
10
10.0590551181102352
20
-2.7568897637795273
11
10.0594317716535429
21
-2.7569646850393701
0
LINE
8
BLACK
6
CONTINUOUS
10
9.5088582677165352
20
-2.7588582677165352
11
9.5088582677165352
21
-3.3080708661417324
0
LINE
8
BLACK
6
CONTINUOUS
10
9.5088582677165352
20
-3.3080708661417324
11
10.0580708661417315
21
-3.3080708661417324
0
LINE
8
BLACK
6
CONTINUOUS
10
10.0580708661417315
20
-3.3080708661417324
11
10.0580708661417315
21
-2.7588582677165352
0
LINE
8
BLACK
6
CONTINUOUS
10
10.0580708661417315
20
-2.7588582677165352
11
9.5088582677165352
21
-2.7588582677165352
0
LINE
8
BLACK
6
CONTINUOUS
10
11.0869908267716539
20
-2.7569646850393701
11
11.0875235039370068
21
-2.7574973622047243
0
LINE
8
BLACK
6
CONTINUOUS
10
11.0875235039370068
20
-2.7574973622047243
11
11.08759842519685
21
-2.7578740157480315
0
LINE
8
BLACK
6
CONTINUOUS
10
11.08759842519685
20
-2.7578740157480315
11
11.08759842519685
21
-3.3090551181102361
0
LINE
8
BLACK
6
CONTINUOUS
10
11.08759842519685
20
-3.3090551181102361
11
11.0875235039370068
21
-3.3094317716535433
0
LINE
8
BLACK
6
CONTINUOUS
10
11.0875235039370068
20
-3.3094317716535433
11
11.0869908267716539
21
-3.3099644488188975
0
LINE
8
BLACK
6
CONTINUOUS
10
11.0869908267716539
20
-3.3099644488188975
11
11.0866141732283463
21
-3.3100393700787403
0
LINE
8
BLACK
6
CONTINUOUS
10
11.0866141732283463
20
-3.3100393700787403
11
10.5354330708661408
21
-3.3100393700787403
0
LINE
8
BLACK
6
CONTINUOUS
10
10.5354330708661408
20
-3.3100393700787403
11
10.5350564173228349
21
-3.3099644488188975
0
LINE
8
BLACK
6
CONTINUOUS
10
10.5350564173228349
20
-3.3099644488188975
11
10.5345237401574803
21
-3.3094317716535433
0
LINE
8
BLACK
6
CONTINUOUS
10
10.5345237401574803
20
-3.3094317716535433
11
10.5344488188976371
21
-3.3090551181102361
0
LINE
8
BLACK
6
CONTINUOUS
10
10.5344488188976371
20
-3.3090551181102361
11
10.5344488188976371
21
-2.7578740157480315
0
LINE
8
BLACK
6
CONTINUOUS
10
10.5344488188976371
20
-2.7578740157480315
11
10.5345237401574803
21
-2.7574973622047243
0
LINE
8
BLACK
6
CONTINUOUS
10
10.5345237401574803
20
-2.7574973622047243
11
10.5350564173228349
21
-2.7569646850393701
0
LINE
8
BLACK
6
CONTINUOUS
10
10.5350564173228349
20
-2.7569646850393701
11
10.5354330708661408
21
-2.7568897637795273
0
LINE
8
BLACK
6
CONTINUOUS
10
10.5354330708661408
20
-2.7568897637795273
11
11.0866141732283463
21
-2.7568897637795273
0
LINE
8
BLACK
6
CONTINUOUS
10
11.0866141732283463
20
-2.7568897637795273
11
11.0869908267716539
21
-2.7569646850393701
0
LINE
8
BLACK
6
CONTINUOUS
10
10.5364173228346463
20
-2.7588582677165352
11
10.5364173228346463
21
-3.3080708661417324
0
LINE
8
BLACK
6
CONTINUOUS
10
10.5364173228346463
20
-3.3080708661417324
11
11.0856299212598426
21
-3.3080708661417324
0
LINE
8
BLACK
6
CONTINUOUS
10
11.0856299212598426
20
-3.3080708661417324
11
11.0856299212598426
21
-2.7588582677165352
0
LINE
8
BLACK
6
CONTINUOUS
10
11.0856299212598426
20
-2.7588582677165352
11
10.5364173228346463
21
-2.7588582677165352
0
LINE
8
BLACK
6
CONTINUOUS
10
11.8350223228346447
20
-2.7569646850393701
11
11.8355549999999994
21
-2.7574973622047243
0
LINE
8
BLACK
6
CONTINUOUS
10
11.8355549999999994
20
-2.7574973622047243
11
11.8356299212598426
21
-2.7578740157480315
0
LINE
8
BLACK
6
CONTINUOUS
10
11.8356299212598426
20
-2.7578740157480315
11
11.8356299212598426
21
-3.3090551181102361
0
LINE
8
BLACK
6
CONTINUOUS
10
11.8356299212598426
20
-3.3090551181102361
11
11.8355549999999994
21
-3.3094317716535433
0
LINE
8
BLACK
6
CONTINUOUS
10
11.8355549999999994
20
-3.3094317716535433
11
11.8350223228346447
21
-3.3099644488188975
0
LINE
8
BLACK
6
CONTINUOUS
10
11.8350223228346447
20
-3.3099644488188975
11
11.8346456692913389
21
-3.3100393700787403
0
LINE
8
BLACK
6
CONTINUOUS
10
11.8346456692913389
20
-3.3100393700787403
11
11.2834645669291334
21
-3.3100393700787403
0
LINE
8
BLACK
6
CONTINUOUS
10
11.2834645669291334
20
-3.3100393700787403
11
11.2830879133858257
21
-3.3099644488188975
0
LINE
8
BLACK
6
CONTINUOUS
10
11.2830879133858257
20
-3.3099644488188975
11
11.2825552362204728
21
-3.3094317716535433
0
LINE
8
BLACK
6
CONTINUOUS
10
11.2825552362204728
20
-3.3094317716535433
11
11.2824803149606296
21
-3.3090551181102361
0
LINE
8
BLACK
6
CONTINUOUS
10
11.2824803149606296
20
-3.3090551181102361
11
11.2824803149606296
21
-2.7578740157480315
0
LINE
8
BLACK
6
CONTINUOUS
10
11.2824803149606296
20
-2.7578740157480315
11
11.2825552362204728
21
-2.7574973622047243
0
LINE
8
BLACK
6
CONTINUOUS
10
11.2825552362204728
20
-2.7574973622047243
11
11.2830879133858257
21
-2.7569646850393701
0
LINE
8
BLACK
6
CONTINUOUS
10
11.2830879133858257
20
-2.7569646850393701
11
11.2834645669291334
21
-2.7568897637795273
0
LINE
8
BLACK
6
CONTINUOUS
10
11.2834645669291334
20
-2.7568897637795273
11
11.8346456692913389
21
-2.7568897637795273
0
LINE
8
BLACK
6
CONTINUOUS
10
11.8346456692913389
20
-2.7568897637795273
11
11.8350223228346447
21
-2.7569646850393701
0
LINE
8
BLACK
6
CONTINUOUS
10
11.2844488188976371
20
-2.7588582677165352
11
11.2844488188976371
21
-3.3080708661417324
0
LINE
8
BLACK
6
CONTINUOUS
10
11.2844488188976371
20
-3.3080708661417324
11
11.8336614173228352
21
-3.3080708661417324
0
LINE
8
BLACK
6
CONTINUOUS
10
11.8336614173228352
20
-3.3080708661417324
11
11.8336614173228352
21
-2.7588582677165352
0
LINE
8
BLACK
6
CONTINUOUS
10
11.8336614173228352
20
-2.7588582677165352
11
11.2844488188976371
21
-2.7588582677165352
0
LINE
8
BLACK
6
CONTINUOUS
10
4.5269368110236217
20
-2.7564512992125985
11
4.5274694881889763
21
-2.7569839763779527
0
LINE
8
BLACK
6
CONTINUOUS
10
4.5274694881889763
20
-2.7569839763779527
11
4.5275444094488186
21
-2.7573606299212599
0
LINE
8
BLACK
6
CONTINUOUS
10
4.5275444094488186
20
-2.7573606299212599
11
4.5275444094488186
21
-3.3085417322834645
0
LINE
8
BLACK
6
CONTINUOUS
10
4.5275444094488186
20
-3.3085417322834645
11
4.5274694881889763
21
-3.3089183858267717
0
LINE
8
BLACK
6
CONTINUOUS
10
4.5274694881889763
20
-3.3089183858267717
11
4.5269368110236217
21
-3.3094510629921259
0
LINE
8
BLACK
6
CONTINUOUS
10
4.5269368110236217
20
-3.3094510629921259
11
4.5265601574803149
21
-3.3095259842519686
0
LINE
8
BLACK
6
CONTINUOUS
10
4.5265601574803149
20
-3.3095259842519686
11
3.9753790551181103
21
-3.3095259842519686
0
LINE
8
BLACK
6
CONTINUOUS
10
3.9753790551181103
20
-3.3095259842519686
11
3.9750024015748031
21
-3.3094510629921259
0
LINE
8
BLACK
6
CONTINUOUS
10
3.9750024015748031
20
-3.3094510629921259
11
3.9744697244094489
21
-3.3089183858267717
0
LINE
8
BLACK
6
CONTINUOUS
10
3.9744697244094489
20
-3.3089183858267717
11
3.9743948031496061
21
-3.3085417322834645
0
LINE
8
BLACK
6
CONTINUOUS
10
3.9743948031496061
20
-3.3085417322834645
11
3.9743948031496061
21
-2.7573606299212599
0
LINE
8
BLACK
6
CONTINUOUS
10
3.9743948031496061
20
-2.7573606299212599
11
3.9744697244094489
21
-2.7569839763779527
0
LINE
8
BLACK
6
CONTINUOUS
10
3.9744697244094489
20
-2.7569839763779527
11
3.9750024015748031
21
-2.7564512992125985
0
LINE
8
BLACK
6
CONTINUOUS
10
3.9750024015748031
20
-2.7564512992125985
11
3.9753790551181103
21
-2.7563763779527557
0
LINE
8
BLACK
6
CONTINUOUS
10
3.9753790551181103
20
-2.7563763779527557
11
4.5265601574803149
21
-2.7563763779527557
0
LINE
8
BLACK
6
CONTINUOUS
10
4.5265601574803149
20
-2.7563763779527557
11
4.5269368110236217
21
-2.7564512992125985
0
LINE
8
BLACK
6
CONTINUOUS
10
3.976363307086614
20
-2.7583448818897636
11
3.976363307086614
21
-3.3075574803149608
0
LINE
8
BLACK
6
CONTINUOUS
10
3.976363307086614
20
-3.3075574803149608
11
4.5255759055118112
21
-3.3075574803149608
0
LINE
8
BLACK
6
CONTINUOUS
10
4.5255759055118112
20
-3.3075574803149608
11
4.5255759055118112
21
-2.7583448818897636
0
LINE
8
BLACK
6
CONTINUOUS
10
4.5255759055118112
20
-2.7583448818897636
11
3.976363307086614
21
-2.7583448818897636
0
LINE
8
BLACK
6
CONTINUOUS
10
5.2759672047244095
20
-2.7549961811023622
11
5.2764998818897633
21
-2.7555288582677164
0
LINE
8
BLACK
6
CONTINUOUS
10
5.2764998818897633
20
-2.7555288582677164
11
5.2765748031496065
21
-2.7559055118110236
0
LINE
8
BLACK
6
CONTINUOUS
10
5.2765748031496065
20
-2.7559055118110236
11
5.2765748031496065
21
-3.3070866141732282
0
LINE
8
BLACK
6
CONTINUOUS
10
5.2765748031496065
20
-3.3070866141732282
11
5.2764998818897633
21
-3.3074632677165354
0
LINE
8
BLACK
6
CONTINUOUS
10
5.2764998818897633
20
-3.3074632677165354
11
5.2759672047244095
21
-3.3079959448818896
0
LINE
8
BLACK
6
CONTINUOUS
10
5.2759672047244095
20
-3.3079959448818896
11
5.2755905511811019
21
-3.3080708661417324
0
LINE
8
BLACK
6
CONTINUOUS
10
5.2755905511811019
20
-3.3080708661417324
11
4.7244094488188972
21
-3.3080708661417324
0
LINE
8
BLACK
6
CONTINUOUS
10
4.7244094488188972
20
-3.3080708661417324
11
4.7240327952755905
21
-3.3079959448818896
0
LINE
8
BLACK
6
CONTINUOUS
10
4.7240327952755905
20
-3.3079959448818896
11
4.7235001181102358
21
-3.3074632677165354
0
LINE
8
BLACK
6
CONTINUOUS
10
4.7235001181102358
20
-3.3074632677165354
11
4.7234251968503935
21
-3.3070866141732282
0
LINE
8
BLACK
6
CONTINUOUS
10
4.7234251968503935
20
-3.3070866141732282
11
4.7234251968503935
21
-2.7559055118110236
0
LINE
8
BLACK
6
CONTINUOUS
10
4.7234251968503935
20
-2.7559055118110236
11
4.7235001181102358
21
-2.7555288582677164
0
LINE
8
BLACK
6
CONTINUOUS
10
4.7235001181102358
20
-2.7555288582677164
11
4.7240327952755905
21
-2.7549961811023622
0
LINE
8
BLACK
6
CONTINUOUS
10
4.7240327952755905
20
-2.7549961811023622
11
4.7244094488188972
21
-2.7549212598425195
0
LINE
8
BLACK
6
CONTINUOUS
10
4.7244094488188972
20
-2.7549212598425195
11
5.2755905511811019
21
-2.7549212598425195
0
LINE
8
BLACK
6
CONTINUOUS
10
5.2755905511811019
20
-2.7549212598425195
11
5.2759672047244095
21
-2.7549961811023622
0
LINE
8
BLACK
6
CONTINUOUS
10
4.7253937007874018
20
-2.7568897637795273
11
4.7253937007874018
21
-3.3061023622047245
0
LINE
8
BLACK
6
CONTINUOUS
10
4.7253937007874018
20
-3.3061023622047245
11
5.2746062992125982
21
-3.3061023622047245
0
LINE
8
BLACK
6
CONTINUOUS
10
5.2746062992125982
20
-3.3061023622047245
11
5.2746062992125982
21
-2.7568897637795273
0
LINE
8
BLACK
6
CONTINUOUS
10
5.2746062992125982
20
-2.7568897637795273
11
4.7253937007874018
21
-2.7568897637795273
0
LINE
8
BLACK
6
CONTINUOUS
10
6.0299042125984252
20
-2.7549961811023622
11
6.030436889763779
21
-2.7555288582677164
0
LINE
8
BLACK
6
CONTINUOUS
10
6.030436889763779
20
-2.7555288582677164
11
6.0305118110236222
21
-2.7559055118110236
0
LINE
8
BLACK
6
CONTINUOUS
10
6.0305118110236222
20
-2.7559055118110236
11
6.0305118110236222
21
-3.3070866141732282
0
LINE
8
BLACK
6
CONTINUOUS
10
6.0305118110236222
20
-3.3070866141732282
11
6.030436889763779
21
-3.3074632677165354
0
LINE
8
BLACK
6
CONTINUOUS
10
6.030436889763779
20
-3.3074632677165354
11
6.0299042125984252
21
-3.3079959448818896
0
LINE
8
BLACK
6
CONTINUOUS
10
6.0299042125984252
20
-3.3079959448818896
11
6.0295275590551176
21
-3.3080708661417324
0
LINE
8
BLACK
6
CONTINUOUS
10
6.0295275590551176
20
-3.3080708661417324
11
5.478346456692913
21
-3.3080708661417324
0
LINE
8
BLACK
6
CONTINUOUS
10
5.478346456692913
20
-3.3080708661417324
11
5.4779698031496062
21
-3.3079959448818896
0
LINE
8
BLACK
6
CONTINUOUS
10
5.4779698031496062
20
-3.3079959448818896
11
5.4774371259842516
21
-3.3074632677165354
0
LINE
8
BLACK
6
CONTINUOUS
10
5.4774371259842516
20
-3.3074632677165354
11
5.4773622047244093
21
-3.3070866141732282
0
LINE
8
BLACK
6
CONTINUOUS
10
5.4773622047244093
20
-3.3070866141732282
11
5.4773622047244093
21
-2.7559055118110236
0
LINE
8
BLACK
6
CONTINUOUS
10
5.4773622047244093
20
-2.7559055118110236
11
5.4774371259842516
21
-2.7555288582677164
0
LINE
8
BLACK
6
CONTINUOUS
10
5.4774371259842516
20
-2.7555288582677164
11
5.4779698031496062
21
-2.7549961811023622
0
LINE
8
BLACK
6
CONTINUOUS
10
5.4779698031496062
20
-2.7549961811023622
11
5.478346456692913
21
-2.7549212598425195
0
LINE
8
BLACK
6
CONTINUOUS
10
5.478346456692913
20
-2.7549212598425195
11
6.0295275590551176
21
-2.7549212598425195
0
LINE
8
BLACK
6
CONTINUOUS
10
6.0295275590551176
20
-2.7549212598425195
11
6.0299042125984252
21
-2.7549961811023622
0
LINE
8
BLACK
6
CONTINUOUS
10
5.4793307086614176
20
-2.7568897637795273
11
5.4793307086614176
21
-3.3061023622047245
0
LINE
8
BLACK
6
CONTINUOUS
10
5.4793307086614176
20
-3.3061023622047245
11
6.0285433070866139
21
-3.3061023622047245
0
LINE
8
BLACK
6
CONTINUOUS
10
6.0285433070866139
20
-3.3061023622047245
11
6.0285433070866139
21
-2.7568897637795273
0
LINE
8
BLACK
6
CONTINUOUS
10
6.0285433070866139
20
-2.7568897637795273
11
5.4793307086614176
21
-2.7568897637795273
0
LINE
8
BLACK
6
CONTINUOUS
10
11.1893530314960632
20
-1.9046024803149606
11
11.1898857086614179
21
-1.9051351574803148
0
LINE
8
BLACK
6
CONTINUOUS
10
11.1898857086614179
20
-1.9051351574803148
11
11.1899606299212593
21
-1.905511811023622
0
LINE
8
BLACK
6
CONTINUOUS
10
11.1899606299212593
20
-1.905511811023622
11
11.1899606299212593
21
-2.6909448818897639
0
LINE
8
BLACK
6
CONTINUOUS
10
11.1899606299212593
20
-2.6909448818897639
11
11.1898857086614179
21
-2.6913215354330706
0
LINE
8
BLACK
6
CONTINUOUS
10
11.1898857086614179
20
-2.6913215354330706
11
11.1893530314960632
21
-2.6918542125984253
0
LINE
8
BLACK
6
CONTINUOUS
10
11.1893530314960632
20
-2.6918542125984253
11
11.1889763779527556
21
-2.6919291338582676
0
LINE
8
BLACK
6
CONTINUOUS
10
11.1889763779527556
20
-2.6919291338582676
11
9.5059055118110241
21
-2.6919291338582676
0
LINE
8
BLACK
6
CONTINUOUS
10
9.5059055118110241
20
-2.6919291338582676
11
9.5055288582677164
21
-2.6918542125984253
0
LINE
8
BLACK
6
CONTINUOUS
10
9.5055288582677164
20
-2.6918542125984253
11
9.5049961811023618
21
-2.6913215354330706
0
LINE
8
BLACK
6
CONTINUOUS
10
9.5049961811023618
20
-2.6913215354330706
11
9.5049212598425203
21
-2.6909448818897639
0
LINE
8
BLACK
6
CONTINUOUS
10
9.5049212598425203
20
-2.6909448818897639
11
9.5049212598425203
21
-1.905511811023622
0
LINE
8
BLACK
6
CONTINUOUS
10
9.5049212598425203
20
-1.905511811023622
11
9.5049961811023618
21
-1.9051351574803148
0
LINE
8
BLACK
6
CONTINUOUS
10
9.5049961811023618
20
-1.9051351574803148
11
9.5055288582677164
21
-1.9046024803149606
0
LINE
8
BLACK
6
CONTINUOUS
10
9.5055288582677164
20
-1.9046024803149606
11
9.5059055118110241
21
-1.9045275590551181
0
LINE
8
BLACK
6
CONTINUOUS
10
9.5059055118110241
20
-1.9045275590551181
11
11.1889763779527556
21
-1.9045275590551181
0
LINE
8
BLACK
6
CONTINUOUS
10
11.1889763779527556
20
-1.9045275590551181
11
11.1893530314960632
21
-1.9046024803149606
0
LINE
8
BLACK
6
CONTINUOUS
10
9.5068897637795278
20
-1.9064960629921259
11
9.5068897637795278
21
-2.6899606299212597
0
LINE
8
BLACK
6
CONTINUOUS
10
9.5068897637795278
20
-2.6899606299212597
11
11.1879921259842519
21
-2.6899606299212597
0
LINE
8
BLACK
6
CONTINUOUS
10
11.1879921259842519
20
-2.6899606299212597
11
11.1879921259842519
21
-1.9064960629921259
0
LINE
8
BLACK
6
CONTINUOUS
10
11.1879921259842519
20
-1.9064960629921259
11
9.5068897637795278
21
-1.9064960629921259
0
LINE
8
BLACK
6
CONTINUOUS
10
0.8625813779527559
20
-2.0069646850393701
11
0.8631140551181102
21
-2.0074973622047243
0
LINE
8
BLACK
6
CONTINUOUS
10
0.8631140551181102
20
-2.0074973622047243
11
0.8631889763779528
21
-2.0078740157480315
0
LINE
8
BLACK
6
CONTINUOUS
10
0.8631889763779528
20
-2.0078740157480315
11
0.8631889763779528
21
-2.5590551181102361
0
LINE
8
BLACK
6
CONTINUOUS
10
0.8631889763779528
20
-2.5590551181102361
11
0.8631140551181102
21
-2.5594317716535433
0
LINE
8
BLACK
6
CONTINUOUS
10
0.8631140551181102
20
-2.5594317716535433
11
0.8625813779527559
21
-2.5599644488188975
0
LINE
8
BLACK
6
CONTINUOUS
10
0.8625813779527559
20
-2.5599644488188975
11
0.8622047244094488
21
-2.5600393700787403
0
LINE
8
BLACK
6
CONTINUOUS
10
0.8622047244094488
20
-2.5600393700787403
11
0.3110236220472441
21
-2.5600393700787403
0
LINE
8
BLACK
6
CONTINUOUS
10
0.3110236220472441
20
-2.5600393700787403
11
0.310646968503937
21
-2.5599644488188975
0
LINE
8
BLACK
6
CONTINUOUS
10
0.310646968503937
20
-2.5599644488188975
11
0.3101142913385826
21
-2.5594317716535433
0
LINE
8
BLACK
6
CONTINUOUS
10
0.3101142913385826
20
-2.5594317716535433
11
0.3100393700787402
21
-2.5590551181102361
0
LINE
8
BLACK
6
CONTINUOUS
10
0.3100393700787402
20
-2.5590551181102361
11
0.3100393700787402
21
-2.0078740157480315
0
LINE
8
BLACK
6
CONTINUOUS
10
0.3100393700787402
20
-2.0078740157480315
11
0.3101142913385826
21
-2.0074973622047243
0
LINE
8
BLACK
6
CONTINUOUS
10
0.3101142913385826
20
-2.0074973622047243
11
0.310646968503937
21
-2.0069646850393701
0
LINE
8
BLACK
6
CONTINUOUS
10
0.310646968503937
20
-2.0069646850393701
11
0.3110236220472441
21
-2.0068897637795273
0
LINE
8
BLACK
6
CONTINUOUS
10
0.3110236220472441
20
-2.0068897637795273
11
0.8622047244094488
21
-2.0068897637795273
0
LINE
8
BLACK
6
CONTINUOUS
10
0.8622047244094488
20
-2.0068897637795273
11
0.8625813779527559
21
-2.0069646850393701
0
LINE
8
BLACK
6
CONTINUOUS
10
0.312007874015748
20
-2.0088582677165352
11
0.312007874015748
21
-2.5580708661417324
0
LINE
8
BLACK
6
CONTINUOUS
10
0.312007874015748
20
-2.5580708661417324
11
0.8612204724409449
21
-2.5580708661417324
0
LINE
8
BLACK
6
CONTINUOUS
10
0.8612204724409449
20
-2.5580708661417324
11
0.8612204724409449
21
-2.0088582677165352
0
LINE
8
BLACK
6
CONTINUOUS
10
0.8612204724409449
20
-2.0088582677165352
11
0.312007874015748
21
-2.0088582677165352
0
LINE
8
BLACK
6
CONTINUOUS
10
5.6499829527559058
20
-2.0069646850393701
11
5.6505156299212596
21
-2.0074973622047243
0
LINE
8
BLACK
6
CONTINUOUS
10
5.6505156299212596
20
-2.0074973622047243
11
5.6505905511811019
21
-2.0078740157480315
0
LINE
8
BLACK
6
CONTINUOUS
10
5.6505905511811019
20
-2.0078740157480315
11
5.6505905511811019
21
-2.5590551181102361
0
LINE
8
BLACK
6
CONTINUOUS
10
5.6505905511811019
20
-2.5590551181102361
11
5.6505156299212596
21
-2.5594317716535433
0
LINE
8
BLACK
6
CONTINUOUS
10
5.6505156299212596
20
-2.5594317716535433
11
5.6499829527559058
21
-2.5599644488188975
0
LINE
8
BLACK
6
CONTINUOUS
10
5.6499829527559058
20
-2.5599644488188975
11
5.6496062992125982
21
-2.5600393700787403
0
LINE
8
BLACK
6
CONTINUOUS
10
5.6496062992125982
20
-2.5600393700787403
11
5.0984251968503935
21
-2.5600393700787403
0
LINE
8
BLACK
6
CONTINUOUS
10
5.0984251968503935
20
-2.5600393700787403
11
5.0980485433070868
21
-2.5599644488188975
0
LINE
8
BLACK
6
CONTINUOUS
10
5.0980485433070868
20
-2.5599644488188975
11
5.0975158661417321
21
-2.5594317716535433
0
LINE
8
BLACK
6
CONTINUOUS
10
5.0975158661417321
20
-2.5594317716535433
11
5.0974409448818898
21
-2.5590551181102361
0
LINE
8
BLACK
6
CONTINUOUS
10
5.0974409448818898
20
-2.5590551181102361
11
5.0974409448818898
21
-2.0078740157480315
0
LINE
8
BLACK
6
CONTINUOUS
10
5.0974409448818898
20
-2.0078740157480315
11
5.0975158661417321
21
-2.0074973622047243
0
LINE
8
BLACK
6
CONTINUOUS
10
5.0975158661417321
20
-2.0074973622047243
11
5.0980485433070868
21
-2.0069646850393701
0
LINE
8
BLACK
6
CONTINUOUS
10
5.0980485433070868
20
-2.0069646850393701
11
5.0984251968503935
21
-2.0068897637795273
0
LINE
8
BLACK
6
CONTINUOUS
10
5.0984251968503935
20
-2.0068897637795273
11
5.6496062992125982
21
-2.0068897637795273
0
LINE
8
BLACK
6
CONTINUOUS
10
5.6496062992125982
20
-2.0068897637795273
11
5.6499829527559058
21
-2.0069646850393701
0
LINE
8
BLACK
6
CONTINUOUS
10
5.0994094488188972
20
-2.0088582677165352
11
5.0994094488188972
21
-2.5580708661417324
0
LINE
8
BLACK
6
CONTINUOUS
10
5.0994094488188972
20
-2.5580708661417324
11
5.6486220472440944
21
-2.5580708661417324
0
LINE
8
BLACK
6
CONTINUOUS
10
5.6486220472440944
20
-2.5580708661417324
11
5.6486220472440944
21
-2.0088582677165352
0
LINE
8
BLACK
6
CONTINUOUS
10
5.6486220472440944
20
-2.0088582677165352
11
5.0994094488188972
21
-2.0088582677165352
0
LINE
8
BLACK
6
CONTINUOUS
10
6.4019514566929132
20
-2.0069646850393701
11
6.4024841338582679
21
-2.0074973622047243
0
LINE
8
BLACK
6
CONTINUOUS
10
6.4024841338582679
20
-2.0074973622047243
11
6.4025590551181102
21
-2.0078740157480315
0
LINE
8
BLACK
6
CONTINUOUS
10
6.4025590551181102
20
-2.0078740157480315
11
6.4025590551181102
21
-2.5590551181102361
0
LINE
8
BLACK
6
CONTINUOUS
10
6.4025590551181102
20
-2.5590551181102361
11
6.4024841338582679
21
-2.5594317716535433
0
LINE
8
BLACK
6
CONTINUOUS
10
6.4024841338582679
20
-2.5594317716535433
11
6.4019514566929132
21
-2.5599644488188975
0
LINE
8
BLACK
6
CONTINUOUS
10
6.4019514566929132
20
-2.5599644488188975
11
6.4015748031496065
21
-2.5600393700787403
0
LINE
8
BLACK
6
CONTINUOUS
10
6.4015748031496065
20
-2.5600393700787403
11
5.8503937007874018
21
-2.5600393700787403
0
LINE
8
BLACK
6
CONTINUOUS
10
5.8503937007874018
20
-2.5600393700787403
11
5.8500170472440942
21
-2.5599644488188975
0
LINE
8
BLACK
6
CONTINUOUS
10
5.8500170472440942
20
-2.5599644488188975
11
5.8494843700787404
21
-2.5594317716535433
0
LINE
8
BLACK
6
CONTINUOUS
10
5.8494843700787404
20
-2.5594317716535433
11
5.8494094488188972
21
-2.5590551181102361
0
LINE
8
BLACK
6
CONTINUOUS
10
5.8494094488188972
20
-2.5590551181102361
11
5.8494094488188972
21
-2.0078740157480315
0
LINE
8
BLACK
6
CONTINUOUS
10
5.8494094488188972
20
-2.0078740157480315
11
5.8494843700787404
21
-2.0074973622047243
0
LINE
8
BLACK
6
CONTINUOUS
10
5.8494843700787404
20
-2.0074973622047243
11
5.8500170472440942
21
-2.0069646850393701
0
LINE
8
BLACK
6
CONTINUOUS
10
5.8500170472440942
20
-2.0069646850393701
11
5.8503937007874018
21
-2.0068897637795273
0
LINE
8
BLACK
6
CONTINUOUS
10
5.8503937007874018
20
-2.0068897637795273
11
6.4015748031496065
21
-2.0068897637795273
0
LINE
8
BLACK
6
CONTINUOUS
10
6.4015748031496065
20
-2.0068897637795273
11
6.4019514566929132
21
-2.0069646850393701
0
LINE
8
BLACK
6
CONTINUOUS
10
5.8513779527559056
20
-2.0088582677165352
11
5.8513779527559056
21
-2.5580708661417324
0
LINE
8
BLACK
6
CONTINUOUS
10
5.8513779527559056
20
-2.5580708661417324
11
6.4005905511811019
21
-2.5580708661417324
0
LINE
8
BLACK
6
CONTINUOUS
10
6.4005905511811019
20
-2.5580708661417324
11
6.4005905511811019
21
-2.0088582677165352
0
LINE
8
BLACK
6
CONTINUOUS
10
6.4005905511811019
20
-2.0088582677165352
11
5.8513779527559056
21
-2.0088582677165352
0
LINE
8
BLACK
6
CONTINUOUS
10
7.1539199606299215
20
-2.0069646850393701
11
7.1544526377952753
21
-2.0074973622047243
0
LINE
8
BLACK
6
CONTINUOUS
10
7.1544526377952753
20
-2.0074973622047243
11
7.1545275590551176
21
-2.0078740157480315
0
LINE
8
BLACK
6
CONTINUOUS
10
7.1545275590551176
20
-2.0078740157480315
11
7.1545275590551176
21
-2.5590551181102361
0
LINE
8
BLACK
6
CONTINUOUS
10
7.1545275590551176
20
-2.5590551181102361
11
7.1544526377952753
21
-2.5594317716535433
0
LINE
8
BLACK
6
CONTINUOUS
10
7.1544526377952753
20
-2.5594317716535433
11
7.1539199606299215
21
-2.5599644488188975
0
LINE
8
BLACK
6
CONTINUOUS
10
7.1539199606299215
20
-2.5599644488188975
11
7.1535433070866139
21
-2.5600393700787403
0
LINE
8
BLACK
6
CONTINUOUS
10
7.1535433070866139
20
-2.5600393700787403
11
6.6023622047244093
21
-2.5600393700787403
0
LINE
8
BLACK
6
CONTINUOUS
10
6.6023622047244093
20
-2.5600393700787403
11
6.6019855511811025
21
-2.5599644488188975
0
LINE
8
BLACK
6
CONTINUOUS
10
6.6019855511811025
20
-2.5599644488188975
11
6.6014528740157479
21
-2.5594317716535433
0
LINE
8
BLACK
6
CONTINUOUS
10
6.6014528740157479
20
-2.5594317716535433
11
6.6013779527559056
21
-2.5590551181102361
0
LINE
8
BLACK
6
CONTINUOUS
10
6.6013779527559056
20
-2.5590551181102361
11
6.6013779527559056
21
-2.0078740157480315
0
LINE
8
BLACK
6
CONTINUOUS
10
6.6013779527559056
20
-2.0078740157480315
11
6.6014528740157479
21
-2.0074973622047243
0
LINE
8
BLACK
6
CONTINUOUS
10
6.6014528740157479
20
-2.0074973622047243
11
6.6019855511811025
21
-2.0069646850393701
0
LINE
8
BLACK
6
CONTINUOUS
10
6.6019855511811025
20
-2.0069646850393701
11
6.6023622047244093
21
-2.0068897637795273
0
LINE
8
BLACK
6
CONTINUOUS
10
6.6023622047244093
20
-2.0068897637795273
11
7.1535433070866139
21
-2.0068897637795273
0
LINE
8
BLACK
6
CONTINUOUS
10
7.1535433070866139
20
-2.0068897637795273
11
7.1539199606299215
21
-2.0069646850393701
0
LINE
8
BLACK
6
CONTINUOUS
10
6.603346456692913
20
-2.0088582677165352
11
6.603346456692913
21
-2.5580708661417324
0
LINE
8
BLACK
6
CONTINUOUS
10
6.603346456692913
20
-2.5580708661417324
11
7.1525590551181102
21
-2.5580708661417324
0
LINE
8
BLACK
6
CONTINUOUS
10
7.1525590551181102
20
-2.5580708661417324
11
7.1525590551181102
21
-2.0088582677165352
0
LINE
8
BLACK
6
CONTINUOUS
10
7.1525590551181102
20
-2.0088582677165352
11
6.603346456692913
21
-2.0088582677165352
0
LINE
8
BLACK
6
CONTINUOUS
10
9.4098254724409447
20
-2.0069646850393701
11
9.4103581496062993
21
-2.0074973622047243
0
LINE
8
BLACK
6
CONTINUOUS
10
9.4103581496062993
20
-2.0074973622047243
11
9.4104330708661408
21
-2.0078740157480315
0
LINE
8
BLACK
6
CONTINUOUS
10
9.4104330708661408
20
-2.0078740157480315
11
9.4104330708661408
21
-2.5590551181102361
0
LINE
8
BLACK
6
CONTINUOUS
10
9.4104330708661408
20
-2.5590551181102361
11
9.4103581496062993
21
-2.5594317716535433
0
LINE
8
BLACK
6
CONTINUOUS
10
9.4103581496062993
20
-2.5594317716535433
11
9.4098254724409447
21
-2.5599644488188975
0
LINE
8
BLACK
6
CONTINUOUS
10
9.4098254724409447
20
-2.5599644488188975
11
9.4094488188976371
21
-2.5600393700787403
0
LINE
8
BLACK
6
CONTINUOUS
10
9.4094488188976371
20
-2.5600393700787403
11
8.8582677165354333
21
-2.5600393700787403
0
LINE
8
BLACK
6
CONTINUOUS
10
8.8582677165354333
20
-2.5600393700787403
11
8.8578910629921257
21
-2.5599644488188975
0
LINE
8
BLACK
6
CONTINUOUS
10
8.8578910629921257
20
-2.5599644488188975
11
8.857358385826771
21
-2.5594317716535433
0
LINE
8
BLACK
6
CONTINUOUS
10
8.857358385826771
20
-2.5594317716535433
11
8.8572834645669296
21
-2.5590551181102361
0
LINE
8
BLACK
6
CONTINUOUS
10
8.8572834645669296
20
-2.5590551181102361
11
8.8572834645669296
21
-2.0078740157480315
0
LINE
8
BLACK
6
CONTINUOUS
10
8.8572834645669296
20
-2.0078740157480315
11
8.857358385826771
21
-2.0074973622047243
0
LINE
8
BLACK
6
CONTINUOUS
10
8.857358385826771
20
-2.0074973622047243
11
8.8578910629921257
21
-2.0069646850393701
0
LINE
8
BLACK
6
CONTINUOUS
10
8.8578910629921257
20
-2.0069646850393701
11
8.8582677165354333
21
-2.0068897637795273
0
LINE
8
BLACK
6
CONTINUOUS
10
8.8582677165354333
20
-2.0068897637795273
11
9.4094488188976371
21
-2.0068897637795273
0
LINE
8
BLACK
6
CONTINUOUS
10
9.4094488188976371
20
-2.0068897637795273
11
9.4098254724409447
21
-2.0069646850393701
0
LINE
8
BLACK
6
CONTINUOUS
10
8.859251968503937
20
-2.0088582677165352
11
8.859251968503937
21
-2.5580708661417324
0
LINE
8
BLACK
6
CONTINUOUS
10
8.859251968503937
20
-2.5580708661417324
11
9.4084645669291334
21
-2.5580708661417324
0
LINE
8
BLACK
6
CONTINUOUS
10
9.4084645669291334
20
-2.5580708661417324
11
9.4084645669291334
21
-2.0088582677165352
0
LINE
8
BLACK
6
CONTINUOUS
10
9.4084645669291334
20
-2.0088582677165352
11
8.859251968503937
21
-2.0088582677165352
0
LINE
8
BLACK
6
CONTINUOUS
10
8.6536109448818888
20
-2.0059082283464567
11
8.6541436220472434
21
-2.0064409055118109
0
LINE
8
BLACK
6
CONTINUOUS
10
8.6541436220472434
20
-2.0064409055118109
11
8.6542185433070866
21
-2.006817559055118
0
LINE
8
BLACK
6
CONTINUOUS
10
8.6542185433070866
20
-2.006817559055118
11
8.6542185433070866
21
-2.5579986614173227
0
LINE
8
BLACK
6
CONTINUOUS
10
8.6542185433070866
20
-2.5579986614173227
11
8.6541436220472434
21
-2.5583753149606299
0
LINE
8
BLACK
6
CONTINUOUS
10
8.6541436220472434
20
-2.5583753149606299
11
8.6536109448818888
21
-2.5589079921259841
0
LINE
8
BLACK
6
CONTINUOUS
10
8.6536109448818888
20
-2.5589079921259841
11
8.6532342913385829
21
-2.5589829133858268
0
LINE
8
BLACK
6
CONTINUOUS
10
8.6532342913385829
20
-2.5589829133858268
11
8.1020531889763774
21
-2.5589829133858268
0
LINE
8
BLACK
6
CONTINUOUS
10
8.1020531889763774
20
-2.5589829133858268
11
8.1016765354330715
21
-2.5589079921259841
0
LINE
8
BLACK
6
CONTINUOUS
10
8.1016765354330715
20
-2.5589079921259841
11
8.1011438582677169
21
-2.5583753149606299
0
LINE
8
BLACK
6
CONTINUOUS
10
8.1011438582677169
20
-2.5583753149606299
11
8.1010689370078737
21
-2.5579986614173227
0
LINE
8
BLACK
6
CONTINUOUS
10
8.1010689370078737
20
-2.5579986614173227
11
8.1010689370078737
21
-2.006817559055118
0
LINE
8
BLACK
6
CONTINUOUS
10
8.1010689370078737
20
-2.006817559055118
11
8.1011438582677169
21
-2.0064409055118109
0
LINE
8
BLACK
6
CONTINUOUS
10
8.1011438582677169
20
-2.0064409055118109
11
8.1016765354330715
21
-2.0059082283464567
0
LINE
8
BLACK
6
CONTINUOUS
10
8.1016765354330715
20
-2.0059082283464567
11
8.1020531889763774
21
-2.0058333070866143
0
LINE
8
BLACK
6
CONTINUOUS
10
8.1020531889763774
20
-2.0058333070866143
11
8.6532342913385829
21
-2.0058333070866143
0
LINE
8
BLACK
6
CONTINUOUS
10
8.6532342913385829
20
-2.0058333070866143
11
8.6536109448818888
21
-2.0059082283464567
0
LINE
8
BLACK
6
CONTINUOUS
10
8.1030374409448811
20
-2.0078018110236222
11
8.1030374409448811
21
-2.557014409448819
0
LINE
8
BLACK
6
CONTINUOUS
10
8.1030374409448811
20
-2.557014409448819
11
8.6522500393700792
21
-2.557014409448819
0
LINE
8
BLACK
6
CONTINUOUS
10
8.6522500393700792
20
-2.557014409448819
11
8.6522500393700792
21
-2.0078018110236222
0
LINE
8
BLACK
6
CONTINUOUS
10
8.6522500393700792
20
-2.0078018110236222
11
8.1030374409448811
21
-2.0078018110236222
0
LINE
8
BLACK
6
CONTINUOUS
10
11.8369908267716539
20
-2.0049961811023622
11
11.8375235039370068
21
-2.0055288582677164
0
LINE
8
BLACK
6
CONTINUOUS
10
11.8375235039370068
20
-2.0055288582677164
11
11.83759842519685
21
-2.0059055118110236
0
LINE
8
BLACK
6
CONTINUOUS
10
11.83759842519685
20
-2.0059055118110236
11
11.83759842519685
21
-2.5570866141732282
0
LINE
8
BLACK
6
CONTINUOUS
10
11.83759842519685
20
-2.5570866141732282
11
11.8375235039370068
21
-2.5574632677165354
0
LINE
8
BLACK
6
CONTINUOUS
10
11.8375235039370068
20
-2.5574632677165354
11
11.8369908267716539
21
-2.5579959448818896
0
LINE
8
BLACK
6
CONTINUOUS
10
11.8369908267716539
20
-2.5579959448818896
11
11.8366141732283463
21
-2.5580708661417324
0
LINE
8
BLACK
6
CONTINUOUS
10
11.8366141732283463
20
-2.5580708661417324
11
11.2854330708661408
21
-2.5580708661417324
0
LINE
8
BLACK
6
CONTINUOUS
10
11.2854330708661408
20
-2.5580708661417324
11
11.2850564173228349
21
-2.5579959448818896
0
LINE
8
BLACK
6
CONTINUOUS
10
11.2850564173228349
20
-2.5579959448818896
11
11.2845237401574803
21
-2.5574632677165354
0
LINE
8
BLACK
6
CONTINUOUS
10
11.2845237401574803
20
-2.5574632677165354
11
11.2844488188976371
21
-2.5570866141732282
0
LINE
8
BLACK
6
CONTINUOUS
10
11.2844488188976371
20
-2.5570866141732282
11
11.2844488188976371
21
-2.0059055118110236
0
LINE
8
BLACK
6
CONTINUOUS
10
11.2844488188976371
20
-2.0059055118110236
11
11.2845237401574803
21
-2.0055288582677164
0
LINE
8
BLACK
6
CONTINUOUS
10
11.2845237401574803
20
-2.0055288582677164
11
11.2850564173228349
21
-2.0049961811023622
0
LINE
8
BLACK
6
CONTINUOUS
10
11.2850564173228349
20
-2.0049961811023622
11
11.2854330708661408
21
-2.0049212598425195
0
LINE
8
BLACK
6
CONTINUOUS
10
11.2854330708661408
20
-2.0049212598425195
11
11.8366141732283463
21
-2.0049212598425195
0
LINE
8
BLACK
6
CONTINUOUS
10
11.8366141732283463
20
-2.0049212598425195
11
11.8369908267716539
21
-2.0049961811023622
0
LINE
8
BLACK
6
CONTINUOUS
10
11.2864173228346463
20
-2.0068897637795273
11
11.2864173228346463
21
-2.5561023622047245
0
LINE
8
BLACK
6
CONTINUOUS
10
11.2864173228346463
20
-2.5561023622047245
11
11.8356299212598426
21
-2.5561023622047245
0
LINE
8
BLACK
6
CONTINUOUS
10
11.8356299212598426
20
-2.5561023622047245
11
11.8356299212598426
21
-2.0068897637795273
0
LINE
8
BLACK
6
CONTINUOUS
10
11.8356299212598426
20
-2.0068897637795273
11
11.2864173228346463
21
-2.0068897637795273
0
LINE
8
BLACK
6
CONTINUOUS
10
1.894077440944882
20
-2.0030276771653543
11
1.8946101181102362
21
-2.0035603543307086
0
LINE
8
BLACK
6
CONTINUOUS
10
1.8946101181102362
20
-2.0035603543307086
11
1.8946850393700787
21
-2.0039370078740157
0
LINE
8
BLACK
6
CONTINUOUS
10
1.8946850393700787
20
-2.0039370078740157
11
1.8946850393700787
21
-2.5551181102362204
0
LINE
8
BLACK
6
CONTINUOUS
10
1.8946850393700787
20
-2.5551181102362204
11
1.8946101181102362
21
-2.5554947637795276
0
LINE
8
BLACK
6
CONTINUOUS
10
1.8946101181102362
20
-2.5554947637795276
11
1.894077440944882
21
-2.5560274409448818
0
LINE
8
BLACK
6
CONTINUOUS
10
1.894077440944882
20
-2.5560274409448818
11
1.8937007874015748
21
-2.5561023622047245
0
LINE
8
BLACK
6
CONTINUOUS
10
1.8937007874015748
20
-2.5561023622047245
11
1.3425196850393701
21
-2.5561023622047245
0
LINE
8
BLACK
6
CONTINUOUS
10
1.3425196850393701
20
-2.5561023622047245
11
1.342143031496063
21
-2.5560274409448818
0
LINE
8
BLACK
6
CONTINUOUS
10
1.342143031496063
20
-2.5560274409448818
11
1.3416103543307085
21
-2.5554947637795276
0
LINE
8
BLACK
6
CONTINUOUS
10
1.3416103543307085
20
-2.5554947637795276
11
1.3415354330708662
21
-2.5551181102362204
0
LINE
8
BLACK
6
CONTINUOUS
10
1.3415354330708662
20
-2.5551181102362204
11
1.3415354330708662
21
-2.0039370078740157
0
LINE
8
BLACK
6
CONTINUOUS
10
1.3415354330708662
20
-2.0039370078740157
11
1.3416103543307085
21
-2.0035603543307086
0
LINE
8
BLACK
6
CONTINUOUS
10
1.3416103543307085
20
-2.0035603543307086
11
1.342143031496063
21
-2.0030276771653543
0
LINE
8
BLACK
6
CONTINUOUS
10
1.342143031496063
20
-2.0030276771653543
11
1.3425196850393701
21
-2.0029527559055116
0
LINE
8
BLACK
6
CONTINUOUS
10
1.3425196850393701
20
-2.0029527559055116
11
1.8937007874015748
21
-2.0029527559055116
0
LINE
8
BLACK
6
CONTINUOUS
10
1.8937007874015748
20
-2.0029527559055116
11
1.894077440944882
21
-2.0030276771653543
0
LINE
8
BLACK
6
CONTINUOUS
10
1.3435039370078741
20
-2.0049212598425195
11
1.3435039370078741
21
-2.5541338582677167
0
LINE
8
BLACK
6
CONTINUOUS
10
1.3435039370078741
20
-2.5541338582677167
11
1.8927165354330708
21
-2.5541338582677167
0
LINE
8
BLACK
6
CONTINUOUS
10
1.8927165354330708
20
-2.5541338582677167
11
1.8927165354330708
21
-2.0049212598425195
0
LINE
8
BLACK
6
CONTINUOUS
10
1.8927165354330708
20
-2.0049212598425195
11
1.3435039370078741
21
-2.0049212598425195
0
LINE
8
BLACK
6
CONTINUOUS
10
2.6460459448818896
20
-2.0030276771653543
11
2.6465786220472443
21
-2.0035603543307086
0
LINE
8
BLACK
6
CONTINUOUS
10
2.6465786220472443
20
-2.0035603543307086
11
2.6466535433070866
21
-2.0039370078740157
0
LINE
8
BLACK
6
CONTINUOUS
10
2.6466535433070866
20
-2.0039370078740157
11
2.6466535433070866
21
-2.5551181102362204
0
LINE
8
BLACK
6
CONTINUOUS
10
2.6466535433070866
20
-2.5551181102362204
11
2.6465786220472443
21
-2.5554947637795276
0
LINE
8
BLACK
6
CONTINUOUS
10
2.6465786220472443
20
-2.5554947637795276
11
2.6460459448818896
21
-2.5560274409448818
0
LINE
8
BLACK
6
CONTINUOUS
10
2.6460459448818896
20
-2.5560274409448818
11
2.6456692913385824
21
-2.5561023622047245
0
LINE
8
BLACK
6
CONTINUOUS
10
2.6456692913385824
20
-2.5561023622047245
11
2.0944881889763778
21
-2.5561023622047245
0
LINE
8
BLACK
6
CONTINUOUS
10
2.0944881889763778
20
-2.5561023622047245
11
2.0941115354330706
21
-2.5560274409448818
0
LINE
8
BLACK
6
CONTINUOUS
10
2.0941115354330706
20
-2.5560274409448818
11
2.0935788582677164
21
-2.5554947637795276
0
LINE
8
BLACK
6
CONTINUOUS
10
2.0935788582677164
20
-2.5554947637795276
11
2.0935039370078741
21
-2.5551181102362204
0
LINE
8
BLACK
6
CONTINUOUS
10
2.0935039370078741
20
-2.5551181102362204
11
2.0935039370078741
21
-2.0039370078740157
0
LINE
8
BLACK
6
CONTINUOUS
10
2.0935039370078741
20
-2.0039370078740157
11
2.0935788582677164
21
-2.0035603543307086
0
LINE
8
BLACK
6
CONTINUOUS
10
2.0935788582677164
20
-2.0035603543307086
11
2.0941115354330706
21
-2.0030276771653543
0
LINE
8
BLACK
6
CONTINUOUS
10
2.0941115354330706
20
-2.0030276771653543
11
2.0944881889763778
21
-2.0029527559055116
0
LINE
8
BLACK
6
CONTINUOUS
10
2.0944881889763778
20
-2.0029527559055116
11
2.6456692913385824
21
-2.0029527559055116
0
LINE
8
BLACK
6
CONTINUOUS
10
2.6456692913385824
20
-2.0029527559055116
11
2.6460459448818896
21
-2.0030276771653543
0
LINE
8
BLACK
6
CONTINUOUS
10
2.0954724409448819
20
-2.0049212598425195
11
2.0954724409448819
21
-2.5541338582677167
0
LINE
8
BLACK
6
CONTINUOUS
10
2.0954724409448819
20
-2.5541338582677167
11
2.6446850393700787
21
-2.5541338582677167
0
LINE
8
BLACK
6
CONTINUOUS
10
2.6446850393700787
20
-2.5541338582677167
11
2.6446850393700787
21
-2.0049212598425195
0
LINE
8
BLACK
6
CONTINUOUS
10
2.6446850393700787
20
-2.0049212598425195
11
2.0954724409448819
21
-2.0049212598425195
0
LINE
8
BLACK
6
CONTINUOUS
10
3.3940774409448817
20
-2.0030276771653543
11
3.3946101181102359
21
-2.0035603543307086
0
LINE
8
BLACK
6
CONTINUOUS
10
3.3946101181102359
20
-2.0035603543307086
11
3.3946850393700787
21
-2.0039370078740157
0
LINE
8
BLACK
6
CONTINUOUS
10
3.3946850393700787
20
-2.0039370078740157
11
3.3946850393700787
21
-2.5551181102362204
0
LINE
8
BLACK
6
CONTINUOUS
10
3.3946850393700787
20
-2.5551181102362204
11
3.3946101181102359
21
-2.5554947637795276
0
LINE
8
BLACK
6
CONTINUOUS
10
3.3946101181102359
20
-2.5554947637795276
11
3.3940774409448817
21
-2.5560274409448818
0
LINE
8
BLACK
6
CONTINUOUS
10
3.3940774409448817
20
-2.5560274409448818
11
3.3937007874015745
21
-2.5561023622047245
0
LINE
8
BLACK
6
CONTINUOUS
10
3.3937007874015745
20
-2.5561023622047245
11
2.8425196850393699
21
-2.5561023622047245
0
LINE
8
BLACK
6
CONTINUOUS
10
2.8425196850393699
20
-2.5561023622047245
11
2.8421430314960627
21
-2.5560274409448818
0
LINE
8
BLACK
6
CONTINUOUS
10
2.8421430314960627
20
-2.5560274409448818
11
2.8416103543307085
21
-2.5554947637795276
0
LINE
8
BLACK
6
CONTINUOUS
10
2.8416103543307085
20
-2.5554947637795276
11
2.8415354330708662
21
-2.5551181102362204
0
LINE
8
BLACK
6
CONTINUOUS
10
2.8415354330708662
20
-2.5551181102362204
11
2.8415354330708662
21
-2.0039370078740157
0
LINE
8
BLACK
6
CONTINUOUS
10
2.8415354330708662
20
-2.0039370078740157
11
2.8416103543307085
21
-2.0035603543307086
0
LINE
8
BLACK
6
CONTINUOUS
10
2.8416103543307085
20
-2.0035603543307086
11
2.8421430314960627
21
-2.0030276771653543
0
LINE
8
BLACK
6
CONTINUOUS
10
2.8421430314960627
20
-2.0030276771653543
11
2.8425196850393699
21
-2.0029527559055116
0
LINE
8
BLACK
6
CONTINUOUS
10
2.8425196850393699
20
-2.0029527559055116
11
3.3937007874015745
21
-2.0029527559055116
0
LINE
8
BLACK
6
CONTINUOUS
10
3.3937007874015745
20
-2.0029527559055116
11
3.3940774409448817
21
-2.0030276771653543
0
LINE
8
BLACK
6
CONTINUOUS
10
2.8435039370078741
20
-2.0049212598425195
11
2.8435039370078741
21
-2.5541338582677167
0
LINE
8
BLACK
6
CONTINUOUS
10
2.8435039370078741
20
-2.5541338582677167
11
3.3927165354330708
21
-2.5541338582677167
0
LINE
8
BLACK
6
CONTINUOUS
10
3.3927165354330708
20
-2.5541338582677167
11
3.3927165354330708
21
-2.0049212598425195
0
LINE
8
BLACK
6
CONTINUOUS
10
3.3927165354330708
20
-2.0049212598425195
11
2.8435039370078741
21
-2.0049212598425195
0
LINE
8
BLACK
6
CONTINUOUS
10
4.1499829527559058
20
-2.0030276771653543
11
4.1505156299212596
21
-2.0035603543307086
0
LINE
8
BLACK
6
CONTINUOUS
10
4.1505156299212596
20
-2.0035603543307086
11
4.1505905511811019
21
-2.0039370078740157
0
LINE
8
BLACK
6
CONTINUOUS
10
4.1505905511811019
20
-2.0039370078740157
11
4.1505905511811019
21
-2.5551181102362204
0
LINE
8
BLACK
6
CONTINUOUS
10
4.1505905511811019
20
-2.5551181102362204
11
4.1505156299212596
21
-2.5554947637795276
0
LINE
8
BLACK
6
CONTINUOUS
10
4.1505156299212596
20
-2.5554947637795276
11
4.1499829527559058
21
-2.5560274409448818
0
LINE
8
BLACK
6
CONTINUOUS
10
4.1499829527559058
20
-2.5560274409448818
11
4.1496062992125982
21
-2.5561023622047245
0
LINE
8
BLACK
6
CONTINUOUS
10
4.1496062992125982
20
-2.5561023622047245
11
3.5984251968503935
21
-2.5561023622047245
0
LINE
8
BLACK
6
CONTINUOUS
10
3.5984251968503935
20
-2.5561023622047245
11
3.5980485433070863
21
-2.5560274409448818
0
LINE
8
BLACK
6
CONTINUOUS
10
3.5980485433070863
20
-2.5560274409448818
11
3.5975158661417321
21
-2.5554947637795276
0
LINE
8
BLACK
6
CONTINUOUS
10
3.5975158661417321
20
-2.5554947637795276
11
3.5974409448818898
21
-2.5551181102362204
0
LINE
8
BLACK
6
CONTINUOUS
10
3.5974409448818898
20
-2.5551181102362204
11
3.5974409448818898
21
-2.0039370078740157
0
LINE
8
BLACK
6
CONTINUOUS
10
3.5974409448818898
20
-2.0039370078740157
11
3.5975158661417321
21
-2.0035603543307086
0
LINE
8
BLACK
6
CONTINUOUS
10
3.5975158661417321
20
-2.0035603543307086
11
3.5980485433070863
21
-2.0030276771653543
0
LINE
8
BLACK
6
CONTINUOUS
10
3.5980485433070863
20
-2.0030276771653543
11
3.5984251968503935
21
-2.0029527559055116
0
LINE
8
BLACK
6
CONTINUOUS
10
3.5984251968503935
20
-2.0029527559055116
11
4.1496062992125982
21
-2.0029527559055116
0
LINE
8
BLACK
6
CONTINUOUS
10
4.1496062992125982
20
-2.0029527559055116
11
4.1499829527559058
21
-2.0030276771653543
0
LINE
8
BLACK
6
CONTINUOUS
10
3.5994094488188977
20
-2.0049212598425195
11
3.5994094488188977
21
-2.5541338582677167
0
LINE
8
BLACK
6
CONTINUOUS
10
3.5994094488188977
20
-2.5541338582677167
11
4.1486220472440944
21
-2.5541338582677167
0
LINE
8
BLACK
6
CONTINUOUS
10
4.1486220472440944
20
-2.5541338582677167
11
4.1486220472440944
21
-2.0049212598425195
0
LINE
8
BLACK
6
CONTINUOUS
10
4.1486220472440944
20
-2.0049212598425195
11
3.5994094488188977
21
-2.0049212598425195
0
LINE
8
BLACK
6
CONTINUOUS
10
4.8980144488188975
20
-2.0030276771653543
11
4.8985471259842521
21
-2.0035603543307086
0
LINE
8
BLACK
6
CONTINUOUS
10
4.8985471259842521
20
-2.0035603543307086
11
4.8986220472440944
21
-2.0039370078740157
0
LINE
8
BLACK
6
CONTINUOUS
10
4.8986220472440944
20
-2.0039370078740157
11
4.8986220472440944
21
-2.5551181102362204
0
LINE
8
BLACK
6
CONTINUOUS
10
4.8986220472440944
20
-2.5551181102362204
11
4.8985471259842521
21
-2.5554947637795276
0
LINE
8
BLACK
6
CONTINUOUS
10
4.8985471259842521
20
-2.5554947637795276
11
4.8980144488188975
21
-2.5560274409448818
0
LINE
8
BLACK
6
CONTINUOUS
10
4.8980144488188975
20
-2.5560274409448818
11
4.8976377952755907
21
-2.5561023622047245
0
LINE
8
BLACK
6
CONTINUOUS
10
4.8976377952755907
20
-2.5561023622047245
11
4.3464566929133861
21
-2.5561023622047245
0
LINE
8
BLACK
6
CONTINUOUS
10
4.3464566929133861
20
-2.5561023622047245
11
4.3460800393700785
21
-2.5560274409448818
0
LINE
8
BLACK
6
CONTINUOUS
10
4.3460800393700785
20
-2.5560274409448818
11
4.3455473622047247
21
-2.5554947637795276
0
LINE
8
BLACK
6
CONTINUOUS
10
4.3455473622047247
20
-2.5554947637795276
11
4.3454724409448815
21
-2.5551181102362204
0
LINE
8
BLACK
6
CONTINUOUS
10
4.3454724409448815
20
-2.5551181102362204
11
4.3454724409448815
21
-2.0039370078740157
0
LINE
8
BLACK
6
CONTINUOUS
10
4.3454724409448815
20
-2.0039370078740157
11
4.3455473622047247
21
-2.0035603543307086
0
LINE
8
BLACK
6
CONTINUOUS
10
4.3455473622047247
20
-2.0035603543307086
11
4.3460800393700785
21
-2.0030276771653543
0
LINE
8
BLACK
6
CONTINUOUS
10
4.3460800393700785
20
-2.0030276771653543
11
4.3464566929133861
21
-2.0029527559055116
0
LINE
8
BLACK
6
CONTINUOUS
10
4.3464566929133861
20
-2.0029527559055116
11
4.8976377952755907
21
-2.0029527559055116
0
LINE
8
BLACK
6
CONTINUOUS
10
4.8976377952755907
20
-2.0029527559055116
11
4.8980144488188975
21
-2.0030276771653543
0
LINE
8
BLACK
6
CONTINUOUS
10
4.3474409448818898
20
-2.0049212598425195
11
4.3474409448818898
21
-2.5541338582677167
0
LINE
8
BLACK
6
CONTINUOUS
10
4.3474409448818898
20
-2.5541338582677167
11
4.8966535433070861
21
-2.5541338582677167
0
LINE
8
BLACK
6
CONTINUOUS
10
4.8966535433070861
20
-2.5541338582677167
11
4.8966535433070861
21
-2.0049212598425195
0
LINE
8
BLACK
6
CONTINUOUS
10
4.8966535433070861
20
-2.0049212598425195
11
4.3474409448818898
21
-2.0049212598425195
0
LINE
8
BLACK
6
CONTINUOUS
10
7.9019514566929132
20
-2.0030276771653543
11
7.9024841338582679
21
-2.0035603543307086
0
LINE
8
BLACK
6
CONTINUOUS
10
7.9024841338582679
20
-2.0035603543307086
11
7.9025590551181102
21
-2.0039370078740157
0
LINE
8
BLACK
6
CONTINUOUS
10
7.9025590551181102
20
-2.0039370078740157
11
7.9025590551181102
21
-2.5551181102362204
0
LINE
8
BLACK
6
CONTINUOUS
10
7.9025590551181102
20
-2.5551181102362204
11
7.9024841338582679
21
-2.5554947637795276
0
LINE
8
BLACK
6
CONTINUOUS
10
7.9024841338582679
20
-2.5554947637795276
11
7.9019514566929132
21
-2.5560274409448818
0
LINE
8
BLACK
6
CONTINUOUS
10
7.9019514566929132
20
-2.5560274409448818
11
7.9015748031496065
21
-2.5561023622047245
0
LINE
8
BLACK
6
CONTINUOUS
10
7.9015748031496065
20
-2.5561023622047245
11
7.3503937007874018
21
-2.5561023622047245
0
LINE
8
BLACK
6
CONTINUOUS
10
7.3503937007874018
20
-2.5561023622047245
11
7.3500170472440942
21
-2.5560274409448818
0
LINE
8
BLACK
6
CONTINUOUS
10
7.3500170472440942
20
-2.5560274409448818
11
7.3494843700787396
21
-2.5554947637795276
0
LINE
8
BLACK
6
CONTINUOUS
10
7.3494843700787396
20
-2.5554947637795276
11
7.3494094488188972
21
-2.5551181102362204
0
LINE
8
BLACK
6
CONTINUOUS
10
7.3494094488188972
20
-2.5551181102362204
11
7.3494094488188972
21
-2.0039370078740157
0
LINE
8
BLACK
6
CONTINUOUS
10
7.3494094488188972
20
-2.0039370078740157
11
7.3494843700787396
21
-2.0035603543307086
0
LINE
8
BLACK
6
CONTINUOUS
10
7.3494843700787396
20
-2.0035603543307086
11
7.3500170472440942
21
-2.0030276771653543
0
LINE
8
BLACK
6
CONTINUOUS
10
7.3500170472440942
20
-2.0030276771653543
11
7.3503937007874018
21
-2.0029527559055116
0
LINE
8
BLACK
6
CONTINUOUS
10
7.3503937007874018
20
-2.0029527559055116
11
7.9015748031496065
21
-2.0029527559055116
0
LINE
8
BLACK
6
CONTINUOUS
10
7.9015748031496065
20
-2.0029527559055116
11
7.9019514566929132
21
-2.0030276771653543
0
LINE
8
BLACK
6
CONTINUOUS
10
7.3513779527559056
20
-2.0049212598425195
11
7.3513779527559056
21
-2.5541338582677167
0
LINE
8
BLACK
6
CONTINUOUS
10
7.3513779527559056
20
-2.5541338582677167
11
7.9005905511811019
21
-2.5541338582677167
0
LINE
8
BLACK
6
CONTINUOUS
10
7.9005905511811019
20
-2.5541338582677167
11
7.9005905511811019
21
-2.0049212598425195
0
LINE
8
BLACK
6
CONTINUOUS
10
7.9005905511811019
20
-2.0049212598425195
11
7.3513779527559056
21
-2.0049212598425195
0
LINE
8
BLACK
6
CONTINUOUS
10
6.9649435826771651
20
-1.258933188976378
11
6.9654762598425197
21
-1.2594658661417322
0
LINE
8
BLACK
6
CONTINUOUS
10
6.9654762598425197
20
-1.2594658661417322
11
6.965551181102362
21
-1.2598425196850394
0
LINE
8
BLACK
6
CONTINUOUS
10
6.965551181102362
20
-1.2598425196850394
11
6.965551181102362
21
-1.811023622047244
0
LINE
8
BLACK
6
CONTINUOUS
10
6.965551181102362
20
-1.811023622047244
11
6.9654762598425197
21
-1.8114002755905512
0
LINE
8
BLACK
6
CONTINUOUS
10
6.9654762598425197
20
-1.8114002755905512
11
6.9649435826771651
21
-1.8119329527559054
0
LINE
8
BLACK
6
CONTINUOUS
10
6.9649435826771651
20
-1.8119329527559054
11
6.9645669291338583
21
-1.8120078740157479
0
LINE
8
BLACK
6
CONTINUOUS
10
6.9645669291338583
20
-1.8120078740157479
11
6.4133858267716537
21
-1.8120078740157479
0
LINE
8
BLACK
6
CONTINUOUS
10
6.4133858267716537
20
-1.8120078740157479
11
6.4130091732283461
21
-1.8119329527559054
0
LINE
8
BLACK
6
CONTINUOUS
10
6.4130091732283461
20
-1.8119329527559054
11
6.4124764960629923
21
-1.8114002755905512
0
LINE
8
BLACK
6
CONTINUOUS
10
6.4124764960629923
20
-1.8114002755905512
11
6.4124015748031491
21
-1.811023622047244
0
LINE
8
BLACK
6
CONTINUOUS
10
6.4124015748031491
20
-1.811023622047244
11
6.4124015748031491
21
-1.2598425196850394
0
LINE
8
BLACK
6
CONTINUOUS
10
6.4124015748031491
20
-1.2598425196850394
11
6.4124764960629923
21
-1.2594658661417322
0
LINE
8
BLACK
6
CONTINUOUS
10
6.4124764960629923
20
-1.2594658661417322
11
6.4130091732283461
21
-1.258933188976378
0
LINE
8
BLACK
6
CONTINUOUS
10
6.4130091732283461
20
-1.258933188976378
11
6.4133858267716537
21
-1.2588582677165354
0
LINE
8
BLACK
6
CONTINUOUS
10
6.4133858267716537
20
-1.2588582677165354
11
6.9645669291338583
21
-1.2588582677165354
0
LINE
8
BLACK
6
CONTINUOUS
10
6.9645669291338583
20
-1.2588582677165354
11
6.9649435826771651
21
-1.258933188976378
0
LINE
8
BLACK
6
CONTINUOUS
10
6.4143700787401574
20
-1.2608267716535433
11
6.4143700787401574
21
-1.8100393700787401
0
LINE
8
BLACK
6
CONTINUOUS
10
6.4143700787401574
20
-1.8100393700787401
11
6.9635826771653537
21
-1.8100393700787401
0
LINE
8
BLACK
6
CONTINUOUS
10
6.9635826771653537
20
-1.8100393700787401
11
6.9635826771653537
21
-1.2608267716535433
0
LINE
8
BLACK
6
CONTINUOUS
10
6.9635826771653537
20
-1.2608267716535433
11
6.4143700787401574
21
-1.2608267716535433
0
LINE
8
BLACK
6
CONTINUOUS
10
7.7149435826771651
20
-1.258933188976378
11
7.7154762598425197
21
-1.2594658661417322
0
LINE
8
BLACK
6
CONTINUOUS
10
7.7154762598425197
20
-1.2594658661417322
11
7.715551181102362
21
-1.2598425196850394
0
LINE
8
BLACK
6
CONTINUOUS
10
7.715551181102362
20
-1.2598425196850394
11
7.715551181102362
21
-1.811023622047244
0
LINE
8
BLACK
6
CONTINUOUS
10
7.715551181102362
20
-1.811023622047244
11
7.7154762598425197
21
-1.8114002755905512
0
LINE
8
BLACK
6
CONTINUOUS
10
7.7154762598425197
20
-1.8114002755905512
11
7.7149435826771651
21
-1.8119329527559054
0
LINE
8
BLACK
6
CONTINUOUS
10
7.7149435826771651
20
-1.8119329527559054
11
7.7145669291338583
21
-1.8120078740157479
0
LINE
8
BLACK
6
CONTINUOUS
10
7.7145669291338583
20
-1.8120078740157479
11
7.1633858267716537
21
-1.8120078740157479
0
LINE
8
BLACK
6
CONTINUOUS
10
7.1633858267716537
20
-1.8120078740157479
11
7.1630091732283461
21
-1.8119329527559054
0
LINE
8
BLACK
6
CONTINUOUS
10
7.1630091732283461
20
-1.8119329527559054
11
7.1624764960629923
21
-1.8114002755905512
0
LINE
8
BLACK
6
CONTINUOUS
10
7.1624764960629923
20
-1.8114002755905512
11
7.1624015748031491
21
-1.811023622047244
0
LINE
8
BLACK
6
CONTINUOUS
10
7.1624015748031491
20
-1.811023622047244
11
7.1624015748031491
21
-1.2598425196850394
0
LINE
8
BLACK
6
CONTINUOUS
10
7.1624015748031491
20
-1.2598425196850394
11
7.1624764960629923
21
-1.2594658661417322
0
LINE
8
BLACK
6
CONTINUOUS
10
7.1624764960629923
20
-1.2594658661417322
11
7.1630091732283461
21
-1.258933188976378
0
LINE
8
BLACK
6
CONTINUOUS
10
7.1630091732283461
20
-1.258933188976378
11
7.1633858267716537
21
-1.2588582677165354
0
LINE
8
BLACK
6
CONTINUOUS
10
7.1633858267716537
20
-1.2588582677165354
11
7.7145669291338583
21
-1.2588582677165354
0
LINE
8
BLACK
6
CONTINUOUS
10
7.7145669291338583
20
-1.2588582677165354
11
7.7149435826771651
21
-1.258933188976378
0
LINE
8
BLACK
6
CONTINUOUS
10
7.1643700787401574
20
-1.2608267716535433
11
7.1643700787401574
21
-1.8100393700787401
0
LINE
8
BLACK
6
CONTINUOUS
10
7.1643700787401574
20
-1.8100393700787401
11
7.7135826771653537
21
-1.8100393700787401
0
LINE
8
BLACK
6
CONTINUOUS
10
7.7135826771653537
20
-1.8100393700787401
11
7.7135826771653537
21
-1.2608267716535433
0
LINE
8
BLACK
6
CONTINUOUS
10
7.7135826771653537
20
-1.2608267716535433
11
7.1643700787401574
21
-1.2608267716535433
0
LINE
8
BLACK
6
CONTINUOUS
10
11.8389593307086614
20
-1.258933188976378
11
11.839492007874016
21
-1.2594658661417322
0
LINE
8
BLACK
6
CONTINUOUS
10
11.839492007874016
20
-1.2594658661417322
11
11.8395669291338574
21
-1.2598425196850394
0
LINE
8
BLACK
6
CONTINUOUS
10
11.8395669291338574
20
-1.2598425196850394
11
11.8395669291338574
21
-1.811023622047244
0
LINE
8
BLACK
6
CONTINUOUS
10
11.8395669291338574
20
-1.811023622047244
11
11.839492007874016
21
-1.8114002755905512
0
LINE
8
BLACK
6
CONTINUOUS
10
11.839492007874016
20
-1.8114002755905512
11
11.8389593307086614
21
-1.8119329527559054
0
LINE
8
BLACK
6
CONTINUOUS
10
11.8389593307086614
20
-1.8119329527559054
11
11.8385826771653537
21
-1.8120078740157479
0
LINE
8
BLACK
6
CONTINUOUS
10
11.8385826771653537
20
-1.8120078740157479
11
11.28740157480315
21
-1.8120078740157479
0
LINE
8
BLACK
6
CONTINUOUS
10
11.28740157480315
20
-1.8120078740157479
11
11.2870249212598424
21
-1.8119329527559054
0
LINE
8
BLACK
6
CONTINUOUS
10
11.2870249212598424
20
-1.8119329527559054
11
11.2864922440944877
21
-1.8114002755905512
0
LINE
8
BLACK
6
CONTINUOUS
10
11.2864922440944877
20
-1.8114002755905512
11
11.2864173228346463
21
-1.811023622047244
0
LINE
8
BLACK
6
CONTINUOUS
10
11.2864173228346463
20
-1.811023622047244
11
11.2864173228346463
21
-1.2598425196850394
0
LINE
8
BLACK
6
CONTINUOUS
10
11.2864173228346463
20
-1.2598425196850394
11
11.2864922440944877
21
-1.2594658661417322
0
LINE
8
BLACK
6
CONTINUOUS
10
11.2864922440944877
20
-1.2594658661417322
11
11.2870249212598424
21
-1.258933188976378
0
LINE
8
BLACK
6
CONTINUOUS
10
11.2870249212598424
20
-1.258933188976378
11
11.28740157480315
21
-1.2588582677165354
0
LINE
8
BLACK
6
CONTINUOUS
10
11.28740157480315
20
-1.2588582677165354
11
11.8385826771653537
21
-1.2588582677165354
0
LINE
8
BLACK
6
CONTINUOUS
10
11.8385826771653537
20
-1.2588582677165354
11
11.8389593307086614
21
-1.258933188976378
0
LINE
8
BLACK
6
CONTINUOUS
10
11.2883858267716537
20
-1.2608267716535433
11
11.2883858267716537
21
-1.8100393700787401
0
LINE
8
BLACK
6
CONTINUOUS
10
11.2883858267716537
20
-1.8100393700787401
11
11.83759842519685
21
-1.8100393700787401
0
LINE
8
BLACK
6
CONTINUOUS
10
11.83759842519685
20
-1.8100393700787401
11
11.83759842519685
21
-1.2608267716535433
0
LINE
8
BLACK
6
CONTINUOUS
10
11.83759842519685
20
-1.2608267716535433
11
11.2883858267716537
21
-1.2608267716535433
0
LINE
8
BLACK
6
CONTINUOUS
10
1.7129750787401574
20
-1.2549961811023622
11
1.7135077559055119
21
-1.2555288582677164
0
LINE
8
BLACK
6
CONTINUOUS
10
1.7135077559055119
20
-1.2555288582677164
11
1.7135826771653544
21
-1.2559055118110236
0
LINE
8
BLACK
6
CONTINUOUS
10
1.7135826771653544
20
-1.2559055118110236
11
1.7135826771653544
21
-1.8070866141732282
0
LINE
8
BLACK
6
CONTINUOUS
10
1.7135826771653544
20
-1.8070866141732282
11
1.7135077559055119
21
-1.8074632677165354
0
LINE
8
BLACK
6
CONTINUOUS
10
1.7135077559055119
20
-1.8074632677165354
11
1.7129750787401574
21
-1.8079959448818896
0
LINE
8
BLACK
6
CONTINUOUS
10
1.7129750787401574
20
-1.8079959448818896
11
1.7125984251968505
21
-1.8080708661417322
0
LINE
8
BLACK
6
CONTINUOUS
10
1.7125984251968505
20
-1.8080708661417322
11
1.1614173228346456
21
-1.8080708661417322
0
LINE
8
BLACK
6
CONTINUOUS
10
1.1614173228346456
20
-1.8080708661417322
11
1.1610406692913386
21
-1.8079959448818896
0
LINE
8
BLACK
6
CONTINUOUS
10
1.1610406692913386
20
-1.8079959448818896
11
1.1605079921259842
21
-1.8074632677165354
0
LINE
8
BLACK
6
CONTINUOUS
10
1.1605079921259842
20
-1.8074632677165354
11
1.1604330708661417
21
-1.8070866141732282
0
LINE
8
BLACK
6
CONTINUOUS
10
1.1604330708661417
20
-1.8070866141732282
11
1.1604330708661417
21
-1.2559055118110236
0
LINE
8
BLACK
6
CONTINUOUS
10
1.1604330708661417
20
-1.2559055118110236
11
1.1605079921259842
21
-1.2555288582677164
0
LINE
8
BLACK
6
CONTINUOUS
10
1.1605079921259842
20
-1.2555288582677164
11
1.1610406692913386
21
-1.2549961811023622
0
LINE
8
BLACK
6
CONTINUOUS
10
1.1610406692913386
20
-1.2549961811023622
11
1.1614173228346456
21
-1.2549212598425197
0
LINE
8
BLACK
6
CONTINUOUS
10
1.1614173228346456
20
-1.2549212598425197
11
1.7125984251968505
21
-1.2549212598425197
0
LINE
8
BLACK
6
CONTINUOUS
10
1.7125984251968505
20
-1.2549212598425197
11
1.7129750787401574
21
-1.2549961811023622
0
LINE
8
BLACK
6
CONTINUOUS
10
1.1624015748031495
20
-1.2568897637795275
11
1.1624015748031495
21
-1.8061023622047243
0
LINE
8
BLACK
6
CONTINUOUS
10
1.1624015748031495
20
-1.8061023622047243
11
1.7116141732283465
21
-1.8061023622047243
0
LINE
8
BLACK
6
CONTINUOUS
10
1.7116141732283465
20
-1.8061023622047243
11
1.7116141732283465
21
-1.2568897637795275
0
LINE
8
BLACK
6
CONTINUOUS
10
1.7116141732283465
20
-1.2568897637795275
11
1.1624015748031495
21
-1.2568897637795275
0
LINE
8
BLACK
6
CONTINUOUS
10
2.4649435826771655
20
-1.2549961811023622
11
2.4654762598425197
21
-1.2555288582677164
0
LINE
8
BLACK
6
CONTINUOUS
10
2.4654762598425197
20
-1.2555288582677164
11
2.465551181102362
21
-1.2559055118110236
0
LINE
8
BLACK
6
CONTINUOUS
10
2.465551181102362
20
-1.2559055118110236
11
2.465551181102362
21
-1.8070866141732282
0
LINE
8
BLACK
6
CONTINUOUS
10
2.465551181102362
20
-1.8070866141732282
11
2.4654762598425197
21
-1.8074632677165354
0
LINE
8
BLACK
6
CONTINUOUS
10
2.4654762598425197
20
-1.8074632677165354
11
2.4649435826771655
21
-1.8079959448818896
0
LINE
8
BLACK
6
CONTINUOUS
10
2.4649435826771655
20
-1.8079959448818896
11
2.4645669291338583
21
-1.8080708661417322
0
LINE
8
BLACK
6
CONTINUOUS
10
2.4645669291338583
20
-1.8080708661417322
11
1.9133858267716535
21
-1.8080708661417322
0
LINE
8
BLACK
6
CONTINUOUS
10
1.9133858267716535
20
-1.8080708661417322
11
1.9130091732283465
21
-1.8079959448818896
0
LINE
8
BLACK
6
CONTINUOUS
10
1.9130091732283465
20
-1.8079959448818896
11
1.9124764960629921
21
-1.8074632677165354
0
LINE
8
BLACK
6
CONTINUOUS
10
1.9124764960629921
20
-1.8074632677165354
11
1.9124015748031495
21
-1.8070866141732282
0
LINE
8
BLACK
6
CONTINUOUS
10
1.9124015748031495
20
-1.8070866141732282
11
1.9124015748031495
21
-1.2559055118110236
0
LINE
8
BLACK
6
CONTINUOUS
10
1.9124015748031495
20
-1.2559055118110236
11
1.9124764960629921
21
-1.2555288582677164
0
LINE
8
BLACK
6
CONTINUOUS
10
1.9124764960629921
20
-1.2555288582677164
11
1.9130091732283465
21
-1.2549961811023622
0
LINE
8
BLACK
6
CONTINUOUS
10
1.9130091732283465
20
-1.2549961811023622
11
1.9133858267716535
21
-1.2549212598425197
0
LINE
8
BLACK
6
CONTINUOUS
10
1.9133858267716535
20
-1.2549212598425197
11
2.4645669291338583
21
-1.2549212598425197
0
LINE
8
BLACK
6
CONTINUOUS
10
2.4645669291338583
20
-1.2549212598425197
11
2.4649435826771655
21
-1.2549961811023622
0
LINE
8
BLACK
6
CONTINUOUS
10
1.9143700787401574
20
-1.2568897637795275
11
1.9143700787401574
21
-1.8061023622047243
0
LINE
8
BLACK
6
CONTINUOUS
10
1.9143700787401574
20
-1.8061023622047243
11
2.4635826771653542
21
-1.8061023622047243
0
LINE
8
BLACK
6
CONTINUOUS
10
2.4635826771653542
20
-1.8061023622047243
11
2.4635826771653542
21
-1.2568897637795275
0
LINE
8
BLACK
6
CONTINUOUS
10
2.4635826771653542
20
-1.2568897637795275
11
1.9143700787401574
21
-1.2568897637795275
0
LINE
8
BLACK
6
CONTINUOUS
10
3.2129750787401572
20
-1.2549961811023622
11
3.2135077559055119
21
-1.2555288582677164
0
LINE
8
BLACK
6
CONTINUOUS
10
3.2135077559055119
20
-1.2555288582677164
11
3.2135826771653542
21
-1.2559055118110236
0
LINE
8
BLACK
6
CONTINUOUS
10
3.2135826771653542
20
-1.2559055118110236
11
3.2135826771653542
21
-1.8070866141732282
0
LINE
8
BLACK
6
CONTINUOUS
10
3.2135826771653542
20
-1.8070866141732282
11
3.2135077559055119
21
-1.8074632677165354
0
LINE
8
BLACK
6
CONTINUOUS
10
3.2135077559055119
20
-1.8074632677165354
11
3.2129750787401572
21
-1.8079959448818896
0
LINE
8
BLACK
6
CONTINUOUS
10
3.2129750787401572
20
-1.8079959448818896
11
3.2125984251968505
21
-1.8080708661417322
0
LINE
8
BLACK
6
CONTINUOUS
10
3.2125984251968505
20
-1.8080708661417322
11
2.6614173228346458
21
-1.8080708661417322
0
LINE
8
BLACK
6
CONTINUOUS
10
2.6614173228346458
20
-1.8080708661417322
11
2.6610406692913386
21
-1.8079959448818896
0
LINE
8
BLACK
6
CONTINUOUS
10
2.6610406692913386
20
-1.8079959448818896
11
2.660507992125984
21
-1.8074632677165354
0
LINE
8
BLACK
6
CONTINUOUS
10
2.660507992125984
20
-1.8074632677165354
11
2.6604330708661417
21
-1.8070866141732282
0
LINE
8
BLACK
6
CONTINUOUS
10
2.6604330708661417
20
-1.8070866141732282
11
2.6604330708661417
21
-1.2559055118110236
0
LINE
8
BLACK
6
CONTINUOUS
10
2.6604330708661417
20
-1.2559055118110236
11
2.660507992125984
21
-1.2555288582677164
0
LINE
8
BLACK
6
CONTINUOUS
10
2.660507992125984
20
-1.2555288582677164
11
2.6610406692913386
21
-1.2549961811023622
0
LINE
8
BLACK
6
CONTINUOUS
10
2.6610406692913386
20
-1.2549961811023622
11
2.6614173228346458
21
-1.2549212598425197
0
LINE
8
BLACK
6
CONTINUOUS
10
2.6614173228346458
20
-1.2549212598425197
11
3.2125984251968505
21
-1.2549212598425197
0
LINE
8
BLACK
6
CONTINUOUS
10
3.2125984251968505
20
-1.2549212598425197
11
3.2129750787401572
21
-1.2549961811023622
0
LINE
8
BLACK
6
CONTINUOUS
10
2.6624015748031495
20
-1.2568897637795275
11
2.6624015748031495
21
-1.8061023622047243
0
LINE
8
BLACK
6
CONTINUOUS
10
2.6624015748031495
20
-1.8061023622047243
11
3.2116141732283463
21
-1.8061023622047243
0
LINE
8
BLACK
6
CONTINUOUS
10
3.2116141732283463
20
-1.8061023622047243
11
3.2116141732283463
21
-1.2568897637795275
0
LINE
8
BLACK
6
CONTINUOUS
10
3.2116141732283463
20
-1.2568897637795275
11
2.6624015748031495
21
-1.2568897637795275
0
LINE
8
BLACK
6
CONTINUOUS
10
4.7169120866141734
20
-1.2549961811023622
11
4.7174447637795272
21
-1.2555288582677164
0
LINE
8
BLACK
6
CONTINUOUS
10
4.7174447637795272
20
-1.2555288582677164
11
4.7175196850393704
21
-1.2559055118110236
0
LINE
8
BLACK
6
CONTINUOUS
10
4.7175196850393704
20
-1.2559055118110236
11
4.7175196850393704
21
-1.8070866141732282
0
LINE
8
BLACK
6
CONTINUOUS
10
4.7175196850393704
20
-1.8070866141732282
11
4.7174447637795272
21
-1.8074632677165354
0
LINE
8
BLACK
6
CONTINUOUS
10
4.7174447637795272
20
-1.8074632677165354
11
4.7169120866141734
21
-1.8079959448818896
0
LINE
8
BLACK
6
CONTINUOUS
10
4.7169120866141734
20
-1.8079959448818896
11
4.7165354330708658
21
-1.8080708661417322
0
LINE
8
BLACK
6
CONTINUOUS
10
4.7165354330708658
20
-1.8080708661417322
11
4.1653543307086611
21
-1.8080708661417322
0
LINE
8
BLACK
6
CONTINUOUS
10
4.1653543307086611
20
-1.8080708661417322
11
4.1649776771653544
21
-1.8079959448818896
0
LINE
8
BLACK
6
CONTINUOUS
10
4.1649776771653544
20
-1.8079959448818896
11
4.1644449999999997
21
-1.8074632677165354
0
LINE
8
BLACK
6
CONTINUOUS
10
4.1644449999999997
20
-1.8074632677165354
11
4.1643700787401574
21
-1.8070866141732282
0
LINE
8
BLACK
6
CONTINUOUS
10
4.1643700787401574
20
-1.8070866141732282
11
4.1643700787401574
21
-1.2559055118110236
0
LINE
8
BLACK
6
CONTINUOUS
10
4.1643700787401574
20
-1.2559055118110236
11
4.1644449999999997
21
-1.2555288582677164
0
LINE
8
BLACK
6
CONTINUOUS
10
4.1644449999999997
20
-1.2555288582677164
11
4.1649776771653544
21
-1.2549961811023622
0
LINE
8
BLACK
6
CONTINUOUS
10
4.1649776771653544
20
-1.2549961811023622
11
4.1653543307086611
21
-1.2549212598425197
0
LINE
8
BLACK
6
CONTINUOUS
10
4.1653543307086611
20
-1.2549212598425197
11
4.7165354330708658
21
-1.2549212598425197
0
LINE
8
BLACK
6
CONTINUOUS
10
4.7165354330708658
20
-1.2549212598425197
11
4.7169120866141734
21
-1.2549961811023622
0
LINE
8
BLACK
6
CONTINUOUS
10
4.1663385826771648
20
-1.2568897637795275
11
4.1663385826771648
21
-1.8061023622047243
0
LINE
8
BLACK
6
CONTINUOUS
10
4.1663385826771648
20
-1.8061023622047243
11
4.715551181102362
21
-1.8061023622047243
0
LINE
8
BLACK
6
CONTINUOUS
10
4.715551181102362
20
-1.8061023622047243
11
4.715551181102362
21
-1.2568897637795275
0
LINE
8
BLACK
6
CONTINUOUS
10
4.715551181102362
20
-1.2568897637795275
11
4.1663385826771648
21
-1.2568897637795275
0
LINE
8
BLACK
6
CONTINUOUS
10
5.4649435826771651
20
-1.2549961811023622
11
5.4654762598425197
21
-1.2555288582677164
0
LINE
8
BLACK
6
CONTINUOUS
10
5.4654762598425197
20
-1.2555288582677164
11
5.465551181102362
21
-1.2559055118110236
0
LINE
8
BLACK
6
CONTINUOUS
10
5.465551181102362
20
-1.2559055118110236
11
5.465551181102362
21
-1.8070866141732282
0
LINE
8
BLACK
6
CONTINUOUS
10
5.465551181102362
20
-1.8070866141732282
11
5.4654762598425197
21
-1.8074632677165354
0
LINE
8
BLACK
6
CONTINUOUS
10
5.4654762598425197
20
-1.8074632677165354
11
5.4649435826771651
21
-1.8079959448818896
0
LINE
8
BLACK
6
CONTINUOUS
10
5.4649435826771651
20
-1.8079959448818896
11
5.4645669291338583
21
-1.8080708661417322
0
LINE
8
BLACK
6
CONTINUOUS
10
5.4645669291338583
20
-1.8080708661417322
11
4.9133858267716537
21
-1.8080708661417322
0
LINE
8
BLACK
6
CONTINUOUS
10
4.9133858267716537
20
-1.8080708661417322
11
4.9130091732283461
21
-1.8079959448818896
0
LINE
8
BLACK
6
CONTINUOUS
10
4.9130091732283461
20
-1.8079959448818896
11
4.9124764960629923
21
-1.8074632677165354
0
LINE
8
BLACK
6
CONTINUOUS
10
4.9124764960629923
20
-1.8074632677165354
11
4.9124015748031491
21
-1.8070866141732282
0
LINE
8
BLACK
6
CONTINUOUS
10
4.9124015748031491
20
-1.8070866141732282
11
4.9124015748031491
21
-1.2559055118110236
0
LINE
8
BLACK
6
CONTINUOUS
10
4.9124015748031491
20
-1.2559055118110236
11
4.9124764960629923
21
-1.2555288582677164
0
LINE
8
BLACK
6
CONTINUOUS
10
4.9124764960629923
20
-1.2555288582677164
11
4.9130091732283461
21
-1.2549961811023622
0
LINE
8
BLACK
6
CONTINUOUS
10
4.9130091732283461
20
-1.2549961811023622
11
4.9133858267716537
21
-1.2549212598425197
0
LINE
8
BLACK
6
CONTINUOUS
10
4.9133858267716537
20
-1.2549212598425197
11
5.4645669291338583
21
-1.2549212598425197
0
LINE
8
BLACK
6
CONTINUOUS
10
5.4645669291338583
20
-1.2549212598425197
11
5.4649435826771651
21
-1.2549961811023622
0
LINE
8
BLACK
6
CONTINUOUS
10
4.9143700787401574
20
-1.2568897637795275
11
4.9143700787401574
21
-1.8061023622047243
0
LINE
8
BLACK
6
CONTINUOUS
10
4.9143700787401574
20
-1.8061023622047243
11
5.4635826771653546
21
-1.8061023622047243
0
LINE
8
BLACK
6
CONTINUOUS
10
5.4635826771653546
20
-1.8061023622047243
11
5.4635826771653546
21
-1.2568897637795275
0
LINE
8
BLACK
6
CONTINUOUS
10
5.4635826771653546
20
-1.2568897637795275
11
4.9143700787401574
21
-1.2568897637795275
0
LINE
8
BLACK
6
CONTINUOUS
10
6.2129750787401576
20
-1.2549961811023622
11
6.2135077559055114
21
-1.2555288582677164
0
LINE
8
BLACK
6
CONTINUOUS
10
6.2135077559055114
20
-1.2555288582677164
11
6.2135826771653546
21
-1.2559055118110236
0
LINE
8
BLACK
6
CONTINUOUS
10
6.2135826771653546
20
-1.2559055118110236
11
6.2135826771653546
21
-1.8070866141732282
0
LINE
8
BLACK
6
CONTINUOUS
10
6.2135826771653546
20
-1.8070866141732282
11
6.2135077559055114
21
-1.8074632677165354
0
LINE
8
BLACK
6
CONTINUOUS
10
6.2135077559055114
20
-1.8074632677165354
11
6.2129750787401576
21
-1.8079959448818896
0
LINE
8
BLACK
6
CONTINUOUS
10
6.2129750787401576
20
-1.8079959448818896
11
6.21259842519685
21
-1.8080708661417322
0
LINE
8
BLACK
6
CONTINUOUS
10
6.21259842519685
20
-1.8080708661417322
11
5.6614173228346454
21
-1.8080708661417322
0
LINE
8
BLACK
6
CONTINUOUS
10
5.6614173228346454
20
-1.8080708661417322
11
5.6610406692913386
21
-1.8079959448818896
0
LINE
8
BLACK
6
CONTINUOUS
10
5.6610406692913386
20
-1.8079959448818896
11
5.660507992125984
21
-1.8074632677165354
0
LINE
8
BLACK
6
CONTINUOUS
10
5.660507992125984
20
-1.8074632677165354
11
5.6604330708661417
21
-1.8070866141732282
0
LINE
8
BLACK
6
CONTINUOUS
10
5.6604330708661417
20
-1.8070866141732282
11
5.6604330708661417
21
-1.2559055118110236
0
LINE
8
BLACK
6
CONTINUOUS
10
5.6604330708661417
20
-1.2559055118110236
11
5.660507992125984
21
-1.2555288582677164
0
LINE
8
BLACK
6
CONTINUOUS
10
5.660507992125984
20
-1.2555288582677164
11
5.6610406692913386
21
-1.2549961811023622
0
LINE
8
BLACK
6
CONTINUOUS
10
5.6610406692913386
20
-1.2549961811023622
11
5.6614173228346454
21
-1.2549212598425197
0
LINE
8
BLACK
6
CONTINUOUS
10
5.6614173228346454
20
-1.2549212598425197
11
6.21259842519685
21
-1.2549212598425197
0
LINE
8
BLACK
6
CONTINUOUS
10
6.21259842519685
20
-1.2549212598425197
11
6.2129750787401576
21
-1.2549961811023622
0
LINE
8
BLACK
6
CONTINUOUS
10
5.6624015748031491
20
-1.2568897637795275
11
5.6624015748031491
21
-1.8061023622047243
0
LINE
8
BLACK
6
CONTINUOUS
10
5.6624015748031491
20
-1.8061023622047243
11
6.2116141732283463
21
-1.8061023622047243
0
LINE
8
BLACK
6
CONTINUOUS
10
6.2116141732283463
20
-1.8061023622047243
11
6.2116141732283463
21
-1.2568897637795275
0
LINE
8
BLACK
6
CONTINUOUS
10
6.2116141732283463
20
-1.2568897637795275
11
5.6624015748031491
21
-1.2568897637795275
0
LINE
8
BLACK
6
CONTINUOUS
10
8.4649435826771651
20
-1.2549961811023622
11
8.4654762598425197
21
-1.2555288582677164
0
LINE
8
BLACK
6
CONTINUOUS
10
8.4654762598425197
20
-1.2555288582677164
11
8.4655511811023612
21
-1.2559055118110236
0
LINE
8
BLACK
6
CONTINUOUS
10
8.4655511811023612
20
-1.2559055118110236
11
8.4655511811023612
21
-1.8070866141732282
0
LINE
8
BLACK
6
CONTINUOUS
10
8.4655511811023612
20
-1.8070866141732282
11
8.4654762598425197
21
-1.8074632677165354
0
LINE
8
BLACK
6
CONTINUOUS
10
8.4654762598425197
20
-1.8074632677165354
11
8.4649435826771651
21
-1.8079959448818896
0
LINE
8
BLACK
6
CONTINUOUS
10
8.4649435826771651
20
-1.8079959448818896
11
8.4645669291338574
21
-1.8080708661417322
0
LINE
8
BLACK
6
CONTINUOUS
10
8.4645669291338574
20
-1.8080708661417322
11
7.9133858267716537
21
-1.8080708661417322
0
LINE
8
BLACK
6
CONTINUOUS
10
7.9133858267716537
20
-1.8080708661417322
11
7.9130091732283461
21
-1.8079959448818896
0
LINE
8
BLACK
6
CONTINUOUS
10
7.9130091732283461
20
-1.8079959448818896
11
7.9124764960629923
21
-1.8074632677165354
0
LINE
8
BLACK
6
CONTINUOUS
10
7.9124764960629923
20
-1.8074632677165354
11
7.9124015748031491
21
-1.8070866141732282
0
LINE
8
BLACK
6
CONTINUOUS
10
7.9124015748031491
20
-1.8070866141732282
11
7.9124015748031491
21
-1.2559055118110236
0
LINE
8
BLACK
6
CONTINUOUS
10
7.9124015748031491
20
-1.2559055118110236
11
7.9124764960629923
21
-1.2555288582677164
0
LINE
8
BLACK
6
CONTINUOUS
10
7.9124764960629923
20
-1.2555288582677164
11
7.9130091732283461
21
-1.2549961811023622
0
LINE
8
BLACK
6
CONTINUOUS
10
7.9130091732283461
20
-1.2549961811023622
11
7.9133858267716537
21
-1.2549212598425197
0
LINE
8
BLACK
6
CONTINUOUS
10
7.9133858267716537
20
-1.2549212598425197
11
8.4645669291338574
21
-1.2549212598425197
0
LINE
8
BLACK
6
CONTINUOUS
10
8.4645669291338574
20
-1.2549212598425197
11
8.4649435826771651
21
-1.2549961811023622
0
LINE
8
BLACK
6
CONTINUOUS
10
7.9143700787401574
20
-1.2568897637795275
11
7.9143700787401574
21
-1.8061023622047243
0
LINE
8
BLACK
6
CONTINUOUS
10
7.9143700787401574
20
-1.8061023622047243
11
8.4635826771653537
21
-1.8061023622047243
0
LINE
8
BLACK
6
CONTINUOUS
10
8.4635826771653537
20
-1.8061023622047243
11
8.4635826771653537
21
-1.2568897637795275
0
LINE
8
BLACK
6
CONTINUOUS
10
8.4635826771653537
20
-1.2568897637795275
11
7.9143700787401574
21
-1.2568897637795275
0
LINE
8
BLACK
6
CONTINUOUS
10
9.2169120866141725
20
-1.2549961811023622
11
9.2174447637795272
21
-1.2555288582677164
0
LINE
8
BLACK
6
CONTINUOUS
10
9.2174447637795272
20
-1.2555288582677164
11
9.2175196850393704
21
-1.2559055118110236
0
LINE
8
BLACK
6
CONTINUOUS
10
9.2175196850393704
20
-1.2559055118110236
11
9.2175196850393704
21
-1.8070866141732282
0
LINE
8
BLACK
6
CONTINUOUS
10
9.2175196850393704
20
-1.8070866141732282
11
9.2174447637795272
21
-1.8074632677165354
0
LINE
8
BLACK
6
CONTINUOUS
10
9.2174447637795272
20
-1.8074632677165354
11
9.2169120866141725
21
-1.8079959448818896
0
LINE
8
BLACK
6
CONTINUOUS
10
9.2169120866141725
20
-1.8079959448818896
11
9.2165354330708666
21
-1.8080708661417322
0
LINE
8
BLACK
6
CONTINUOUS
10
9.2165354330708666
20
-1.8080708661417322
11
8.6653543307086611
21
-1.8080708661417322
0
LINE
8
BLACK
6
CONTINUOUS
10
8.6653543307086611
20
-1.8080708661417322
11
8.6649776771653535
21
-1.8079959448818896
0
LINE
8
BLACK
6
CONTINUOUS
10
8.6649776771653535
20
-1.8079959448818896
11
8.6644450000000006
21
-1.8074632677165354
0
LINE
8
BLACK
6
CONTINUOUS
10
8.6644450000000006
20
-1.8074632677165354
11
8.6643700787401574
21
-1.8070866141732282
0
LINE
8
BLACK
6
CONTINUOUS
10
8.6643700787401574
20
-1.8070866141732282
11
8.6643700787401574
21
-1.2559055118110236
0
LINE
8
BLACK
6
CONTINUOUS
10
8.6643700787401574
20
-1.2559055118110236
11
8.6644450000000006
21
-1.2555288582677164
0
LINE
8
BLACK
6
CONTINUOUS
10
8.6644450000000006
20
-1.2555288582677164
11
8.6649776771653535
21
-1.2549961811023622
0
LINE
8
BLACK
6
CONTINUOUS
10
8.6649776771653535
20
-1.2549961811023622
11
8.6653543307086611
21
-1.2549212598425197
0
LINE
8
BLACK
6
CONTINUOUS
10
8.6653543307086611
20
-1.2549212598425197
11
9.2165354330708666
21
-1.2549212598425197
0
LINE
8
BLACK
6
CONTINUOUS
10
9.2165354330708666
20
-1.2549212598425197
11
9.2169120866141725
21
-1.2549961811023622
0
LINE
8
BLACK
6
CONTINUOUS
10
8.6663385826771648
20
-1.2568897637795275
11
8.6663385826771648
21
-1.8061023622047243
0
LINE
8
BLACK
6
CONTINUOUS
10
8.6663385826771648
20
-1.8061023622047243
11
9.2155511811023612
21
-1.8061023622047243
0
LINE
8
BLACK
6
CONTINUOUS
10
9.2155511811023612
20
-1.8061023622047243
11
9.2155511811023612
21
-1.2568897637795275
0
LINE
8
BLACK
6
CONTINUOUS
10
9.2155511811023612
20
-1.2568897637795275
11
8.6663385826771648
21
-1.2568897637795275
0
LINE
8
BLACK
6
CONTINUOUS
10
9.9688805905511817
20
-1.2549961811023622
11
9.9694132677165346
21
-1.2555288582677164
0
LINE
8
BLACK
6
CONTINUOUS
10
9.9694132677165346
20
-1.2555288582677164
11
9.9694881889763778
21
-1.2559055118110236
0
LINE
8
BLACK
6
CONTINUOUS
10
9.9694881889763778
20
-1.2559055118110236
11
9.9694881889763778
21
-1.8070866141732282
0
LINE
8
BLACK
6
CONTINUOUS
10
9.9694881889763778
20
-1.8070866141732282
11
9.9694132677165346
21
-1.8074632677165354
0
LINE
8
BLACK
6
CONTINUOUS
10
9.9694132677165346
20
-1.8074632677165354
11
9.9688805905511817
21
-1.8079959448818896
0
LINE
8
BLACK
6
CONTINUOUS
10
9.9688805905511817
20
-1.8079959448818896
11
9.9685039370078741
21
-1.8080708661417322
0
LINE
8
BLACK
6
CONTINUOUS
10
9.9685039370078741
20
-1.8080708661417322
11
9.4173228346456686
21
-1.8080708661417322
0
LINE
8
BLACK
6
CONTINUOUS
10
9.4173228346456686
20
-1.8080708661417322
11
9.4169461811023627
21
-1.8079959448818896
0
LINE
8
BLACK
6
CONTINUOUS
10
9.4169461811023627
20
-1.8079959448818896
11
9.416413503937008
21
-1.8074632677165354
0
LINE
8
BLACK
6
CONTINUOUS
10
9.416413503937008
20
-1.8074632677165354
11
9.4163385826771648
21
-1.8070866141732282
0
LINE
8
BLACK
6
CONTINUOUS
10
9.4163385826771648
20
-1.8070866141732282
11
9.4163385826771648
21
-1.2559055118110236
0
LINE
8
BLACK
6
CONTINUOUS
10
9.4163385826771648
20
-1.2559055118110236
11
9.416413503937008
21
-1.2555288582677164
0
LINE
8
BLACK
6
CONTINUOUS
10
9.416413503937008
20
-1.2555288582677164
11
9.4169461811023627
21
-1.2549961811023622
0
LINE
8
BLACK
6
CONTINUOUS
10
9.4169461811023627
20
-1.2549961811023622
11
9.4173228346456686
21
-1.2549212598425197
0
LINE
8
BLACK
6
CONTINUOUS
10
9.4173228346456686
20
-1.2549212598425197
11
9.9685039370078741
21
-1.2549212598425197
0
LINE
8
BLACK
6
CONTINUOUS
10
9.9685039370078741
20
-1.2549212598425197
11
9.9688805905511817
21
-1.2549961811023622
0
LINE
8
BLACK
6
CONTINUOUS
10
9.4183070866141723
20
-1.2568897637795275
11
9.4183070866141723
21
-1.8061023622047243
0
LINE
8
BLACK
6
CONTINUOUS
10
9.4183070866141723
20
-1.8061023622047243
11
9.9675196850393704
21
-1.8061023622047243
0
LINE
8
BLACK
6
CONTINUOUS
10
9.9675196850393704
20
-1.8061023622047243
11
9.9675196850393704
21
-1.2568897637795275
0
LINE
8
BLACK
6
CONTINUOUS
10
9.9675196850393704
20
-1.2568897637795275
11
9.4183070866141723
21
-1.2568897637795275
0
LINE
8
BLACK
6
CONTINUOUS
10
0.7680931889763779
20
-1.2510591732283465
11
0.7686258661417322
21
-1.2515918503937007
0
LINE
8
BLACK
6
CONTINUOUS
10
0.7686258661417322
20
-1.2515918503937007
11
0.7687007874015748
21
-1.2519685039370079
0
LINE
8
BLACK
6
CONTINUOUS
10
0.7687007874015748
20
-1.2519685039370079
11
0.7687007874015748
21
-1.8031496062992125
0
LINE
8
BLACK
6
CONTINUOUS
10
0.7687007874015748
20
-1.8031496062992125
11
0.7686258661417322
21
-1.8035262598425197
0
LINE
8
BLACK
6
CONTINUOUS
10
0.7686258661417322
20
-1.8035262598425197
11
0.7680931889763779
21
-1.8040589370078739
0
LINE
8
BLACK
6
CONTINUOUS
10
0.7680931889763779
20
-1.8040589370078739
11
0.7677165354330708
21
-1.8041338582677164
0
LINE
8
BLACK
6
CONTINUOUS
10
0.7677165354330708
20
-1.8041338582677164
11
0.2165354330708661
21
-1.8041338582677164
0
LINE
8
BLACK
6
CONTINUOUS
10
0.2165354330708661
20
-1.8041338582677164
11
0.216158779527559
21
-1.8040589370078739
0
LINE
8
BLACK
6
CONTINUOUS
10
0.216158779527559
20
-1.8040589370078739
11
0.2156261023622047
21
-1.8035262598425197
0
LINE
8
BLACK
6
CONTINUOUS
10
0.2156261023622047
20
-1.8035262598425197
11
0.2155511811023622
21
-1.8031496062992125
0
LINE
8
BLACK
6
CONTINUOUS
10
0.2155511811023622
20
-1.8031496062992125
11
0.2155511811023622
21
-1.2519685039370079
0
LINE
8
BLACK
6
CONTINUOUS
10
0.2155511811023622
20
-1.2519685039370079
11
0.2156261023622047
21
-1.2515918503937007
0
LINE
8
BLACK
6
CONTINUOUS
10
0.2156261023622047
20
-1.2515918503937007
11
0.216158779527559
21
-1.2510591732283465
0
LINE
8
BLACK
6
CONTINUOUS
10
0.216158779527559
20
-1.2510591732283465
11
0.2165354330708661
21
-1.2509842519685039
0
LINE
8
BLACK
6
CONTINUOUS
10
0.2165354330708661
20
-1.2509842519685039
11
0.7677165354330708
21
-1.2509842519685039
0
LINE
8
BLACK
6
CONTINUOUS
10
0.7677165354330708
20
-1.2509842519685039
11
0.7680931889763779
21
-1.2510591732283465
0
LINE
8
BLACK
6
CONTINUOUS
10
0.2175196850393701
20
-1.2529527559055118
11
0.2175196850393701
21
-1.8021653543307086
0
LINE
8
BLACK
6
CONTINUOUS
10
0.2175196850393701
20
-1.8021653543307086
11
0.7667322834645669
21
-1.8021653543307086
0
LINE
8
BLACK
6
CONTINUOUS
10
0.7667322834645669
20
-1.8021653543307086
11
0.7667322834645669
21
-1.2529527559055118
0
LINE
8
BLACK
6
CONTINUOUS
10
0.7667322834645669
20
-1.2529527559055118
11
0.2175196850393701
21
-1.2529527559055118
0
LINE
8
BLACK
6
CONTINUOUS
10
3.9649435826771651
20
-1.2510591732283465
11
3.9654762598425197
21
-1.2515918503937007
0
LINE
8
BLACK
6
CONTINUOUS
10
3.9654762598425197
20
-1.2515918503937007
11
3.965551181102362
21
-1.2519685039370079
0
LINE
8
BLACK
6
CONTINUOUS
10
3.965551181102362
20
-1.2519685039370079
11
3.965551181102362
21
-1.8031496062992125
0
LINE
8
BLACK
6
CONTINUOUS
10
3.965551181102362
20
-1.8031496062992125
11
3.9654762598425197
21
-1.8035262598425197
0
LINE
8
BLACK
6
CONTINUOUS
10
3.9654762598425197
20
-1.8035262598425197
11
3.9649435826771651
21
-1.8040589370078739
0
LINE
8
BLACK
6
CONTINUOUS
10
3.9649435826771651
20
-1.8040589370078739
11
3.9645669291338583
21
-1.8041338582677164
0
LINE
8
BLACK
6
CONTINUOUS
10
3.9645669291338583
20
-1.8041338582677164
11
3.4133858267716533
21
-1.8041338582677164
0
LINE
8
BLACK
6
CONTINUOUS
10
3.4133858267716533
20
-1.8041338582677164
11
3.4130091732283465
21
-1.8040589370078739
0
LINE
8
BLACK
6
CONTINUOUS
10
3.4130091732283465
20
-1.8040589370078739
11
3.4124764960629919
21
-1.8035262598425197
0
LINE
8
BLACK
6
CONTINUOUS
10
3.4124764960629919
20
-1.8035262598425197
11
3.4124015748031495
21
-1.8031496062992125
0
LINE
8
BLACK
6
CONTINUOUS
10
3.4124015748031495
20
-1.8031496062992125
11
3.4124015748031495
21
-1.2519685039370079
0
LINE
8
BLACK
6
CONTINUOUS
10
3.4124015748031495
20
-1.2519685039370079
11
3.4124764960629919
21
-1.2515918503937007
0
LINE
8
BLACK
6
CONTINUOUS
10
3.4124764960629919
20
-1.2515918503937007
11
3.4130091732283465
21
-1.2510591732283465
0
LINE
8
BLACK
6
CONTINUOUS
10
3.4130091732283465
20
-1.2510591732283465
11
3.4133858267716533
21
-1.2509842519685039
0
LINE
8
BLACK
6
CONTINUOUS
10
3.4133858267716533
20
-1.2509842519685039
11
3.9645669291338583
21
-1.2509842519685039
0
LINE
8
BLACK
6
CONTINUOUS
10
3.9645669291338583
20
-1.2509842519685039
11
3.9649435826771651
21
-1.2510591732283465
0
LINE
8
BLACK
6
CONTINUOUS
10
3.4143700787401574
20
-1.2529527559055118
11
3.4143700787401574
21
-1.8021653543307086
0
LINE
8
BLACK
6
CONTINUOUS
10
3.4143700787401574
20
-1.8021653543307086
11
3.9635826771653542
21
-1.8021653543307086
0
LINE
8
BLACK
6
CONTINUOUS
10
3.9635826771653542
20
-1.8021653543307086
11
3.9635826771653542
21
-1.2529527559055118
0
LINE
8
BLACK
6
CONTINUOUS
10
3.9635826771653542
20
-1.2529527559055118
11
3.4143700787401574
21
-1.2529527559055118
0
LINE
8
BLACK
6
CONTINUOUS
10
10.9019514566929132
20
-1.2510591732283465
11
10.9024841338582679
21
-1.2515918503937007
0
LINE
8
BLACK
6
CONTINUOUS
10
10.9024841338582679
20
-1.2515918503937007
11
10.9025590551181093
21
-1.2519685039370079
0
LINE
8
BLACK
6
CONTINUOUS
10
10.9025590551181093
20
-1.2519685039370079
11
10.9025590551181093
21
-1.8031496062992125
0
LINE
8
BLACK
6
CONTINUOUS
10
10.9025590551181093
20
-1.8031496062992125
11
10.9024841338582679
21
-1.8035262598425197
0
LINE
8
BLACK
6
CONTINUOUS
10
10.9024841338582679
20
-1.8035262598425197
11
10.9019514566929132
21
-1.8040589370078739
0
LINE
8
BLACK
6
CONTINUOUS
10
10.9019514566929132
20
-1.8040589370078739
11
10.9015748031496056
21
-1.8041338582677164
0
LINE
8
BLACK
6
CONTINUOUS
10
10.9015748031496056
20
-1.8041338582677164
11
10.3503937007874018
21
-1.8041338582677164
0
LINE
8
BLACK
6
CONTINUOUS
10
10.3503937007874018
20
-1.8041338582677164
11
10.3500170472440942
21
-1.8040589370078739
0
LINE
8
BLACK
6
CONTINUOUS
10
10.3500170472440942
20
-1.8040589370078739
11
10.3494843700787396
21
-1.8035262598425197
0
LINE
8
BLACK
6
CONTINUOUS
10
10.3494843700787396
20
-1.8035262598425197
11
10.3494094488188981
21
-1.8031496062992125
0
LINE
8
BLACK
6
CONTINUOUS
10
10.3494094488188981
20
-1.8031496062992125
11
10.3494094488188981
21
-1.2519685039370079
0
LINE
8
BLACK
6
CONTINUOUS
10
10.3494094488188981
20
-1.2519685039370079
11
10.3494843700787396
21
-1.2515918503937007
0
LINE
8
BLACK
6
CONTINUOUS
10
10.3494843700787396
20
-1.2515918503937007
11
10.3500170472440942
21
-1.2510591732283465
0
LINE
8
BLACK
6
CONTINUOUS
10
10.3500170472440942
20
-1.2510591732283465
11
10.3503937007874018
21
-1.2509842519685039
0
LINE
8
BLACK
6
CONTINUOUS
10
10.3503937007874018
20
-1.2509842519685039
11
10.9015748031496056
21
-1.2509842519685039
0
LINE
8
BLACK
6
CONTINUOUS
10
10.9015748031496056
20
-1.2509842519685039
11
10.9019514566929132
21
-1.2510591732283465
0
LINE
8
BLACK
6
CONTINUOUS
10
10.3513779527559056
20
-1.2529527559055118
11
10.3513779527559056
21
-1.8021653543307086
0
LINE
8
BLACK
6
CONTINUOUS
10
10.3513779527559056
20
-1.8021653543307086
11
10.9005905511811019
21
-1.8021653543307086
0
LINE
8
BLACK
6
CONTINUOUS
10
10.9005905511811019
20
-1.8021653543307086
11
10.9005905511811019
21
-1.2529527559055118
0
LINE
8
BLACK
6
CONTINUOUS
10
10.9005905511811019
20
-1.2529527559055118
11
10.3513779527559056
21
-1.2529527559055118
0
LINE
8
BLACK
6
CONTINUOUS
10
11.1627782283464558
20
-0.4203505118110236
11
11.1633109055118105
21
-0.4208831889763779
0
LINE
8
BLACK
6
CONTINUOUS
10
11.1633109055118105
20
-0.4208831889763779
11
11.1633858267716537
21
-0.421259842519685
0
LINE
8
BLACK
6
CONTINUOUS
10
11.1633858267716537
20
-0.421259842519685
11
11.1633858267716537
21
-1.1850393700787401
0
LINE
8
BLACK
6
CONTINUOUS
10
11.1633858267716537
20
-1.1850393700787401
11
11.1633109055118105
21
-1.1854160236220472
0
LINE
8
BLACK
6
CONTINUOUS
10
11.1633109055118105
20
-1.1854160236220472
11
11.1627782283464558
21
-1.1859487007874014
0
LINE
8
BLACK
6
CONTINUOUS
10
11.1627782283464558
20
-1.1859487007874014
11
11.16240157480315
21
-1.186023622047244
0
LINE
8
BLACK
6
CONTINUOUS
10
11.16240157480315
20
-1.186023622047244
11
9.7746062992125982
21
-1.186023622047244
0
LINE
8
BLACK
6
CONTINUOUS
10
9.7746062992125982
20
-1.186023622047244
11
9.7742296456692905
21
-1.1859487007874014
0
LINE
8
BLACK
6
CONTINUOUS
10
9.7742296456692905
20
-1.1859487007874014
11
9.7736969685039377
21
-1.1854160236220472
0
LINE
8
BLACK
6
CONTINUOUS
10
9.7736969685039377
20
-1.1854160236220472
11
9.7736220472440944
21
-1.1850393700787401
0
LINE
8
BLACK
6
CONTINUOUS
10
9.7736220472440944
20
-1.1850393700787401
11
9.7736220472440944
21
-0.421259842519685
0
LINE
8
BLACK
6
CONTINUOUS
10
9.7736220472440944
20
-0.421259842519685
11
9.7736969685039377
21
-0.4208831889763779
0
LINE
8
BLACK
6
CONTINUOUS
10
9.7736969685039377
20
-0.4208831889763779
11
9.7742296456692905
21
-0.4203505118110236
0
LINE
8
BLACK
6
CONTINUOUS
10
9.7742296456692905
20
-0.4203505118110236
11
9.7746062992125982
21
-0.4202755905511811
0
LINE
8
BLACK
6
CONTINUOUS
10
9.7746062992125982
20
-0.4202755905511811
11
11.16240157480315
21
-0.4202755905511811
0
LINE
8
BLACK
6
CONTINUOUS
10
11.16240157480315
20
-0.4202755905511811
11
11.1627782283464558
21
-0.4203505118110236
0
LINE
8
BLACK
6
CONTINUOUS
10
9.7755905511811019
20
-0.4222440944881889
11
9.7755905511811019
21
-1.1840551181102361
0
LINE
8
BLACK
6
CONTINUOUS
10
9.7755905511811019
20
-1.1840551181102361
11
11.1614173228346463
21
-1.1840551181102361
0
LINE
8
BLACK
6
CONTINUOUS
10
11.1614173228346463
20
-1.1840551181102361
11
11.1614173228346463
21
-0.4222440944881889
0
LINE
8
BLACK
6
CONTINUOUS
10
11.1614173228346463
20
-0.4222440944881889
11
9.7755905511811019
21
-0.4222440944881889
0
LINE
8
BLACK
6
CONTINUOUS
10
3.5869908267716535
20
-0.5069646850393701
11
3.5875235039370077
21
-0.5074973622047244
0
LINE
8
BLACK
6
CONTINUOUS
10
3.5875235039370077
20
-0.5074973622047244
11
3.5875984251968505
21
-0.5078740157480315
0
LINE
8
BLACK
6
CONTINUOUS
10
3.5875984251968505
20
-0.5078740157480315
11
3.5875984251968505
21
-1.0590551181102361
0
LINE
8
BLACK
6
CONTINUOUS
10
3.5875984251968505
20
-1.0590551181102361
11
3.5875235039370077
21
-1.0594317716535433
0
LINE
8
BLACK
6
CONTINUOUS
10
3.5875235039370077
20
-1.0594317716535433
11
3.5869908267716535
21
-1.0599644488188975
0
LINE
8
BLACK
6
CONTINUOUS
10
3.5869908267716535
20
-1.0599644488188975
11
3.5866141732283463
21
-1.0600393700787401
0
LINE
8
BLACK
6
CONTINUOUS
10
3.5866141732283463
20
-1.0600393700787401
11
3.0354330708661417
21
-1.0600393700787401
0
LINE
8
BLACK
6
CONTINUOUS
10
3.0354330708661417
20
-1.0600393700787401
11
3.0350564173228345
21
-1.0599644488188975
0
LINE
8
BLACK
6
CONTINUOUS
10
3.0350564173228345
20
-1.0599644488188975
11
3.0345237401574803
21
-1.0594317716535433
0
LINE
8
BLACK
6
CONTINUOUS
10
3.0345237401574803
20
-1.0594317716535433
11
3.0344488188976375
21
-1.0590551181102361
0
LINE
8
BLACK
6
CONTINUOUS
10
3.0344488188976375
20
-1.0590551181102361
11
3.0344488188976375
21
-0.5078740157480315
0
LINE
8
BLACK
6
CONTINUOUS
10
3.0344488188976375
20
-0.5078740157480315
11
3.0345237401574803
21
-0.5074973622047244
0
LINE
8
BLACK
6
CONTINUOUS
10
3.0345237401574803
20
-0.5074973622047244
11
3.0350564173228345
21
-0.5069646850393701
0
LINE
8
BLACK
6
CONTINUOUS
10
3.0350564173228345
20
-0.5069646850393701
11
3.0354330708661417
21
-0.5068897637795275
0
LINE
8
BLACK
6
CONTINUOUS
10
3.0354330708661417
20
-0.5068897637795275
11
3.5866141732283463
21
-0.5068897637795275
0
LINE
8
BLACK
6
CONTINUOUS
10
3.5866141732283463
20
-0.5068897637795275
11
3.5869908267716535
21
-0.5069646850393701
0
LINE
8
BLACK
6
CONTINUOUS
10
3.0364173228346454
20
-0.5088582677165354
11
3.0364173228346454
21
-1.0580708661417322
0
LINE
8
BLACK
6
CONTINUOUS
10
3.0364173228346454
20
-1.0580708661417322
11
3.5856299212598426
21
-1.0580708661417322
0
LINE
8
BLACK
6
CONTINUOUS
10
3.5856299212598426
20
-1.0580708661417322
11
3.5856299212598426
21
-0.5088582677165354
0
LINE
8
BLACK
6
CONTINUOUS
10
3.5856299212598426
20
-0.5088582677165354
11
3.0364173228346454
21
-0.5088582677165354
0
LINE
8
BLACK
6
CONTINUOUS
10
11.8389593307086614
20
-0.5069646850393701
11
11.839492007874016
21
-0.5074973622047244
0
LINE
8
BLACK
6
CONTINUOUS
10
11.839492007874016
20
-0.5074973622047244
11
11.8395669291338574
21
-0.5078740157480315
0
LINE
8
BLACK
6
CONTINUOUS
10
11.8395669291338574
20
-0.5078740157480315
11
11.8395669291338574
21
-1.0590551181102361
0
LINE
8
BLACK
6
CONTINUOUS
10
11.8395669291338574
20
-1.0590551181102361
11
11.839492007874016
21
-1.0594317716535433
0
LINE
8
BLACK
6
CONTINUOUS
10
11.839492007874016
20
-1.0594317716535433
11
11.8389593307086614
21
-1.0599644488188975
0
LINE
8
BLACK
6
CONTINUOUS
10
11.8389593307086614
20
-1.0599644488188975
11
11.8385826771653537
21
-1.0600393700787401
0
LINE
8
BLACK
6
CONTINUOUS
10
11.8385826771653537
20
-1.0600393700787401
11
11.28740157480315
21
-1.0600393700787401
0
LINE
8
BLACK
6
CONTINUOUS
10
11.28740157480315
20
-1.0600393700787401
11
11.2870249212598424
21
-1.0599644488188975
0
LINE
8
BLACK
6
CONTINUOUS
10
11.2870249212598424
20
-1.0599644488188975
11
11.2864922440944877
21
-1.0594317716535433
0
LINE
8
BLACK
6
CONTINUOUS
10
11.2864922440944877
20
-1.0594317716535433
11
11.2864173228346463
21
-1.0590551181102361
0
LINE
8
BLACK
6
CONTINUOUS
10
11.2864173228346463
20
-1.0590551181102361
11
11.2864173228346463
21
-0.5078740157480315
0
LINE
8
BLACK
6
CONTINUOUS
10
11.2864173228346463
20
-0.5078740157480315
11
11.2864922440944877
21
-0.5074973622047244
0
LINE
8
BLACK
6
CONTINUOUS
10
11.2864922440944877
20
-0.5074973622047244
11
11.2870249212598424
21
-0.5069646850393701
0
LINE
8
BLACK
6
CONTINUOUS
10
11.2870249212598424
20
-0.5069646850393701
11
11.28740157480315
21
-0.5068897637795275
0
LINE
8
BLACK
6
CONTINUOUS
10
11.28740157480315
20
-0.5068897637795275
11
11.8385826771653537
21
-0.5068897637795275
0
LINE
8
BLACK
6
CONTINUOUS
10
11.8385826771653537
20
-0.5068897637795275
11
11.8389593307086614
21
-0.5069646850393701
0
LINE
8
BLACK
6
CONTINUOUS
10
11.2883858267716537
20
-0.5088582677165354
11
11.2883858267716537
21
-1.0580708661417322
0
LINE
8
BLACK
6
CONTINUOUS
10
11.2883858267716537
20
-1.0580708661417322
11
11.83759842519685
21
-1.0580708661417322
0
LINE
8
BLACK
6
CONTINUOUS
10
11.83759842519685
20
-1.0580708661417322
11
11.83759842519685
21
-0.5088582677165354
0
LINE
8
BLACK
6
CONTINUOUS
10
11.83759842519685
20
-0.5088582677165354
11
11.2883858267716537
21
-0.5088582677165354
0
LINE
8
BLACK
6
CONTINUOUS
10
0.5830538188976377
20
-0.5030276771653543
11
0.5835864960629921
21
-0.5035603543307087
0
LINE
8
BLACK
6
CONTINUOUS
10
0.5835864960629921
20
-0.5035603543307087
11
0.5836614173228346
21
-0.5039370078740157
0
LINE
8
BLACK
6
CONTINUOUS
10
0.5836614173228346
20
-0.5039370078740157
11
0.5836614173228346
21
-1.0551181102362204
0
LINE
8
BLACK
6
CONTINUOUS
10
0.5836614173228346
20
-1.0551181102362204
11
0.5835864960629921
21
-1.0554947637795276
0
LINE
8
BLACK
6
CONTINUOUS
10
0.5835864960629921
20
-1.0554947637795276
11
0.5830538188976377
21
-1.0560274409448818
0
LINE
8
BLACK
6
CONTINUOUS
10
0.5830538188976377
20
-1.0560274409448818
11
0.5826771653543307
21
-1.0561023622047243
0
LINE
8
BLACK
6
CONTINUOUS
10
0.5826771653543307
20
-1.0561023622047243
11
0.031496062992126
21
-1.0561023622047243
0
LINE
8
BLACK
6
CONTINUOUS
10
0.031496062992126
20
-1.0561023622047243
11
0.0311194094488189
21
-1.0560274409448818
0
LINE
8
BLACK
6
CONTINUOUS
10
0.0311194094488189
20
-1.0560274409448818
11
0.0305867322834646
21
-1.0554947637795276
0
LINE
8
BLACK
6
CONTINUOUS
10
0.0305867322834646
20
-1.0554947637795276
11
0.030511811023622
21
-1.0551181102362204
0
LINE
8
BLACK
6
CONTINUOUS
10
0.030511811023622
20
-1.0551181102362204
11
0.030511811023622
21
-0.5039370078740157
0
LINE
8
BLACK
6
CONTINUOUS
10
0.030511811023622
20
-0.5039370078740157
11
0.0305867322834646
21
-0.5035603543307087
0
LINE
8
BLACK
6
CONTINUOUS
10
0.0305867322834646
20
-0.5035603543307087
11
0.0311194094488189
21
-0.5030276771653543
0
LINE
8
BLACK
6
CONTINUOUS
10
0.0311194094488189
20
-0.5030276771653543
11
0.031496062992126
21
-0.5029527559055118
0
LINE
8
BLACK
6
CONTINUOUS
10
0.031496062992126
20
-0.5029527559055118
11
0.5826771653543307
21
-0.5029527559055118
0
LINE
8
BLACK
6
CONTINUOUS
10
0.5826771653543307
20
-0.5029527559055118
11
0.5830538188976377
21
-0.5030276771653543
0
LINE
8
BLACK
6
CONTINUOUS
10
0.0324803149606299
20
-0.5049212598425197
11
0.0324803149606299
21
-1.0541338582677164
0
LINE
8
BLACK
6
CONTINUOUS
10
0.0324803149606299
20
-1.0541338582677164
11
0.5816929133858267
21
-1.0541338582677164
0
LINE
8
BLACK
6
CONTINUOUS
10
0.5816929133858267
20
-1.0541338582677164
11
0.5816929133858267
21
-0.5049212598425197
0
LINE
8
BLACK
6
CONTINUOUS
10
0.5816929133858267
20
-0.5049212598425197
11
0.0324803149606299
21
-0.5049212598425197
0
LINE
8
BLACK
6
CONTINUOUS
10
1.3310853149606299
20
-0.5030276771653543
11
1.3316179921259843
21
-0.5035603543307087
0
LINE
8
BLACK
6
CONTINUOUS
10
1.3316179921259843
20
-0.5035603543307087
11
1.3316929133858268
21
-0.5039370078740157
0
LINE
8
BLACK
6
CONTINUOUS
10
1.3316929133858268
20
-0.5039370078740157
11
1.3316929133858268
21
-1.0551181102362204
0
LINE
8
BLACK
6
CONTINUOUS
10
1.3316929133858268
20
-1.0551181102362204
11
1.3316179921259843
21
-1.0554947637795276
0
LINE
8
BLACK
6
CONTINUOUS
10
1.3316179921259843
20
-1.0554947637795276
11
1.3310853149606299
21
-1.0560274409448818
0
LINE
8
BLACK
6
CONTINUOUS
10
1.3310853149606299
20
-1.0560274409448818
11
1.3307086614173229
21
-1.0561023622047243
0
LINE
8
BLACK
6
CONTINUOUS
10
1.3307086614173229
20
-1.0561023622047243
11
0.7795275590551181
21
-1.0561023622047243
0
LINE
8
BLACK
6
CONTINUOUS
10
0.7795275590551181
20
-1.0561023622047243
11
0.779150905511811
21
-1.0560274409448818
0
LINE
8
BLACK
6
CONTINUOUS
10
0.779150905511811
20
-1.0560274409448818
11
0.7786182283464567
21
-1.0554947637795276
0
LINE
8
BLACK
6
CONTINUOUS
10
0.7786182283464567
20
-1.0554947637795276
11
0.7785433070866141
21
-1.0551181102362204
0
LINE
8
BLACK
6
CONTINUOUS
10
0.7785433070866141
20
-1.0551181102362204
11
0.7785433070866141
21
-0.5039370078740157
0
LINE
8
BLACK
6
CONTINUOUS
10
0.7785433070866141
20
-0.5039370078740157
11
0.7786182283464567
21
-0.5035603543307087
0
LINE
8
BLACK
6
CONTINUOUS
10
0.7786182283464567
20
-0.5035603543307087
11
0.779150905511811
21
-0.5030276771653543
0
LINE
8
BLACK
6
CONTINUOUS
10
0.779150905511811
20
-0.5030276771653543
11
0.7795275590551181
21
-0.5029527559055118
0
LINE
8
BLACK
6
CONTINUOUS
10
0.7795275590551181
20
-0.5029527559055118
11
1.3307086614173229
21
-0.5029527559055118
0
LINE
8
BLACK
6
CONTINUOUS
10
1.3307086614173229
20
-0.5029527559055118
11
1.3310853149606299
21
-0.5030276771653543
0
LINE
8
BLACK
6
CONTINUOUS
10
0.780511811023622
20
-0.5049212598425197
11
0.780511811023622
21
-1.0541338582677164
0
LINE
8
BLACK
6
CONTINUOUS
10
0.780511811023622
20
-1.0541338582677164
11
1.329724409448819
21
-1.0541338582677164
0
LINE
8
BLACK
6
CONTINUOUS
10
1.329724409448819
20
-1.0541338582677164
11
1.329724409448819
21
-0.5049212598425197
0
LINE
8
BLACK
6
CONTINUOUS
10
1.329724409448819
20
-0.5049212598425197
11
0.780511811023622
21
-0.5049212598425197
0
LINE
8
BLACK
6
CONTINUOUS
10
2.0869908267716535
20
-0.5030276771653543
11
2.0875235039370077
21
-0.5035603543307087
0
LINE
8
BLACK
6
CONTINUOUS
10
2.0875235039370077
20
-0.5035603543307087
11
2.0875984251968505
21
-0.5039370078740157
0
LINE
8
BLACK
6
CONTINUOUS
10
2.0875984251968505
20
-0.5039370078740157
11
2.0875984251968505
21
-1.0551181102362204
0
LINE
8
BLACK
6
CONTINUOUS
10
2.0875984251968505
20
-1.0551181102362204
11
2.0875235039370077
21
-1.0554947637795276
0
LINE
8
BLACK
6
CONTINUOUS
10
2.0875235039370077
20
-1.0554947637795276
11
2.0869908267716535
21
-1.0560274409448818
0
LINE
8
BLACK
6
CONTINUOUS
10
2.0869908267716535
20
-1.0560274409448818
11
2.0866141732283463
21
-1.0561023622047243
0
LINE
8
BLACK
6
CONTINUOUS
10
2.0866141732283463
20
-1.0561023622047243
11
1.5354330708661417
21
-1.0561023622047243
0
LINE
8
BLACK
6
CONTINUOUS
10
1.5354330708661417
20
-1.0561023622047243
11
1.5350564173228347
21
-1.0560274409448818
0
LINE
8
BLACK
6
CONTINUOUS
10
1.5350564173228347
20
-1.0560274409448818
11
1.5345237401574803
21
-1.0554947637795276
0
LINE
8
BLACK
6
CONTINUOUS
10
1.5345237401574803
20
-1.0554947637795276
11
1.5344488188976377
21
-1.0551181102362204
0
LINE
8
BLACK
6
CONTINUOUS
10
1.5344488188976377
20
-1.0551181102362204
11
1.5344488188976377
21
-0.5039370078740157
0
LINE
8
BLACK
6
CONTINUOUS
10
1.5344488188976377
20
-0.5039370078740157
11
1.5345237401574803
21
-0.5035603543307087
0
LINE
8
BLACK
6
CONTINUOUS
10
1.5345237401574803
20
-0.5035603543307087
11
1.5350564173228347
21
-0.5030276771653543
0
LINE
8
BLACK
6
CONTINUOUS
10
1.5350564173228347
20
-0.5030276771653543
11
1.5354330708661417
21
-0.5029527559055118
0
LINE
8
BLACK
6
CONTINUOUS
10
1.5354330708661417
20
-0.5029527559055118
11
2.0866141732283463
21
-0.5029527559055118
0
LINE
8
BLACK
6
CONTINUOUS
10
2.0866141732283463
20
-0.5029527559055118
11
2.0869908267716535
21
-0.5030276771653543
0
LINE
8
BLACK
6
CONTINUOUS
10
1.5364173228346456
20
-0.5049212598425197
11
1.5364173228346456
21
-1.0541338582677164
0
LINE
8
BLACK
6
CONTINUOUS
10
1.5364173228346456
20
-1.0541338582677164
11
2.0856299212598426
21
-1.0541338582677164
0
LINE
8
BLACK
6
CONTINUOUS
10
2.0856299212598426
20
-1.0541338582677164
11
2.0856299212598426
21
-0.5049212598425197
0
LINE
8
BLACK
6
CONTINUOUS
10
2.0856299212598426
20
-0.5049212598425197
11
1.5364173228346456
21
-0.5049212598425197
0
LINE
8
BLACK
6
CONTINUOUS
10
2.8389593307086614
20
-0.5030276771653543
11
2.8394920078740156
21
-0.5035603543307087
0
LINE
8
BLACK
6
CONTINUOUS
10
2.8394920078740156
20
-0.5035603543307087
11
2.8395669291338583
21
-0.5039370078740157
0
LINE
8
BLACK
6
CONTINUOUS
10
2.8395669291338583
20
-0.5039370078740157
11
2.8395669291338583
21
-1.0551181102362204
0
LINE
8
BLACK
6
CONTINUOUS
10
2.8395669291338583
20
-1.0551181102362204
11
2.8394920078740156
21
-1.0554947637795276
0
LINE
8
BLACK
6
CONTINUOUS
10
2.8394920078740156
20
-1.0554947637795276
11
2.8389593307086614
21
-1.0560274409448818
0
LINE
8
BLACK
6
CONTINUOUS
10
2.8389593307086614
20
-1.0560274409448818
11
2.8385826771653542
21
-1.0561023622047243
0
LINE
8
BLACK
6
CONTINUOUS
10
2.8385826771653542
20
-1.0561023622047243
11
2.2874015748031495
21
-1.0561023622047243
0
LINE
8
BLACK
6
CONTINUOUS
10
2.2874015748031495
20
-1.0561023622047243
11
2.2870249212598424
21
-1.0560274409448818
0
LINE
8
BLACK
6
CONTINUOUS
10
2.2870249212598424
20
-1.0560274409448818
11
2.2864922440944881
21
-1.0554947637795276
0
LINE
8
BLACK
6
CONTINUOUS
10
2.2864922440944881
20
-1.0554947637795276
11
2.2864173228346458
21
-1.0551181102362204
0
LINE
8
BLACK
6
CONTINUOUS
10
2.2864173228346458
20
-1.0551181102362204
11
2.2864173228346458
21
-0.5039370078740157
0
LINE
8
BLACK
6
CONTINUOUS
10
2.2864173228346458
20
-0.5039370078740157
11
2.2864922440944881
21
-0.5035603543307087
0
LINE
8
BLACK
6
CONTINUOUS
10
2.2864922440944881
20
-0.5035603543307087
11
2.2870249212598424
21
-0.5030276771653543
0
LINE
8
BLACK
6
CONTINUOUS
10
2.2870249212598424
20
-0.5030276771653543
11
2.2874015748031495
21
-0.5029527559055118
0
LINE
8
BLACK
6
CONTINUOUS
10
2.2874015748031495
20
-0.5029527559055118
11
2.8385826771653542
21
-0.5029527559055118
0
LINE
8
BLACK
6
CONTINUOUS
10
2.8385826771653542
20
-0.5029527559055118
11
2.8389593307086614
21
-0.5030276771653543
0
LINE
8
BLACK
6
CONTINUOUS
10
2.2883858267716537
20
-0.5049212598425197
11
2.2883858267716537
21
-1.0541338582677164
0
LINE
8
BLACK
6
CONTINUOUS
10
2.2883858267716537
20
-1.0541338582677164
11
2.8375984251968505
21
-1.0541338582677164
0
LINE
8
BLACK
6
CONTINUOUS
10
2.8375984251968505
20
-1.0541338582677164
11
2.8375984251968505
21
-0.5049212598425197
0
LINE
8
BLACK
6
CONTINUOUS
10
2.8375984251968505
20
-0.5049212598425197
11
2.2883858267716537
21
-0.5049212598425197
0
LINE
8
BLACK
6
CONTINUOUS
10
4.3389593307086614
20
-0.5030276771653543
11
4.339492007874016
21
-0.5035603543307087
0
LINE
8
BLACK
6
CONTINUOUS
10
4.339492007874016
20
-0.5035603543307087
11
4.3395669291338583
21
-0.5039370078740157
0
LINE
8
BLACK
6
CONTINUOUS
10
4.3395669291338583
20
-0.5039370078740157
11
4.3395669291338583
21
-1.0551181102362204
0
LINE
8
BLACK
6
CONTINUOUS
10
4.3395669291338583
20
-1.0551181102362204
11
4.339492007874016
21
-1.0554947637795276
0
LINE
8
BLACK
6
CONTINUOUS
10
4.339492007874016
20
-1.0554947637795276
11
4.3389593307086614
21
-1.0560274409448818
0
LINE
8
BLACK
6
CONTINUOUS
10
4.3389593307086614
20
-1.0560274409448818
11
4.3385826771653546
21
-1.0561023622047243
0
LINE
8
BLACK
6
CONTINUOUS
10
4.3385826771653546
20
-1.0561023622047243
11
3.7874015748031495
21
-1.0561023622047243
0
LINE
8
BLACK
6
CONTINUOUS
10
3.7874015748031495
20
-1.0561023622047243
11
3.7870249212598424
21
-1.0560274409448818
0
LINE
8
BLACK
6
CONTINUOUS
10
3.7870249212598424
20
-1.0560274409448818
11
3.7864922440944881
21
-1.0554947637795276
0
LINE
8
BLACK
6
CONTINUOUS
10
3.7864922440944881
20
-1.0554947637795276
11
3.7864173228346454
21
-1.0551181102362204
0
LINE
8
BLACK
6
CONTINUOUS
10
3.7864173228346454
20
-1.0551181102362204
11
3.7864173228346454
21
-0.5039370078740157
0
LINE
8
BLACK
6
CONTINUOUS
10
3.7864173228346454
20
-0.5039370078740157
11
3.7864922440944881
21
-0.5035603543307087
0
LINE
8
BLACK
6
CONTINUOUS
10
3.7864922440944881
20
-0.5035603543307087
11
3.7870249212598424
21
-0.5030276771653543
0
LINE
8
BLACK
6
CONTINUOUS
10
3.7870249212598424
20
-0.5030276771653543
11
3.7874015748031495
21
-0.5029527559055118
0
LINE
8
BLACK
6
CONTINUOUS
10
3.7874015748031495
20
-0.5029527559055118
11
4.3385826771653546
21
-0.5029527559055118
0
LINE
8
BLACK
6
CONTINUOUS
10
4.3385826771653546
20
-0.5029527559055118
11
4.3389593307086614
21
-0.5030276771653543
0
LINE
8
BLACK
6
CONTINUOUS
10
3.7883858267716533
20
-0.5049212598425197
11
3.7883858267716533
21
-1.0541338582677164
0
LINE
8
BLACK
6
CONTINUOUS
10
3.7883858267716533
20
-1.0541338582677164
11
4.33759842519685
21
-1.0541338582677164
0
LINE
8
BLACK
6
CONTINUOUS
10
4.33759842519685
20
-1.0541338582677164
11
4.33759842519685
21
-0.5049212598425197
0
LINE
8
BLACK
6
CONTINUOUS
10
4.33759842519685
20
-0.5049212598425197
11
3.7883858267716533
21
-0.5049212598425197
0
LINE
8
BLACK
6
CONTINUOUS
10
5.086990826771653
20
-0.5030276771653543
11
5.0875235039370077
21
-0.5035603543307087
0
LINE
8
BLACK
6
CONTINUOUS
10
5.0875235039370077
20
-0.5035603543307087
11
5.08759842519685
21
-0.5039370078740157
0
LINE
8
BLACK
6
CONTINUOUS
10
5.08759842519685
20
-0.5039370078740157
11
5.08759842519685
21
-1.0551181102362204
0
LINE
8
BLACK
6
CONTINUOUS
10
5.08759842519685
20
-1.0551181102362204
11
5.0875235039370077
21
-1.0554947637795276
0
LINE
8
BLACK
6
CONTINUOUS
10
5.0875235039370077
20
-1.0554947637795276
11
5.086990826771653
21
-1.0560274409448818
0
LINE
8
BLACK
6
CONTINUOUS
10
5.086990826771653
20
-1.0560274409448818
11
5.0866141732283463
21
-1.0561023622047243
0
LINE
8
BLACK
6
CONTINUOUS
10
5.0866141732283463
20
-1.0561023622047243
11
4.5354330708661417
21
-1.0561023622047243
0
LINE
8
BLACK
6
CONTINUOUS
10
4.5354330708661417
20
-1.0561023622047243
11
4.5350564173228349
21
-1.0560274409448818
0
LINE
8
BLACK
6
CONTINUOUS
10
4.5350564173228349
20
-1.0560274409448818
11
4.5345237401574803
21
-1.0554947637795276
0
LINE
8
BLACK
6
CONTINUOUS
10
4.5345237401574803
20
-1.0554947637795276
11
4.534448818897638
21
-1.0551181102362204
0
LINE
8
BLACK
6
CONTINUOUS
10
4.534448818897638
20
-1.0551181102362204
11
4.534448818897638
21
-0.5039370078740157
0
LINE
8
BLACK
6
CONTINUOUS
10
4.534448818897638
20
-0.5039370078740157
11
4.5345237401574803
21
-0.5035603543307087
0
LINE
8
BLACK
6
CONTINUOUS
10
4.5345237401574803
20
-0.5035603543307087
11
4.5350564173228349
21
-0.5030276771653543
0
LINE
8
BLACK
6
CONTINUOUS
10
4.5350564173228349
20
-0.5030276771653543
11
4.5354330708661417
21
-0.5029527559055118
0
LINE
8
BLACK
6
CONTINUOUS
10
4.5354330708661417
20
-0.5029527559055118
11
5.0866141732283463
21
-0.5029527559055118
0
LINE
8
BLACK
6
CONTINUOUS
10
5.0866141732283463
20
-0.5029527559055118
11
5.086990826771653
21
-0.5030276771653543
0
LINE
8
BLACK
6
CONTINUOUS
10
4.5364173228346454
20
-0.5049212598425197
11
4.5364173228346454
21
-1.0541338582677164
0
LINE
8
BLACK
6
CONTINUOUS
10
4.5364173228346454
20
-1.0541338582677164
11
5.0856299212598426
21
-1.0541338582677164
0
LINE
8
BLACK
6
CONTINUOUS
10
5.0856299212598426
20
-1.0541338582677164
11
5.0856299212598426
21
-0.5049212598425197
0
LINE
8
BLACK
6
CONTINUOUS
10
5.0856299212598426
20
-0.5049212598425197
11
4.5364173228346454
21
-0.5049212598425197
0
LINE
8
BLACK
6
CONTINUOUS
10
5.8389593307086614
20
-0.5030276771653543
11
5.839492007874016
21
-0.5035603543307087
0
LINE
8
BLACK
6
CONTINUOUS
10
5.839492007874016
20
-0.5035603543307087
11
5.8395669291338583
21
-0.5039370078740157
0
LINE
8
BLACK
6
CONTINUOUS
10
5.8395669291338583
20
-0.5039370078740157
11
5.8395669291338583
21
-1.0551181102362204
0
LINE
8
BLACK
6
CONTINUOUS
10
5.8395669291338583
20
-1.0551181102362204
11
5.839492007874016
21
-1.0554947637795276
0
LINE
8
BLACK
6
CONTINUOUS
10
5.839492007874016
20
-1.0554947637795276
11
5.8389593307086614
21
-1.0560274409448818
0
LINE
8
BLACK
6
CONTINUOUS
10
5.8389593307086614
20
-1.0560274409448818
11
5.8385826771653546
21
-1.0561023622047243
0
LINE
8
BLACK
6
CONTINUOUS
10
5.8385826771653546
20
-1.0561023622047243
11
5.2874015748031491
21
-1.0561023622047243
0
LINE
8
BLACK
6
CONTINUOUS
10
5.2874015748031491
20
-1.0561023622047243
11
5.2870249212598424
21
-1.0560274409448818
0
LINE
8
BLACK
6
CONTINUOUS
10
5.2870249212598424
20
-1.0560274409448818
11
5.2864922440944877
21
-1.0554947637795276
0
LINE
8
BLACK
6
CONTINUOUS
10
5.2864922440944877
20
-1.0554947637795276
11
5.2864173228346454
21
-1.0551181102362204
0
LINE
8
BLACK
6
CONTINUOUS
10
5.2864173228346454
20
-1.0551181102362204
11
5.2864173228346454
21
-0.5039370078740157
0
LINE
8
BLACK
6
CONTINUOUS
10
5.2864173228346454
20
-0.5039370078740157
11
5.2864922440944877
21
-0.5035603543307087
0
LINE
8
BLACK
6
CONTINUOUS
10
5.2864922440944877
20
-0.5035603543307087
11
5.2870249212598424
21
-0.5030276771653543
0
LINE
8
BLACK
6
CONTINUOUS
10
5.2870249212598424
20
-0.5030276771653543
11
5.2874015748031491
21
-0.5029527559055118
0
LINE
8
BLACK
6
CONTINUOUS
10
5.2874015748031491
20
-0.5029527559055118
11
5.8385826771653546
21
-0.5029527559055118
0
LINE
8
BLACK
6
CONTINUOUS
10
5.8385826771653546
20
-0.5029527559055118
11
5.8389593307086614
21
-0.5030276771653543
0
LINE
8
BLACK
6
CONTINUOUS
10
5.2883858267716537
20
-0.5049212598425197
11
5.2883858267716537
21
-1.0541338582677164
0
LINE
8
BLACK
6
CONTINUOUS
10
5.2883858267716537
20
-1.0541338582677164
11
5.83759842519685
21
-1.0541338582677164
0
LINE
8
BLACK
6
CONTINUOUS
10
5.83759842519685
20
-1.0541338582677164
11
5.83759842519685
21
-0.5049212598425197
0
LINE
8
BLACK
6
CONTINUOUS
10
5.83759842519685
20
-0.5049212598425197
11
5.2883858267716537
21
-0.5049212598425197
0
LINE
8
BLACK
6
CONTINUOUS
10
6.586990826771653
20
-0.5030276771653543
11
6.5875235039370077
21
-0.5035603543307087
0
LINE
8
BLACK
6
CONTINUOUS
10
6.5875235039370077
20
-0.5035603543307087
11
6.58759842519685
21
-0.5039370078740157
0
LINE
8
BLACK
6
CONTINUOUS
10
6.58759842519685
20
-0.5039370078740157
11
6.58759842519685
21
-1.0551181102362204
0
LINE
8
BLACK
6
CONTINUOUS
10
6.58759842519685
20
-1.0551181102362204
11
6.5875235039370077
21
-1.0554947637795276
0
LINE
8
BLACK
6
CONTINUOUS
10
6.5875235039370077
20
-1.0554947637795276
11
6.586990826771653
21
-1.0560274409448818
0
LINE
8
BLACK
6
CONTINUOUS
10
6.586990826771653
20
-1.0560274409448818
11
6.5866141732283463
21
-1.0561023622047243
0
LINE
8
BLACK
6
CONTINUOUS
10
6.5866141732283463
20
-1.0561023622047243
11
6.0354330708661417
21
-1.0561023622047243
0
LINE
8
BLACK
6
CONTINUOUS
10
6.0354330708661417
20
-1.0561023622047243
11
6.0350564173228349
21
-1.0560274409448818
0
LINE
8
BLACK
6
CONTINUOUS
10
6.0350564173228349
20
-1.0560274409448818
11
6.0345237401574803
21
-1.0554947637795276
0
LINE
8
BLACK
6
CONTINUOUS
10
6.0345237401574803
20
-1.0554947637795276
11
6.034448818897638
21
-1.0551181102362204
0
LINE
8
BLACK
6
CONTINUOUS
10
6.034448818897638
20
-1.0551181102362204
11
6.034448818897638
21
-0.5039370078740157
0
LINE
8
BLACK
6
CONTINUOUS
10
6.034448818897638
20
-0.5039370078740157
11
6.0345237401574803
21
-0.5035603543307087
0
LINE
8
BLACK
6
CONTINUOUS
10
6.0345237401574803
20
-0.5035603543307087
11
6.0350564173228349
21
-0.5030276771653543
0
LINE
8
BLACK
6
CONTINUOUS
10
6.0350564173228349
20
-0.5030276771653543
11
6.0354330708661417
21
-0.5029527559055118
0
LINE
8
BLACK
6
CONTINUOUS
10
6.0354330708661417
20
-0.5029527559055118
11
6.5866141732283463
21
-0.5029527559055118
0
LINE
8
BLACK
6
CONTINUOUS
10
6.5866141732283463
20
-0.5029527559055118
11
6.586990826771653
21
-0.5030276771653543
0
LINE
8
BLACK
6
CONTINUOUS
10
6.0364173228346454
20
-0.5049212598425197
11
6.0364173228346454
21
-1.0541338582677164
0
LINE
8
BLACK
6
CONTINUOUS
10
6.0364173228346454
20
-1.0541338582677164
11
6.5856299212598426
21
-1.0541338582677164
0
LINE
8
BLACK
6
CONTINUOUS
10
6.5856299212598426
20
-1.0541338582677164
11
6.5856299212598426
21
-0.5049212598425197
0
LINE
8
BLACK
6
CONTINUOUS
10
6.5856299212598426
20
-0.5049212598425197
11
6.0364173228346454
21
-0.5049212598425197
0
LINE
8
BLACK
6
CONTINUOUS
10
7.3389593307086614
20
-0.5030276771653543
11
7.339492007874016
21
-0.5035603543307087
0
LINE
8
BLACK
6
CONTINUOUS
10
7.339492007874016
20
-0.5035603543307087
11
7.3395669291338583
21
-0.5039370078740157
0
LINE
8
BLACK
6
CONTINUOUS
10
7.3395669291338583
20
-0.5039370078740157
11
7.3395669291338583
21
-1.0551181102362204
0
LINE
8
BLACK
6
CONTINUOUS
10
7.3395669291338583
20
-1.0551181102362204
11
7.339492007874016
21
-1.0554947637795276
0
LINE
8
BLACK
6
CONTINUOUS
10
7.339492007874016
20
-1.0554947637795276
11
7.3389593307086614
21
-1.0560274409448818
0
LINE
8
BLACK
6
CONTINUOUS
10
7.3389593307086614
20
-1.0560274409448818
11
7.3385826771653537
21
-1.0561023622047243
0
LINE
8
BLACK
6
CONTINUOUS
10
7.3385826771653537
20
-1.0561023622047243
11
6.7874015748031491
21
-1.0561023622047243
0
LINE
8
BLACK
6
CONTINUOUS
10
6.7874015748031491
20
-1.0561023622047243
11
6.7870249212598424
21
-1.0560274409448818
0
LINE
8
BLACK
6
CONTINUOUS
10
6.7870249212598424
20
-1.0560274409448818
11
6.7864922440944877
21
-1.0554947637795276
0
LINE
8
BLACK
6
CONTINUOUS
10
6.7864922440944877
20
-1.0554947637795276
11
6.7864173228346454
21
-1.0551181102362204
0
LINE
8
BLACK
6
CONTINUOUS
10
6.7864173228346454
20
-1.0551181102362204
11
6.7864173228346454
21
-0.5039370078740157
0
LINE
8
BLACK
6
CONTINUOUS
10
6.7864173228346454
20
-0.5039370078740157
11
6.7864922440944877
21
-0.5035603543307087
0
LINE
8
BLACK
6
CONTINUOUS
10
6.7864922440944877
20
-0.5035603543307087
11
6.7870249212598424
21
-0.5030276771653543
0
LINE
8
BLACK
6
CONTINUOUS
10
6.7870249212598424
20
-0.5030276771653543
11
6.7874015748031491
21
-0.5029527559055118
0
LINE
8
BLACK
6
CONTINUOUS
10
6.7874015748031491
20
-0.5029527559055118
11
7.3385826771653537
21
-0.5029527559055118
0
LINE
8
BLACK
6
CONTINUOUS
10
7.3385826771653537
20
-0.5029527559055118
11
7.3389593307086614
21
-0.5030276771653543
0
LINE
8
BLACK
6
CONTINUOUS
10
6.7883858267716537
20
-0.5049212598425197
11
6.7883858267716537
21
-1.0541338582677164
0
LINE
8
BLACK
6
CONTINUOUS
10
6.7883858267716537
20
-1.0541338582677164
11
7.33759842519685
21
-1.0541338582677164
0
LINE
8
BLACK
6
CONTINUOUS
10
7.33759842519685
20
-1.0541338582677164
11
7.33759842519685
21
-0.5049212598425197
0
LINE
8
BLACK
6
CONTINUOUS
10
7.33759842519685
20
-0.5049212598425197
11
6.7883858267716537
21
-0.5049212598425197
0
LINE
8
BLACK
6
CONTINUOUS
10
8.0869908267716539
20
-0.5030276771653543
11
8.0875235039370068
21
-0.5035603543307087
0
LINE
8
BLACK
6
CONTINUOUS
10
8.0875235039370068
20
-0.5035603543307087
11
8.08759842519685
21
-0.5039370078740157
0
LINE
8
BLACK
6
CONTINUOUS
10
8.08759842519685
20
-0.5039370078740157
11
8.08759842519685
21
-1.0551181102362204
0
LINE
8
BLACK
6
CONTINUOUS
10
8.08759842519685
20
-1.0551181102362204
11
8.0875235039370068
21
-1.0554947637795276
0
LINE
8
BLACK
6
CONTINUOUS
10
8.0875235039370068
20
-1.0554947637795276
11
8.0869908267716539
21
-1.0560274409448818
0
LINE
8
BLACK
6
CONTINUOUS
10
8.0869908267716539
20
-1.0560274409448818
11
8.0866141732283463
21
-1.0561023622047243
0
LINE
8
BLACK
6
CONTINUOUS
10
8.0866141732283463
20
-1.0561023622047243
11
7.5354330708661417
21
-1.0561023622047243
0
LINE
8
BLACK
6
CONTINUOUS
10
7.5354330708661417
20
-1.0561023622047243
11
7.535056417322834
21
-1.0560274409448818
0
LINE
8
BLACK
6
CONTINUOUS
10
7.535056417322834
20
-1.0560274409448818
11
7.5345237401574803
21
-1.0554947637795276
0
LINE
8
BLACK
6
CONTINUOUS
10
7.5345237401574803
20
-1.0554947637795276
11
7.534448818897638
21
-1.0551181102362204
0
LINE
8
BLACK
6
CONTINUOUS
10
7.534448818897638
20
-1.0551181102362204
11
7.534448818897638
21
-0.5039370078740157
0
LINE
8
BLACK
6
CONTINUOUS
10
7.534448818897638
20
-0.5039370078740157
11
7.5345237401574803
21
-0.5035603543307087
0
LINE
8
BLACK
6
CONTINUOUS
10
7.5345237401574803
20
-0.5035603543307087
11
7.535056417322834
21
-0.5030276771653543
0
LINE
8
BLACK
6
CONTINUOUS
10
7.535056417322834
20
-0.5030276771653543
11
7.5354330708661417
21
-0.5029527559055118
0
LINE
8
BLACK
6
CONTINUOUS
10
7.5354330708661417
20
-0.5029527559055118
11
8.0866141732283463
21
-0.5029527559055118
0
LINE
8
BLACK
6
CONTINUOUS
10
8.0866141732283463
20
-0.5029527559055118
11
8.0869908267716539
21
-0.5030276771653543
0
LINE
8
BLACK
6
CONTINUOUS
10
7.5364173228346454
20
-0.5049212598425197
11
7.5364173228346454
21
-1.0541338582677164
0
LINE
8
BLACK
6
CONTINUOUS
10
7.5364173228346454
20
-1.0541338582677164
11
8.0856299212598426
21
-1.0541338582677164
0
LINE
8
BLACK
6
CONTINUOUS
10
8.0856299212598426
20
-1.0541338582677164
11
8.0856299212598426
21
-0.5049212598425197
0
LINE
8
BLACK
6
CONTINUOUS
10
8.0856299212598426
20
-0.5049212598425197
11
7.5364173228346454
21
-0.5049212598425197
0
LINE
8
BLACK
6
CONTINUOUS
10
8.8389593307086614
20
-0.5030276771653543
11
8.839492007874016
21
-0.5035603543307087
0
LINE
8
BLACK
6
CONTINUOUS
10
8.839492007874016
20
-0.5035603543307087
11
8.8395669291338574
21
-0.5039370078740157
0
LINE
8
BLACK
6
CONTINUOUS
10
8.8395669291338574
20
-0.5039370078740157
11
8.8395669291338574
21
-1.0551181102362204
0
LINE
8
BLACK
6
CONTINUOUS
10
8.8395669291338574
20
-1.0551181102362204
11
8.839492007874016
21
-1.0554947637795276
0
LINE
8
BLACK
6
CONTINUOUS
10
8.839492007874016
20
-1.0554947637795276
11
8.8389593307086614
21
-1.0560274409448818
0
LINE
8
BLACK
6
CONTINUOUS
10
8.8389593307086614
20
-1.0560274409448818
11
8.8385826771653537
21
-1.0561023622047243
0
LINE
8
BLACK
6
CONTINUOUS
10
8.8385826771653537
20
-1.0561023622047243
11
8.28740157480315
21
-1.0561023622047243
0
LINE
8
BLACK
6
CONTINUOUS
10
8.28740157480315
20
-1.0561023622047243
11
8.2870249212598424
21
-1.0560274409448818
0
LINE
8
BLACK
6
CONTINUOUS
10
8.2870249212598424
20
-1.0560274409448818
11
8.2864922440944877
21
-1.0554947637795276
0
LINE
8
BLACK
6
CONTINUOUS
10
8.2864922440944877
20
-1.0554947637795276
11
8.2864173228346463
21
-1.0551181102362204
0
LINE
8
BLACK
6
CONTINUOUS
10
8.2864173228346463
20
-1.0551181102362204
11
8.2864173228346463
21
-0.5039370078740157
0
LINE
8
BLACK
6
CONTINUOUS
10
8.2864173228346463
20
-0.5039370078740157
11
8.2864922440944877
21
-0.5035603543307087
0
LINE
8
BLACK
6
CONTINUOUS
10
8.2864922440944877
20
-0.5035603543307087
11
8.2870249212598424
21
-0.5030276771653543
0
LINE
8
BLACK
6
CONTINUOUS
10
8.2870249212598424
20
-0.5030276771653543
11
8.28740157480315
21
-0.5029527559055118
0
LINE
8
BLACK
6
CONTINUOUS
10
8.28740157480315
20
-0.5029527559055118
11
8.8385826771653537
21
-0.5029527559055118
0
LINE
8
BLACK
6
CONTINUOUS
10
8.8385826771653537
20
-0.5029527559055118
11
8.8389593307086614
21
-0.5030276771653543
0
LINE
8
BLACK
6
CONTINUOUS
10
8.2883858267716537
20
-0.5049212598425197
11
8.2883858267716537
21
-1.0541338582677164
0
LINE
8
BLACK
6
CONTINUOUS
10
8.2883858267716537
20
-1.0541338582677164
11
8.83759842519685
21
-1.0541338582677164
0
LINE
8
BLACK
6
CONTINUOUS
10
8.83759842519685
20
-1.0541338582677164
11
8.83759842519685
21
-0.5049212598425197
0
LINE
8
BLACK
6
CONTINUOUS
10
8.83759842519685
20
-0.5049212598425197
11
8.2883858267716537
21
-0.5049212598425197
0
LINE
8
BLACK
6
CONTINUOUS
10
9.5869908267716539
20
-0.5030276771653543
11
9.5875235039370068
21
-0.5035603543307087
0
LINE
8
BLACK
6
CONTINUOUS
10
9.5875235039370068
20
-0.5035603543307087
11
9.58759842519685
21
-0.5039370078740157
0
LINE
8
BLACK
6
CONTINUOUS
10
9.58759842519685
20
-0.5039370078740157
11
9.58759842519685
21
-1.0551181102362204
0
LINE
8
BLACK
6
CONTINUOUS
10
9.58759842519685
20
-1.0551181102362204
11
9.5875235039370068
21
-1.0554947637795276
0
LINE
8
BLACK
6
CONTINUOUS
10
9.5875235039370068
20
-1.0554947637795276
11
9.5869908267716539
21
-1.0560274409448818
0
LINE
8
BLACK
6
CONTINUOUS
10
9.5869908267716539
20
-1.0560274409448818
11
9.5866141732283463
21
-1.0561023622047243
0
LINE
8
BLACK
6
CONTINUOUS
10
9.5866141732283463
20
-1.0561023622047243
11
9.0354330708661408
21
-1.0561023622047243
0
LINE
8
BLACK
6
CONTINUOUS
10
9.0354330708661408
20
-1.0561023622047243
11
9.0350564173228349
21
-1.0560274409448818
0
LINE
8
BLACK
6
CONTINUOUS
10
9.0350564173228349
20
-1.0560274409448818
11
9.0345237401574803
21
-1.0554947637795276
0
LINE
8
BLACK
6
CONTINUOUS
10
9.0345237401574803
20
-1.0554947637795276
11
9.0344488188976371
21
-1.0551181102362204
0
LINE
8
BLACK
6
CONTINUOUS
10
9.0344488188976371
20
-1.0551181102362204
11
9.0344488188976371
21
-0.5039370078740157
0
LINE
8
BLACK
6
CONTINUOUS
10
9.0344488188976371
20
-0.5039370078740157
11
9.0345237401574803
21
-0.5035603543307087
0
LINE
8
BLACK
6
CONTINUOUS
10
9.0345237401574803
20
-0.5035603543307087
11
9.0350564173228349
21
-0.5030276771653543
0
LINE
8
BLACK
6
CONTINUOUS
10
9.0350564173228349
20
-0.5030276771653543
11
9.0354330708661408
21
-0.5029527559055118
0
LINE
8
BLACK
6
CONTINUOUS
10
9.0354330708661408
20
-0.5029527559055118
11
9.5866141732283463
21
-0.5029527559055118
0
LINE
8
BLACK
6
CONTINUOUS
10
9.5866141732283463
20
-0.5029527559055118
11
9.5869908267716539
21
-0.5030276771653543
0
LINE
8
BLACK
6
CONTINUOUS
10
9.0364173228346463
20
-0.5049212598425197
11
9.0364173228346463
21
-1.0541338582677164
0
LINE
8
BLACK
6
CONTINUOUS
10
9.0364173228346463
20
-1.0541338582677164
11
9.5856299212598426
21
-1.0541338582677164
0
LINE
8
BLACK
6
CONTINUOUS
10
9.5856299212598426
20
-1.0541338582677164
11
9.5856299212598426
21
-0.5049212598425197
0
LINE
8
BLACK
6
CONTINUOUS
10
9.5856299212598426
20
-0.5049212598425197
11
9.0364173228346463
21
-0.5049212598425197
0
LINE
8
BLACK
6
CONTINUOUS
10
0.0360494488188976
20
-0.2296845275590551
11
0.0427929133858268
21
-0.2318755905511811
0
LINE
8
BLACK
6
CONTINUOUS
10
0.0427929133858268
20
-0.2318755905511811
11
0.0491106299212598
21
-0.2350946456692913
0
LINE
8
BLACK
6
CONTINUOUS
10
0.0491106299212598
20
-0.2350946456692913
11
0.054846968503937
21
-0.2392623228346457
0
LINE
8
BLACK
6
CONTINUOUS
10
0.054846968503937
20
-0.2392623228346457
11
0.0598607086614173
21
-0.244276062992126
0
LINE
8
BLACK
6
CONTINUOUS
10
0.0598607086614173
20
-0.244276062992126
11
0.0640283858267717
21
-0.2500124015748031
0
LINE
8
BLACK
6
CONTINUOUS
10
0.0640283858267717
20
-0.2500124015748031
11
0.0672474409448819
21
-0.2563301181102362
0
LINE
8
BLACK
6
CONTINUOUS
10
0.0672474409448819
20
-0.2563301181102362
11
0.0694385039370079
21
-0.2630735826771654
0
LINE
8
BLACK
6
CONTINUOUS
10
0.0694385039370079
20
-0.2630735826771654
11
0.0705477165354331
21
-0.270076811023622
0
LINE
8
BLACK
6
CONTINUOUS
10
0.0705477165354331
20
-0.270076811023622
11
0.0705477165354331
21
-0.2771672834645669
0
LINE
8
BLACK
6
CONTINUOUS
10
0.0705477165354331
20
-0.2771672834645669
11
0.0694385039370079
21
-0.2841705118110236
0
LINE
8
BLACK
6
CONTINUOUS
10
0.0694385039370079
20
-0.2841705118110236
11
0.0672474409448819
21
-0.2909139763779527
0
LINE
8
BLACK
6
CONTINUOUS
10
0.0672474409448819
20
-0.2909139763779527
11
0.0640283858267717
21
-0.2972316929133858
0
LINE
8
BLACK
6
CONTINUOUS
10
0.0640283858267717
20
-0.2972316929133858
11
0.0598607086614173
21
-0.302968031496063
0
LINE
8
BLACK
6
CONTINUOUS
10
0.0598607086614173
20
-0.302968031496063
11
0.054846968503937
21
-0.3079817716535433
0
LINE
8
BLACK
6
CONTINUOUS
10
0.054846968503937
20
-0.3079817716535433
11
0.0491106299212598
21
-0.3121494488188976
0
LINE
8
BLACK
6
CONTINUOUS
10
0.0491106299212598
20
-0.3121494488188976
11
0.0427929133858268
21
-0.3153685039370079
0
LINE
8
BLACK
6
CONTINUOUS
10
0.0427929133858268
20
-0.3153685039370079
11
0.0360494488188976
21
-0.3175595669291338
0
LINE
8
BLACK
6
CONTINUOUS
10
0.0360494488188976
20
-0.3175595669291338
11
0.0290462204724409
21
-0.3186687795275591
0
LINE
8
BLACK
6
CONTINUOUS
10
0.0290462204724409
20
-0.3186687795275591
11
0.0219557480314961
21
-0.3186687795275591
0
LINE
8
BLACK
6
CONTINUOUS
10
0.0219557480314961
20
-0.3186687795275591
11
0.0149525196850394
21
-0.3175595669291338
0
LINE
8
BLACK
6
CONTINUOUS
10
0.0149525196850394
20
-0.3175595669291338
11
0.0082090551181102
21
-0.3153685039370079
0
LINE
8
BLACK
6
CONTINUOUS
10
0.0082090551181102
20
-0.3153685039370079
11
0.0018913385826772
21
-0.3121494488188976
0
LINE
8
BLACK
6
CONTINUOUS
10
0.0018913385826772
20
-0.3121494488188976
11
-0.003845
21
-0.3079817716535433
0
LINE
8
BLACK
6
CONTINUOUS
10
-0.003845
20
-0.3079817716535433
11
-0.0088587401574803
21
-0.302968031496063
0
LINE
8
BLACK
6
CONTINUOUS
10
-0.0088587401574803
20
-0.302968031496063
11
-0.0130264173228346
21
-0.2972316929133858
0
LINE
8
BLACK
6
CONTINUOUS
10
-0.0130264173228346
20
-0.2972316929133858
11
-0.0162454724409449
21
-0.2909139763779527
0
LINE
8
BLACK
6
CONTINUOUS
10
-0.0162454724409449
20
-0.2909139763779527
11
-0.0184365354330709
21
-0.2841705118110236
0
LINE
8
BLACK
6
CONTINUOUS
10
-0.0184365354330709
20
-0.2841705118110236
11
-0.0195457480314961
21
-0.2771672834645669
0
LINE
8
BLACK
6
CONTINUOUS
10
-0.0195457480314961
20
-0.2771672834645669
11
-0.0195457480314961
21
-0.270076811023622
0
LINE
8
BLACK
6
CONTINUOUS
10
-0.0195457480314961
20
-0.270076811023622
11
-0.0194637795275591
21
-0.2695593700787401
0
LINE
8
BLACK
6
CONTINUOUS
10
-0.0194637795275591
20
-0.2695593700787401
11
-0.0184365354330709
21
-0.2630735826771654
0
LINE
8
BLACK
6
CONTINUOUS
10
-0.0184365354330709
20
-0.2630735826771654
11
-0.0162454724409449
21
-0.2563301181102362
0
LINE
8
BLACK
6
CONTINUOUS
10
-0.0162454724409449
20
-0.2563301181102362
11
-0.0130264173228346
21
-0.2500124015748031
0
LINE
8
BLACK
6
CONTINUOUS
10
-0.0130264173228346
20
-0.2500124015748031
11
-0.0088587401574803
21
-0.244276062992126
0
LINE
8
BLACK
6
CONTINUOUS
10
-0.0088587401574803
20
-0.244276062992126
11
-0.003845
21
-0.2392623228346457
0
LINE
8
BLACK
6
CONTINUOUS
10
-0.003845
20
-0.2392623228346457
11
0.0018913385826772
21
-0.2350946456692913
0
LINE
8
BLACK
6
CONTINUOUS
10
0.0018913385826772
20
-0.2350946456692913
11
0.0082090551181102
21
-0.2318755905511811
0
LINE
8
BLACK
6
CONTINUOUS
10
0.0082090551181102
20
-0.2318755905511811
11
0.0149525196850394
21
-0.2296845275590551
0
LINE
8
BLACK
6
CONTINUOUS
10
0.0149525196850394
20
-0.2296845275590551
11
0.0219557480314961
21
-0.2285753149606299
0
LINE
8
BLACK
6
CONTINUOUS
10
0.0219557480314961
20
-0.2285753149606299
11
0.0290462204724409
21
-0.2285753149606299
0
LINE
8
BLACK
6
CONTINUOUS
10
0.0290462204724409
20
-0.2285753149606299
11
0.0360494488188976
21
-0.2296845275590551
0
LINE
8
BLACK
6
CONTINUOUS
10
-0.015748031496063
20
-0.2776847244094488
11
-0.0141628346456693
21
-0.285653937007874
0
LINE
8
BLACK
6
CONTINUOUS
10
-0.0141628346456693
20
-0.285653937007874
11
-0.0110533858267717
21
-0.2931607874015748
0
LINE
8
BLACK
6
CONTINUOUS
10
-0.0110533858267717
20
-0.2931607874015748
11
-0.0065392125984252
21
-0.2999167322834645
0
LINE
8
BLACK
6
CONTINUOUS
10
-0.0065392125984252
20
-0.2999167322834645
11
-0.0007937007874016
21
-0.3056622440944882
0
LINE
8
BLACK
6
CONTINUOUS
10
-0.0007937007874016
20
-0.3056622440944882
11
0.0059622440944882
21
-0.3101764173228346
0
LINE
8
BLACK
6
CONTINUOUS
10
0.0059622440944882
20
-0.3101764173228346
11
0.013469094488189
21
-0.3132858661417323
0
LINE
8
BLACK
6
CONTINUOUS
10
0.013469094488189
20
-0.3132858661417323
11
0.0214383070866142
21
-0.314871062992126
0
LINE
8
BLACK
6
CONTINUOUS
10
0.0214383070866142
20
-0.314871062992126
11
0.0295636614173228
21
-0.314871062992126
0
LINE
8
BLACK
6
CONTINUOUS
10
0.0295636614173228
20
-0.314871062992126
11
0.037532874015748
21
-0.3132858661417323
0
LINE
8
BLACK
6
CONTINUOUS
10
0.037532874015748
20
-0.3132858661417323
11
0.0450397244094488
21
-0.3101764173228346
0
LINE
8
BLACK
6
CONTINUOUS
10
0.0450397244094488
20
-0.3101764173228346
11
0.0517956692913386
21
-0.3056622440944882
0
LINE
8
BLACK
6
CONTINUOUS
10
0.0517956692913386
20
-0.3056622440944882
11
0.0575411811023622
21
-0.2999167322834645
0
LINE
8
BLACK
6
CONTINUOUS
10
0.0575411811023622
20
-0.2999167322834645
11
0.0620553543307087
21
-0.2931607874015748
0
LINE
8
BLACK
6
CONTINUOUS
10
0.0620553543307087
20
-0.2931607874015748
11
0.0651648031496063
21
-0.285653937007874
0
LINE
8
BLACK
6
CONTINUOUS
10
0.0651648031496063
20
-0.285653937007874
11
0.06675
21
-0.2776847244094488
0
LINE
8
BLACK
6
CONTINUOUS
10
0.06675
20
-0.2776847244094488
11
0.06675
21
-0.2695593700787401
0
LINE
8
BLACK
6
CONTINUOUS
10
0.06675
20
-0.2695593700787401
11
0.0651648031496063
21
-0.2615901574803149
0
LINE
8
BLACK
6
CONTINUOUS
10
0.0651648031496063
20
-0.2615901574803149
11
0.0620553543307087
21
-0.2540833070866141
0
LINE
8
BLACK
6
CONTINUOUS
10
0.0620553543307087
20
-0.2540833070866141
11
0.0575411811023622
21
-0.2473273622047244
0
LINE
8
BLACK
6
CONTINUOUS
10
0.0575411811023622
20
-0.2473273622047244
11
0.0517956692913386
21
-0.2415818503937008
0
LINE
8
BLACK
6
CONTINUOUS
10
0.0517956692913386
20
-0.2415818503937008
11
0.0450397244094488
21
-0.2370676771653543
0
LINE
8
BLACK
6
CONTINUOUS
10
0.0450397244094488
20
-0.2370676771653543
11
0.037532874015748
21
-0.2339582283464567
0
LINE
8
BLACK
6
CONTINUOUS
10
0.037532874015748
20
-0.2339582283464567
11
0.0295636614173228
21
-0.232373031496063
0
LINE
8
BLACK
6
CONTINUOUS
10
0.0295636614173228
20
-0.232373031496063
11
0.0214383070866142
21
-0.232373031496063
0
LINE
8
BLACK
6
CONTINUOUS
10
0.0214383070866142
20
-0.232373031496063
11
0.013469094488189
21
-0.2339582283464567
0
LINE
8
BLACK
6
CONTINUOUS
10
0.013469094488189
20
-0.2339582283464567
11
0.0059622440944882
21
-0.2370676771653543
0
LINE
8
BLACK
6
CONTINUOUS
10
0.0059622440944882
20
-0.2370676771653543
11
-0.0007937007874016
21
-0.2415818503937008
0
LINE
8
BLACK
6
CONTINUOUS
10
-0.0007937007874016
20
-0.2415818503937008
11
-0.0065392125984252
21
-0.2473273622047244
0
LINE
8
BLACK
6
CONTINUOUS
10
-0.0065392125984252
20
-0.2473273622047244
11
-0.0110533858267717
21
-0.2540833070866141
0
LINE
8
BLACK
6
CONTINUOUS
10
-0.0110533858267717
20
-0.2540833070866141
11
-0.0141628346456693
21
-0.2615901574803149
0
LINE
8
BLACK
6
CONTINUOUS
10
-0.0141628346456693
20
-0.2615901574803149
11
-0.015748031496063
21
-0.2695593700787401
0
LINE
8
BLACK
6
CONTINUOUS
10
-0.015748031496063
20
-0.2695593700787401
11
-0.015748031496063
21
-0.2776847244094488
0
LINE
8
BLACK
6
CONTINUOUS
10
11.8825061417322839
20
-0.2296845275590551
11
11.889249606299213
21
-0.2318755905511811
0
LINE
8
BLACK
6
CONTINUOUS
10
11.889249606299213
20
-0.2318755905511811
11
11.8955673228346459
21
-0.2350946456692913
0
LINE
8
BLACK
6
CONTINUOUS
10
11.8955673228346459
20
-0.2350946456692913
11
11.9013036614173231
21
-0.2392623228346457
0
LINE
8
BLACK
6
CONTINUOUS
10
11.9013036614173231
20
-0.2392623228346457
11
11.9063174015748032
21
-0.244276062992126
0
LINE
8
BLACK
6
CONTINUOUS
10
11.9063174015748032
20
-0.244276062992126
11
11.910485078740157
21
-0.2500124015748031
0
LINE
8
BLACK
6
CONTINUOUS
10
11.910485078740157
20
-0.2500124015748031
11
11.9137041338582677
21
-0.2563301181102362
0
LINE
8
BLACK
6
CONTINUOUS
10
11.9137041338582677
20
-0.2563301181102362
11
11.9158951968503928
21
-0.2630735826771654
0
LINE
8
BLACK
6
CONTINUOUS
10
11.9158951968503928
20
-0.2630735826771654
11
11.9170044094488183
21
-0.270076811023622
0
LINE
8
BLACK
6
CONTINUOUS
10
11.9170044094488183
20
-0.270076811023622
11
11.9170044094488183
21
-0.2771672834645669
0
LINE
8
BLACK
6
CONTINUOUS
10
11.9170044094488183
20
-0.2771672834645669
11
11.9158951968503928
21
-0.2841705118110236
0
LINE
8
BLACK
6
CONTINUOUS
10
11.9158951968503928
20
-0.2841705118110236
11
11.9137041338582677
21
-0.2909139763779527
0
LINE
8
BLACK
6
CONTINUOUS
10
11.9137041338582677
20
-0.2909139763779527
11
11.910485078740157
21
-0.2972316929133858
0
LINE
8
BLACK
6
CONTINUOUS
10
11.910485078740157
20
-0.2972316929133858
11
11.9063174015748032
21
-0.302968031496063
0
LINE
8
BLACK
6
CONTINUOUS
10
11.9063174015748032
20
-0.302968031496063
11
11.9013036614173231
21
-0.3079817716535433
0
LINE
8
BLACK
6
CONTINUOUS
10
11.9013036614173231
20
-0.3079817716535433
11
11.8955673228346459
21
-0.3121494488188976
0
LINE
8
BLACK
6
CONTINUOUS
10
11.8955673228346459
20
-0.3121494488188976
11
11.889249606299213
21
-0.3153685039370079
0
LINE
8
BLACK
6
CONTINUOUS
10
11.889249606299213
20
-0.3153685039370079
11
11.8825061417322839
21
-0.3175595669291338
0
LINE
8
BLACK
6
CONTINUOUS
10
11.8825061417322839
20
-0.3175595669291338
11
11.8755029133858265
21
-0.3186687795275591
0
LINE
8
BLACK
6
CONTINUOUS
10
11.8755029133858265
20
-0.3186687795275591
11
11.8684124409448817
21
-0.3186687795275591
0
LINE
8
BLACK
6
CONTINUOUS
10
11.8684124409448817
20
-0.3186687795275591
11
11.8614092125984243
21
-0.3175595669291338
0
LINE
8
BLACK
6
CONTINUOUS
10
11.8614092125984243
20
-0.3175595669291338
11
11.8546657480314952
21
-0.3153685039370079
0
LINE
8
BLACK
6
CONTINUOUS
10
11.8546657480314952
20
-0.3153685039370079
11
11.8483480314960623
21
-0.3121494488188976
0
LINE
8
BLACK
6
CONTINUOUS
10
11.8483480314960623
20
-0.3121494488188976
11
11.8426116929133851
21
-0.3079817716535433
0
LINE
8
BLACK
6
CONTINUOUS
10
11.8426116929133851
20
-0.3079817716535433
11
11.837597952755905
21
-0.302968031496063
0
LINE
8
BLACK
6
CONTINUOUS
10
11.837597952755905
20
-0.302968031496063
11
11.8334302755905512
21
-0.2972316929133858
0
LINE
8
BLACK
6
CONTINUOUS
10
11.8334302755905512
20
-0.2972316929133858
11
11.8302112204724406
21
-0.2909139763779527
0
LINE
8
BLACK
6
CONTINUOUS
10
11.8302112204724406
20
-0.2909139763779527
11
11.8280201574803154
21
-0.2841705118110236
0
LINE
8
BLACK
6
CONTINUOUS
10
11.8280201574803154
20
-0.2841705118110236
11
11.8269109448818899
21
-0.2771672834645669
0
LINE
8
BLACK
6
CONTINUOUS
10
11.8269109448818899
20
-0.2771672834645669
11
11.8269109448818899
21
-0.270076811023622
0
LINE
8
BLACK
6
CONTINUOUS
10
11.8269109448818899
20
-0.270076811023622
11
11.8269929133858263
21
-0.2695593700787401
0
LINE
8
BLACK
6
CONTINUOUS
10
11.8269929133858263
20
-0.2695593700787401
11
11.8280201574803154
21
-0.2630735826771654
0
LINE
8
BLACK
6
CONTINUOUS
10
11.8280201574803154
20
-0.2630735826771654
11
11.8302112204724406
21
-0.2563301181102362
0
LINE
8
BLACK
6
CONTINUOUS
10
11.8302112204724406
20
-0.2563301181102362
11
11.8334302755905512
21
-0.2500124015748031
0
LINE
8
BLACK
6
CONTINUOUS
10
11.8334302755905512
20
-0.2500124015748031
11
11.837597952755905
21
-0.244276062992126
0
LINE
8
BLACK
6
CONTINUOUS
10
11.837597952755905
20
-0.244276062992126
11
11.8426116929133851
21
-0.2392623228346457
0
LINE
8
BLACK
6
CONTINUOUS
10
11.8426116929133851
20
-0.2392623228346457
11
11.8483480314960623
21
-0.2350946456692913
0
LINE
8
BLACK
6
CONTINUOUS
10
11.8483480314960623
20
-0.2350946456692913
11
11.8546657480314952
21
-0.2318755905511811
0
LINE
8
BLACK
6
CONTINUOUS
10
11.8546657480314952
20
-0.2318755905511811
11
11.8614092125984243
21
-0.2296845275590551
0
LINE
8
BLACK
6
CONTINUOUS
10
11.8614092125984243
20
-0.2296845275590551
11
11.8684124409448817
21
-0.2285753149606299
0
LINE
8
BLACK
6
CONTINUOUS
10
11.8684124409448817
20
-0.2285753149606299
11
11.8755029133858265
21
-0.2285753149606299
0
LINE
8
BLACK
6
CONTINUOUS
10
11.8755029133858265
20
-0.2285753149606299
11
11.8825061417322839
21
-0.2296845275590551
0
LINE
8
BLACK
6
CONTINUOUS
10
11.8307086614173222
20
-0.2776847244094488
11
11.8322938582677164
21
-0.285653937007874
0
LINE
8
BLACK
6
CONTINUOUS
10
11.8322938582677164
20
-0.285653937007874
11
11.8354033070866134
21
-0.2931607874015748
0
LINE
8
BLACK
6
CONTINUOUS
10
11.8354033070866134
20
-0.2931607874015748
11
11.8399174803149609
21
-0.2999167322834645
0
LINE
8
BLACK
6
CONTINUOUS
10
11.8399174803149609
20
-0.2999167322834645
11
11.8456629921259839
21
-0.3056622440944882
0
LINE
8
BLACK
6
CONTINUOUS
10
11.8456629921259839
20
-0.3056622440944882
11
11.8524189370078741
21
-0.3101764173228346
0
LINE
8
BLACK
6
CONTINUOUS
10
11.8524189370078741
20
-0.3101764173228346
11
11.8599257874015738
21
-0.3132858661417323
0
LINE
8
BLACK
6
CONTINUOUS
10
11.8599257874015738
20
-0.3132858661417323
11
11.867894999999999
21
-0.314871062992126
0
LINE
8
BLACK
6
CONTINUOUS
10
11.867894999999999
20
-0.314871062992126
11
11.8760203543307092
21
-0.314871062992126
0
LINE
8
BLACK
6
CONTINUOUS
10
11.8760203543307092
20
-0.314871062992126
11
11.8839895669291344
21
-0.3132858661417323
0
LINE
8
BLACK
6
CONTINUOUS
10
11.8839895669291344
20
-0.3132858661417323
11
11.8914964173228341
21
-0.3101764173228346
0
LINE
8
BLACK
6
CONTINUOUS
10
11.8914964173228341
20
-0.3101764173228346
11
11.8982523622047243
21
-0.3056622440944882
0
LINE
8
BLACK
6
CONTINUOUS
10
11.8982523622047243
20
-0.3056622440944882
11
11.9039978740157473
21
-0.2999167322834645
0
LINE
8
BLACK
6
CONTINUOUS
10
11.9039978740157473
20
-0.2999167322834645
11
11.9085120472440948
21
-0.2931607874015748
0
LINE
8
BLACK
6
CONTINUOUS
10
11.9085120472440948
20
-0.2931607874015748
11
11.9116214960629918
21
-0.285653937007874
0
LINE
8
BLACK
6
CONTINUOUS
10
11.9116214960629918
20
-0.285653937007874
11
11.913206692913386
21
-0.2776847244094488
0
LINE
8
BLACK
6
CONTINUOUS
10
11.913206692913386
20
-0.2776847244094488
11
11.913206692913386
21
-0.2695593700787401
0
LINE
8
BLACK
6
CONTINUOUS
10
11.913206692913386
20
-0.2695593700787401
11
11.9116214960629918
21
-0.2615901574803149
0
LINE
8
BLACK
6
CONTINUOUS
10
11.9116214960629918
20
-0.2615901574803149
11
11.9085120472440948
21
-0.2540833070866141
0
LINE
8
BLACK
6
CONTINUOUS
10
11.9085120472440948
20
-0.2540833070866141
11
11.9039978740157473
21
-0.2473273622047244
0
LINE
8
BLACK
6
CONTINUOUS
10
11.9039978740157473
20
-0.2473273622047244
11
11.8982523622047243
21
-0.2415818503937008
0
LINE
8
BLACK
6
CONTINUOUS
10
11.8982523622047243
20
-0.2415818503937008
11
11.8914964173228341
21
-0.2370676771653543
0
LINE
8
BLACK
6
CONTINUOUS
10
11.8914964173228341
20
-0.2370676771653543
11
11.8839895669291344
21
-0.2339582283464567
0
LINE
8
BLACK
6
CONTINUOUS
10
11.8839895669291344
20
-0.2339582283464567
11
11.8760203543307092
21
-0.232373031496063
0
LINE
8
BLACK
6
CONTINUOUS
10
11.8760203543307092
20
-0.232373031496063
11
11.867894999999999
21
-0.232373031496063
0
LINE
8
BLACK
6
CONTINUOUS
10
11.867894999999999
20
-0.232373031496063
11
11.8599257874015738
21
-0.2339582283464567
0
LINE
8
BLACK
6
CONTINUOUS
10
11.8599257874015738
20
-0.2339582283464567
11
11.8524189370078741
21
-0.2370676771653543
0
LINE
8
BLACK
6
CONTINUOUS
10
11.8524189370078741
20
-0.2370676771653543
11
11.8456629921259839
21
-0.2415818503937008
0
LINE
8
BLACK
6
CONTINUOUS
10
11.8456629921259839
20
-0.2415818503937008
11
11.8399174803149609
21
-0.2473273622047244
0
LINE
8
BLACK
6
CONTINUOUS
10
11.8399174803149609
20
-0.2473273622047244
11
11.8354033070866134
21
-0.2540833070866141
0
LINE
8
BLACK
6
CONTINUOUS
10
11.8354033070866134
20
-0.2540833070866141
11
11.8322938582677164
21
-0.2615901574803149
0
LINE
8
BLACK
6
CONTINUOUS
10
11.8322938582677164
20
-0.2615901574803149
11
11.8307086614173222
21
-0.2695593700787401
0
LINE
8
BLACK
6
CONTINUOUS
10
11.8307086614173222
20
-0.2695593700787401
11
11.8307086614173222
21
-0.2776847244094488
0
LINE
8
BLACK
6
CONTINUOUS
10
11.9897467322834643
20
-0.1553406692913386
11
11.990279409448819
21
-0.1558733464566929
0
LINE
8
BLACK
6
CONTINUOUS
10
11.990279409448819
20
-0.1558733464566929
11
11.9903543307086604
21
-0.15625
0
LINE
8
BLACK
6
CONTINUOUS
10
11.9903543307086604
20
-0.15625
11
11.9903543307086604
21
-4.2602362204724411
0
LINE
8
BLACK
6
CONTINUOUS
10
11.9903543307086604
20
-4.2602362204724411
11
11.990279409448819
21
-4.2606128740157478
0
LINE
8
BLACK
6
CONTINUOUS
10
11.990279409448819
20
-4.2606128740157478
11
11.9897467322834643
21
-4.2611455511811025
0
LINE
8
BLACK
6
CONTINUOUS
10
11.9897467322834643
20
-4.2611455511811025
11
11.9893700787401567
21
-4.2612204724409448
0
LINE
8
BLACK
6
CONTINUOUS
10
11.9893700787401567
20
-4.2612204724409448
11
7.2519685039370074
21
-4.2612204724409448
0
LINE
8
BLACK
6
CONTINUOUS
10
7.2519685039370074
20
-4.2612204724409448
11
3.0214800787401574
21
-4.2612204724409448
0
LINE
8
BLACK
6
CONTINUOUS
10
3.0214800787401574
20
-4.2612204724409448
11
-0.09375
21
-4.2612204724409448
0
LINE
8
BLACK
6
CONTINUOUS
10
-0.09375
20
-4.2612204724409448
11
-0.0941266535433071
21
-4.2611455511811025
0
LINE
8
BLACK
6
CONTINUOUS
10
-0.0941266535433071
20
-4.2611455511811025
11
-0.0946593307086614
21
-4.2606128740157478
0
LINE
8
BLACK
6
CONTINUOUS
10
-0.0946593307086614
20
-4.2606128740157478
11
-0.0947342519685039
21
-4.2602362204724411
0
LINE
8
BLACK
6
CONTINUOUS
10
-0.0947342519685039
20
-4.2602362204724411
11
-0.0947342519685039
21
-0.15625
0
LINE
8
BLACK
6
CONTINUOUS
10
-0.0947342519685039
20
-0.15625
11
-0.0946593307086614
21
-0.1558733464566929
0
LINE
8
BLACK
6
CONTINUOUS
10
-0.0946593307086614
20
-0.1558733464566929
11
-0.0941266535433071
21
-0.1553406692913386
0
LINE
8
BLACK
6
CONTINUOUS
10
-0.0941266535433071
20
-0.1553406692913386
11
-0.09375
21
-0.1552657480314961
0
LINE
8
BLACK
6
CONTINUOUS
10
-0.09375
20
-0.1552657480314961
11
11.9893700787401567
21
-0.1552657480314961
0
LINE
8
BLACK
6
CONTINUOUS
10
11.9893700787401567
20
-0.1552657480314961
11
11.9897467322834643
21
-0.1553406692913386
0
LINE
8
BLACK
6
CONTINUOUS
10
-0.0927657480314961
20
-0.1572342519685039
11
-0.0927657480314961
21
-4.2592519685039365
0
LINE
8
BLACK
6
CONTINUOUS
10
-0.0927657480314961
20
-4.2592519685039365
11
3.0204958267716533
21
-4.2592519685039365
0
LINE
8
BLACK
6
CONTINUOUS
10
3.0204958267716533
20
-4.2592519685039365
11
3.0204958267716533
21
-3.4094488188976375
0
LINE
8
BLACK
6
CONTINUOUS
10
3.0204958267716533
20
-3.4094488188976375
11
3.0205707480314961
21
-3.4090721653543308
0
LINE
8
BLACK
6
CONTINUOUS
10
3.0205707480314961
20
-3.4090721653543308
11
3.0211034251968503
21
-3.4085394881889761
0
LINE
8
BLACK
6
CONTINUOUS
10
3.0211034251968503
20
-3.4085394881889761
11
3.0214800787401574
21
-3.4084645669291338
0
LINE
8
BLACK
6
CONTINUOUS
10
3.0214800787401574
20
-3.4084645669291338
11
7.2519685039370074
21
-3.4084645669291338
0
LINE
8
BLACK
6
CONTINUOUS
10
7.2519685039370074
20
-3.4084645669291338
11
7.2523451574803151
21
-3.4085394881889761
0
LINE
8
BLACK
6
CONTINUOUS
10
7.2523451574803151
20
-3.4085394881889761
11
7.2528778346456688
21
-3.4090721653543308
0
LINE
8
BLACK
6
CONTINUOUS
10
7.2528778346456688
20
-3.4090721653543308
11
7.252952755905512
21
-3.4094488188976375
0
LINE
8
BLACK
6
CONTINUOUS
10
7.252952755905512
20
-3.4094488188976375
11
7.252952755905512
21
-4.2592519685039365
0
LINE
8
BLACK
6
CONTINUOUS
10
7.252952755905512
20
-4.2592519685039365
11
11.988385826771653
21
-4.2592519685039365
0
LINE
8
BLACK
6
CONTINUOUS
10
11.988385826771653
20
-4.2592519685039365
11
11.988385826771653
21
-0.1572342519685039
0
LINE
8
BLACK
6
CONTINUOUS
10
11.988385826771653
20
-0.1572342519685039
11
-0.0927657480314961
21
-0.1572342519685039
0
LINE
8
BLACK
6
CONTINUOUS
10
3.0224643307086612
20
-3.4104330708661417
11
3.0224643307086612
21
-4.2592519685039365
0
LINE
8
BLACK
6
CONTINUOUS
10
3.0224643307086612
20
-4.2592519685039365
11
7.2509842519685037
21
-4.2592519685039365
0
LINE
8
BLACK
6
CONTINUOUS
10
7.2509842519685037
20
-4.2592519685039365
11
7.2509842519685037
21
-3.4104330708661417
0
LINE
8
BLACK
6
CONTINUOUS
10
7.2509842519685037
20
-3.4104330708661417
11
3.0224643307086612
21
-3.4104330708661417
  0
ENDSEC
  0
EOF
